ISO-10303-21;
HEADER;
/* Generated by software containing ST-Developer
 * from STEP Tools, Inc. (www.steptools.com) 
 */
/* OPTION: using custom renumber hook */

FILE_DESCRIPTION(
/* description */ ('STEP AP214'),
/* implementation_level */ '2;1');

FILE_NAME(
/* name */ 'MTSW-101-09-G-S-104',
/* time_stamp */ '2025-09-15T21:50:26+02:00',
/* author */ ('License CC BY-ND 4.0'),
/* organization */ ('CADENAS'),
/* preprocessor_version */ 'ST-DEVELOPER v19.3',
/* originating_system */ 'PARTsolutions',
/* authorisation */ '  ');

FILE_SCHEMA (('AUTOMOTIVE_DESIGN {1 0 10303 214 3 1 1}'));
ENDSEC;

DATA;
#10=PROPERTY_DEFINITION_REPRESENTATION(#14,#12);
#11=PROPERTY_DEFINITION_REPRESENTATION(#15,#13);
#12=REPRESENTATION('',(#16),#1313);
#13=REPRESENTATION('',(#17),#1313);
#14=PROPERTY_DEFINITION('pmi validation property','',#1325);
#15=PROPERTY_DEFINITION('pmi validation property','',#1325);
#16=VALUE_REPRESENTATION_ITEM('number of annotations',COUNT_MEASURE(0.));
#17=VALUE_REPRESENTATION_ITEM('number of views',COUNT_MEASURE(0.));
#18=DRAUGHTING_PRE_DEFINED_COLOUR('yellow');
#19=CONTEXT_DEPENDENT_SHAPE_REPRESENTATION(#23,#1327);
#20=CONTEXT_DEPENDENT_SHAPE_REPRESENTATION(#24,#1329);
#21=NEXT_ASSEMBLY_USAGE_OCCURRENCE('NAUO1','MTSW-101-09-G-S-104_body',
'MTSW-101-09-G-S-104_body',#1330,#1331,'');
#22=NEXT_ASSEMBLY_USAGE_OCCURRENCE('NAUO2','MTSW-101-09-S-104',
'MTSW-101-09-S-104',#1330,#1332,'');
#23=(
REPRESENTATION_RELATIONSHIP(' ',' ',#842,#841)
REPRESENTATION_RELATIONSHIP_WITH_TRANSFORMATION(#25)
SHAPE_REPRESENTATION_RELATIONSHIP()
);
#24=(
REPRESENTATION_RELATIONSHIP(' ',' ',#843,#841)
REPRESENTATION_RELATIONSHIP_WITH_TRANSFORMATION(#26)
SHAPE_REPRESENTATION_RELATIONSHIP()
);
#25=ITEM_DEFINED_TRANSFORMATION(' ',' ',#844,#871);
#26=ITEM_DEFINED_TRANSFORMATION(' ',' ',#844,#888);
#27=SHAPE_REPRESENTATION_RELATIONSHIP('','',#842,#29);
#28=SHAPE_REPRESENTATION_RELATIONSHIP('','',#843,#30);
#29=ADVANCED_BREP_SHAPE_REPRESENTATION('',(#836),#1314);
#30=ADVANCED_BREP_SHAPE_REPRESENTATION('',(#837),#1315);
#31=ORIENTED_EDGE('',*,*,#247,.F.);
#32=ORIENTED_EDGE('',*,*,#248,.F.);
#33=ORIENTED_EDGE('',*,*,#249,.F.);
#34=ORIENTED_EDGE('',*,*,#250,.F.);
#35=ORIENTED_EDGE('',*,*,#251,.F.);
#36=ORIENTED_EDGE('',*,*,#252,.F.);
#37=ORIENTED_EDGE('',*,*,#253,.F.);
#38=ORIENTED_EDGE('',*,*,#254,.F.);
#39=ORIENTED_EDGE('',*,*,#255,.F.);
#40=ORIENTED_EDGE('',*,*,#256,.F.);
#41=ORIENTED_EDGE('',*,*,#257,.F.);
#42=ORIENTED_EDGE('',*,*,#258,.F.);
#43=ORIENTED_EDGE('',*,*,#259,.F.);
#44=ORIENTED_EDGE('',*,*,#260,.F.);
#45=ORIENTED_EDGE('',*,*,#261,.F.);
#46=ORIENTED_EDGE('',*,*,#262,.F.);
#47=ORIENTED_EDGE('',*,*,#263,.T.);
#48=ORIENTED_EDGE('',*,*,#264,.T.);
#49=ORIENTED_EDGE('',*,*,#250,.T.);
#50=ORIENTED_EDGE('',*,*,#265,.T.);
#51=ORIENTED_EDGE('',*,*,#252,.T.);
#52=ORIENTED_EDGE('',*,*,#266,.T.);
#53=ORIENTED_EDGE('',*,*,#267,.T.);
#54=ORIENTED_EDGE('',*,*,#268,.T.);
#55=ORIENTED_EDGE('',*,*,#256,.T.);
#56=ORIENTED_EDGE('',*,*,#269,.T.);
#57=ORIENTED_EDGE('',*,*,#270,.F.);
#58=ORIENTED_EDGE('',*,*,#271,.T.);
#59=ORIENTED_EDGE('',*,*,#272,.F.);
#60=ORIENTED_EDGE('',*,*,#273,.T.);
#61=ORIENTED_EDGE('',*,*,#262,.T.);
#62=ORIENTED_EDGE('',*,*,#274,.T.);
#63=ORIENTED_EDGE('',*,*,#248,.T.);
#64=ORIENTED_EDGE('',*,*,#275,.T.);
#65=ORIENTED_EDGE('',*,*,#276,.F.);
#66=ORIENTED_EDGE('',*,*,#277,.T.);
#67=ORIENTED_EDGE('',*,*,#278,.F.);
#68=ORIENTED_EDGE('',*,*,#279,.T.);
#69=ORIENTED_EDGE('',*,*,#254,.T.);
#70=ORIENTED_EDGE('',*,*,#280,.T.);
#71=ORIENTED_EDGE('',*,*,#281,.T.);
#72=ORIENTED_EDGE('',*,*,#282,.T.);
#73=ORIENTED_EDGE('',*,*,#258,.T.);
#74=ORIENTED_EDGE('',*,*,#283,.T.);
#75=ORIENTED_EDGE('',*,*,#260,.T.);
#76=ORIENTED_EDGE('',*,*,#284,.T.);
#77=ORIENTED_EDGE('',*,*,#285,.T.);
#78=ORIENTED_EDGE('',*,*,#286,.T.);
#79=ORIENTED_EDGE('',*,*,#280,.F.);
#80=ORIENTED_EDGE('',*,*,#253,.T.);
#81=ORIENTED_EDGE('',*,*,#268,.F.);
#82=ORIENTED_EDGE('',*,*,#287,.F.);
#83=ORIENTED_EDGE('',*,*,#288,.F.);
#84=ORIENTED_EDGE('',*,*,#289,.F.);
#85=ORIENTED_EDGE('',*,*,#290,.T.);
#86=ORIENTED_EDGE('',*,*,#291,.F.);
#87=ORIENTED_EDGE('',*,*,#274,.F.);
#88=ORIENTED_EDGE('',*,*,#261,.T.);
#89=ORIENTED_EDGE('',*,*,#286,.F.);
#90=ORIENTED_EDGE('',*,*,#292,.F.);
#91=ORIENTED_EDGE('',*,*,#277,.F.);
#92=ORIENTED_EDGE('',*,*,#293,.F.);
#93=ORIENTED_EDGE('',*,*,#283,.F.);
#94=ORIENTED_EDGE('',*,*,#257,.T.);
#95=ORIENTED_EDGE('',*,*,#271,.F.);
#96=ORIENTED_EDGE('',*,*,#294,.F.);
#97=ORIENTED_EDGE('',*,*,#295,.F.);
#98=ORIENTED_EDGE('',*,*,#296,.F.);
#99=ORIENTED_EDGE('',*,*,#297,.T.);
#100=ORIENTED_EDGE('',*,*,#298,.F.);
#101=ORIENTED_EDGE('',*,*,#265,.F.);
#102=ORIENTED_EDGE('',*,*,#249,.T.);
#103=ORIENTED_EDGE('',*,*,#299,.T.);
#104=ORIENTED_EDGE('',*,*,#300,.T.);
#105=ORIENTED_EDGE('',*,*,#301,.F.);
#106=ORIENTED_EDGE('',*,*,#302,.T.);
#107=ORIENTED_EDGE('',*,*,#301,.T.);
#108=ORIENTED_EDGE('',*,*,#303,.T.);
#109=ORIENTED_EDGE('',*,*,#304,.F.);
#110=ORIENTED_EDGE('',*,*,#305,.T.);
#111=ORIENTED_EDGE('',*,*,#304,.T.);
#112=ORIENTED_EDGE('',*,*,#306,.T.);
#113=ORIENTED_EDGE('',*,*,#307,.F.);
#114=ORIENTED_EDGE('',*,*,#308,.T.);
#115=ORIENTED_EDGE('',*,*,#307,.T.);
#116=ORIENTED_EDGE('',*,*,#309,.T.);
#117=ORIENTED_EDGE('',*,*,#299,.F.);
#118=ORIENTED_EDGE('',*,*,#310,.T.);
#119=ORIENTED_EDGE('',*,*,#311,.F.);
#120=ORIENTED_EDGE('',*,*,#290,.F.);
#121=ORIENTED_EDGE('',*,*,#312,.F.);
#122=ORIENTED_EDGE('',*,*,#295,.T.);
#123=ORIENTED_EDGE('',*,*,#313,.F.);
#124=ORIENTED_EDGE('',*,*,#297,.F.);
#125=ORIENTED_EDGE('',*,*,#314,.F.);
#126=ORIENTED_EDGE('',*,*,#288,.T.);
#127=ORIENTED_EDGE('',*,*,#302,.F.);
#128=ORIENTED_EDGE('',*,*,#305,.F.);
#129=ORIENTED_EDGE('',*,*,#308,.F.);
#130=ORIENTED_EDGE('',*,*,#310,.F.);
#131=ORIENTED_EDGE('',*,*,#289,.T.);
#132=ORIENTED_EDGE('',*,*,#314,.T.);
#133=ORIENTED_EDGE('',*,*,#296,.T.);
#134=ORIENTED_EDGE('',*,*,#312,.T.);
#135=ORIENTED_EDGE('',*,*,#315,.T.);
#136=ORIENTED_EDGE('',*,*,#263,.F.);
#137=ORIENTED_EDGE('',*,*,#298,.T.);
#138=ORIENTED_EDGE('',*,*,#313,.T.);
#139=ORIENTED_EDGE('',*,*,#287,.T.);
#140=ORIENTED_EDGE('',*,*,#267,.F.);
#141=ORIENTED_EDGE('',*,*,#316,.F.);
#142=ORIENTED_EDGE('',*,*,#278,.T.);
#143=ORIENTED_EDGE('',*,*,#292,.T.);
#144=ORIENTED_EDGE('',*,*,#285,.F.);
#145=ORIENTED_EDGE('',*,*,#317,.F.);
#146=ORIENTED_EDGE('',*,*,#272,.T.);
#147=ORIENTED_EDGE('',*,*,#291,.T.);
#148=ORIENTED_EDGE('',*,*,#311,.T.);
#149=ORIENTED_EDGE('',*,*,#294,.T.);
#150=ORIENTED_EDGE('',*,*,#270,.T.);
#151=ORIENTED_EDGE('',*,*,#318,.T.);
#152=ORIENTED_EDGE('',*,*,#281,.F.);
#153=ORIENTED_EDGE('',*,*,#293,.T.);
#154=ORIENTED_EDGE('',*,*,#276,.T.);
#155=ORIENTED_EDGE('',*,*,#309,.F.);
#156=ORIENTED_EDGE('',*,*,#306,.F.);
#157=ORIENTED_EDGE('',*,*,#303,.F.);
#158=ORIENTED_EDGE('',*,*,#300,.F.);
#159=ORIENTED_EDGE('',*,*,#317,.T.);
#160=ORIENTED_EDGE('',*,*,#284,.F.);
#161=ORIENTED_EDGE('',*,*,#259,.T.);
#162=ORIENTED_EDGE('',*,*,#273,.F.);
#163=ORIENTED_EDGE('',*,*,#255,.T.);
#164=ORIENTED_EDGE('',*,*,#282,.F.);
#165=ORIENTED_EDGE('',*,*,#318,.F.);
#166=ORIENTED_EDGE('',*,*,#269,.F.);
#167=ORIENTED_EDGE('',*,*,#315,.F.);
#168=ORIENTED_EDGE('',*,*,#275,.F.);
#169=ORIENTED_EDGE('',*,*,#247,.T.);
#170=ORIENTED_EDGE('',*,*,#264,.F.);
#171=ORIENTED_EDGE('',*,*,#251,.T.);
#172=ORIENTED_EDGE('',*,*,#279,.F.);
#173=ORIENTED_EDGE('',*,*,#316,.T.);
#174=ORIENTED_EDGE('',*,*,#266,.F.);
#175=ORIENTED_EDGE('',*,*,#319,.F.);
#176=ORIENTED_EDGE('',*,*,#320,.F.);
#177=ORIENTED_EDGE('',*,*,#321,.T.);
#178=ORIENTED_EDGE('',*,*,#322,.T.);
#179=ORIENTED_EDGE('',*,*,#323,.F.);
#180=ORIENTED_EDGE('',*,*,#324,.T.);
#181=ORIENTED_EDGE('',*,*,#325,.F.);
#182=ORIENTED_EDGE('',*,*,#326,.F.);
#183=ORIENTED_EDGE('',*,*,#320,.T.);
#184=ORIENTED_EDGE('',*,*,#327,.T.);
#185=ORIENTED_EDGE('',*,*,#326,.T.);
#186=ORIENTED_EDGE('',*,*,#328,.T.);
#187=ORIENTED_EDGE('',*,*,#329,.F.);
#188=ORIENTED_EDGE('',*,*,#322,.F.);
#189=ORIENTED_EDGE('',*,*,#330,.F.);
#190=ORIENTED_EDGE('',*,*,#324,.F.);
#191=ORIENTED_EDGE('',*,*,#330,.T.);
#192=ORIENTED_EDGE('',*,*,#321,.F.);
#193=ORIENTED_EDGE('',*,*,#328,.F.);
#194=ORIENTED_EDGE('',*,*,#325,.T.);
#195=ORIENTED_EDGE('',*,*,#327,.F.);
#196=ORIENTED_EDGE('',*,*,#319,.T.);
#197=ORIENTED_EDGE('',*,*,#329,.T.);
#198=ORIENTED_EDGE('',*,*,#323,.T.);
#199=ORIENTED_EDGE('',*,*,#331,.T.);
#200=ORIENTED_EDGE('',*,*,#332,.F.);
#201=ORIENTED_EDGE('',*,*,#333,.F.);
#202=ORIENTED_EDGE('',*,*,#334,.T.);
#203=ORIENTED_EDGE('',*,*,#335,.T.);
#204=ORIENTED_EDGE('',*,*,#336,.F.);
#205=ORIENTED_EDGE('',*,*,#337,.F.);
#206=ORIENTED_EDGE('',*,*,#332,.T.);
#207=ORIENTED_EDGE('',*,*,#338,.F.);
#208=ORIENTED_EDGE('',*,*,#339,.T.);
#209=ORIENTED_EDGE('',*,*,#340,.T.);
#210=ORIENTED_EDGE('',*,*,#341,.T.);
#211=ORIENTED_EDGE('',*,*,#342,.T.);
#212=ORIENTED_EDGE('',*,*,#343,.F.);
#213=ORIENTED_EDGE('',*,*,#344,.F.);
#214=ORIENTED_EDGE('',*,*,#336,.T.);
#215=ORIENTED_EDGE('',*,*,#345,.T.);
#216=ORIENTED_EDGE('',*,*,#334,.F.);
#217=ORIENTED_EDGE('',*,*,#346,.F.);
#218=ORIENTED_EDGE('',*,*,#343,.T.);
#219=ORIENTED_EDGE('',*,*,#333,.T.);
#220=ORIENTED_EDGE('',*,*,#337,.T.);
#221=ORIENTED_EDGE('',*,*,#344,.T.);
#222=ORIENTED_EDGE('',*,*,#346,.T.);
#223=ORIENTED_EDGE('',*,*,#331,.F.);
#224=ORIENTED_EDGE('',*,*,#345,.F.);
#225=ORIENTED_EDGE('',*,*,#342,.F.);
#226=ORIENTED_EDGE('',*,*,#335,.F.);
#227=ORIENTED_EDGE('',*,*,#347,.T.);
#228=ORIENTED_EDGE('',*,*,#348,.F.);
#229=ORIENTED_EDGE('',*,*,#349,.F.);
#230=ORIENTED_EDGE('',*,*,#350,.T.);
#231=ORIENTED_EDGE('',*,*,#340,.F.);
#232=ORIENTED_EDGE('',*,*,#351,.F.);
#233=ORIENTED_EDGE('',*,*,#347,.F.);
#234=ORIENTED_EDGE('',*,*,#352,.F.);
#235=ORIENTED_EDGE('',*,*,#353,.T.);
#236=ORIENTED_EDGE('',*,*,#338,.T.);
#237=ORIENTED_EDGE('',*,*,#354,.T.);
#238=ORIENTED_EDGE('',*,*,#349,.T.);
#239=ORIENTED_EDGE('',*,*,#339,.F.);
#240=ORIENTED_EDGE('',*,*,#353,.F.);
#241=ORIENTED_EDGE('',*,*,#348,.T.);
#242=ORIENTED_EDGE('',*,*,#351,.T.);
#243=ORIENTED_EDGE('',*,*,#341,.F.);
#244=ORIENTED_EDGE('',*,*,#352,.T.);
#245=ORIENTED_EDGE('',*,*,#350,.F.);
#246=ORIENTED_EDGE('',*,*,#354,.F.);
#247=EDGE_CURVE('',#355,#356,#427,.T.);
#248=EDGE_CURVE('',#357,#355,#428,.T.);
#249=EDGE_CURVE('',#358,#357,#429,.T.);
#250=EDGE_CURVE('',#356,#358,#430,.T.);
#251=EDGE_CURVE('',#359,#360,#431,.T.);
#252=EDGE_CURVE('',#361,#359,#432,.T.);
#253=EDGE_CURVE('',#362,#361,#433,.T.);
#254=EDGE_CURVE('',#360,#362,#434,.T.);
#255=EDGE_CURVE('',#363,#364,#435,.T.);
#256=EDGE_CURVE('',#365,#363,#436,.T.);
#257=EDGE_CURVE('',#366,#365,#437,.T.);
#258=EDGE_CURVE('',#364,#366,#438,.T.);
#259=EDGE_CURVE('',#367,#368,#439,.T.);
#260=EDGE_CURVE('',#369,#367,#440,.T.);
#261=EDGE_CURVE('',#370,#369,#441,.T.);
#262=EDGE_CURVE('',#368,#370,#442,.T.);
#263=EDGE_CURVE('',#371,#372,#443,.T.);
#264=EDGE_CURVE('',#372,#356,#444,.T.);
#265=EDGE_CURVE('',#358,#371,#445,.T.);
#266=EDGE_CURVE('',#359,#373,#446,.T.);
#267=EDGE_CURVE('',#373,#374,#447,.T.);
#268=EDGE_CURVE('',#374,#361,#448,.T.);
#269=EDGE_CURVE('',#363,#375,#449,.T.);
#270=EDGE_CURVE('',#376,#375,#450,.T.);
#271=EDGE_CURVE('',#376,#365,#451,.T.);
#272=EDGE_CURVE('',#377,#378,#452,.T.);
#273=EDGE_CURVE('',#377,#368,#453,.T.);
#274=EDGE_CURVE('',#370,#378,#454,.T.);
#275=EDGE_CURVE('',#355,#379,#455,.T.);
#276=EDGE_CURVE('',#380,#379,#456,.T.);
#277=EDGE_CURVE('',#380,#357,#457,.T.);
#278=EDGE_CURVE('',#381,#382,#458,.T.);
#279=EDGE_CURVE('',#381,#360,#459,.T.);
#280=EDGE_CURVE('',#362,#382,#460,.T.);
#281=EDGE_CURVE('',#383,#384,#461,.T.);
#282=EDGE_CURVE('',#384,#364,#462,.T.);
#283=EDGE_CURVE('',#366,#383,#463,.T.);
#284=EDGE_CURVE('',#367,#385,#464,.T.);
#285=EDGE_CURVE('',#385,#386,#465,.T.);
#286=EDGE_CURVE('',#386,#369,#466,.T.);
#287=EDGE_CURVE('',#387,#374,#467,.T.);
#288=EDGE_CURVE('',#388,#387,#468,.T.);
#289=EDGE_CURVE('',#389,#388,#469,.T.);
#290=EDGE_CURVE('',#389,#390,#470,.T.);
#291=EDGE_CURVE('',#378,#390,#471,.T.);
#292=EDGE_CURVE('',#382,#386,#472,.T.);
#293=EDGE_CURVE('',#383,#380,#473,.T.);
#294=EDGE_CURVE('',#391,#376,#474,.T.);
#295=EDGE_CURVE('',#392,#391,#475,.T.);
#296=EDGE_CURVE('',#393,#392,#476,.T.);
#297=EDGE_CURVE('',#393,#394,#477,.T.);
#298=EDGE_CURVE('',#371,#394,#478,.T.);
#299=EDGE_CURVE('',#395,#396,#479,.T.);
#300=EDGE_CURVE('',#396,#397,#480,.T.);
#301=EDGE_CURVE('',#398,#397,#481,.T.);
#302=EDGE_CURVE('',#398,#395,#482,.T.);
#303=EDGE_CURVE('',#397,#399,#483,.T.);
#304=EDGE_CURVE('',#400,#399,#484,.T.);
#305=EDGE_CURVE('',#400,#398,#485,.T.);
#306=EDGE_CURVE('',#399,#401,#486,.T.);
#307=EDGE_CURVE('',#402,#401,#487,.T.);
#308=EDGE_CURVE('',#402,#400,#488,.T.);
#309=EDGE_CURVE('',#401,#396,#489,.T.);
#310=EDGE_CURVE('',#395,#402,#490,.T.);
#311=EDGE_CURVE('',#390,#391,#491,.T.);
#312=EDGE_CURVE('',#392,#389,#492,.T.);
#313=EDGE_CURVE('',#394,#387,#493,.T.);
#314=EDGE_CURVE('',#388,#393,#494,.T.);
#315=EDGE_CURVE('',#379,#372,#495,.T.);
#316=EDGE_CURVE('',#381,#373,#496,.T.);
#317=EDGE_CURVE('',#377,#385,#497,.T.);
#318=EDGE_CURVE('',#375,#384,#498,.T.);
#319=EDGE_CURVE('',#403,#404,#499,.T.);
#320=EDGE_CURVE('',#405,#403,#500,.T.);
#321=EDGE_CURVE('',#405,#406,#501,.T.);
#322=EDGE_CURVE('',#406,#404,#502,.T.);
#323=EDGE_CURVE('',#407,#408,#503,.T.);
#324=EDGE_CURVE('',#407,#409,#504,.T.);
#325=EDGE_CURVE('',#410,#409,#505,.T.);
#326=EDGE_CURVE('',#408,#410,#506,.T.);
#327=EDGE_CURVE('',#403,#408,#507,.T.);
#328=EDGE_CURVE('',#410,#405,#508,.T.);
#329=EDGE_CURVE('',#404,#407,#509,.T.);
#330=EDGE_CURVE('',#409,#406,#510,.T.);
#331=EDGE_CURVE('',#411,#412,#511,.T.);
#332=EDGE_CURVE('',#413,#412,#512,.T.);
#333=EDGE_CURVE('',#414,#413,#513,.T.);
#334=EDGE_CURVE('',#414,#411,#514,.T.);
#335=EDGE_CURVE('',#412,#415,#515,.T.);
#336=EDGE_CURVE('',#416,#415,#516,.T.);
#337=EDGE_CURVE('',#413,#416,#517,.T.);
#338=EDGE_CURVE('',#417,#418,#518,.T.);
#339=EDGE_CURVE('',#417,#419,#519,.T.);
#340=EDGE_CURVE('',#419,#420,#520,.T.);
#341=EDGE_CURVE('',#420,#418,#521,.T.);
#342=EDGE_CURVE('',#415,#421,#522,.T.);
#343=EDGE_CURVE('',#422,#421,#523,.T.);
#344=EDGE_CURVE('',#416,#422,#524,.T.);
#345=EDGE_CURVE('',#421,#411,#525,.T.);
#346=EDGE_CURVE('',#422,#414,#526,.T.);
#347=EDGE_CURVE('',#423,#424,#527,.T.);
#348=EDGE_CURVE('',#425,#424,#528,.T.);
#349=EDGE_CURVE('',#426,#425,#529,.T.);
#350=EDGE_CURVE('',#426,#423,#530,.T.);
#351=EDGE_CURVE('',#424,#419,#531,.T.);
#352=EDGE_CURVE('',#420,#423,#532,.T.);
#353=EDGE_CURVE('',#425,#417,#533,.T.);
#354=EDGE_CURVE('',#418,#426,#534,.T.);
#355=VERTEX_POINT('',#1090);
#356=VERTEX_POINT('',#1091);
#357=VERTEX_POINT('',#1093);
#358=VERTEX_POINT('',#1095);
#359=VERTEX_POINT('',#1099);
#360=VERTEX_POINT('',#1100);
#361=VERTEX_POINT('',#1102);
#362=VERTEX_POINT('',#1104);
#363=VERTEX_POINT('',#1108);
#364=VERTEX_POINT('',#1109);
#365=VERTEX_POINT('',#1111);
#366=VERTEX_POINT('',#1113);
#367=VERTEX_POINT('',#1117);
#368=VERTEX_POINT('',#1118);
#369=VERTEX_POINT('',#1120);
#370=VERTEX_POINT('',#1122);
#371=VERTEX_POINT('',#1126);
#372=VERTEX_POINT('',#1127);
#373=VERTEX_POINT('',#1132);
#374=VERTEX_POINT('',#1134);
#375=VERTEX_POINT('',#1138);
#376=VERTEX_POINT('',#1140);
#377=VERTEX_POINT('',#1144);
#378=VERTEX_POINT('',#1145);
#379=VERTEX_POINT('',#1150);
#380=VERTEX_POINT('',#1152);
#381=VERTEX_POINT('',#1156);
#382=VERTEX_POINT('',#1157);
#383=VERTEX_POINT('',#1162);
#384=VERTEX_POINT('',#1163);
#385=VERTEX_POINT('',#1168);
#386=VERTEX_POINT('',#1170);
#387=VERTEX_POINT('',#1174);
#388=VERTEX_POINT('',#1176);
#389=VERTEX_POINT('',#1178);
#390=VERTEX_POINT('',#1180);
#391=VERTEX_POINT('',#1186);
#392=VERTEX_POINT('',#1188);
#393=VERTEX_POINT('',#1190);
#394=VERTEX_POINT('',#1192);
#395=VERTEX_POINT('',#1196);
#396=VERTEX_POINT('',#1197);
#397=VERTEX_POINT('',#1199);
#398=VERTEX_POINT('',#1201);
#399=VERTEX_POINT('',#1205);
#400=VERTEX_POINT('',#1207);
#401=VERTEX_POINT('',#1211);
#402=VERTEX_POINT('',#1213);
#403=VERTEX_POINT('',#1237);
#404=VERTEX_POINT('',#1238);
#405=VERTEX_POINT('',#1240);
#406=VERTEX_POINT('',#1242);
#407=VERTEX_POINT('',#1246);
#408=VERTEX_POINT('',#1247);
#409=VERTEX_POINT('',#1249);
#410=VERTEX_POINT('',#1251);
#411=VERTEX_POINT('',#1262);
#412=VERTEX_POINT('',#1263);
#413=VERTEX_POINT('',#1265);
#414=VERTEX_POINT('',#1267);
#415=VERTEX_POINT('',#1271);
#416=VERTEX_POINT('',#1273);
#417=VERTEX_POINT('',#1277);
#418=VERTEX_POINT('',#1278);
#419=VERTEX_POINT('',#1280);
#420=VERTEX_POINT('',#1282);
#421=VERTEX_POINT('',#1285);
#422=VERTEX_POINT('',#1287);
#423=VERTEX_POINT('',#1296);
#424=VERTEX_POINT('',#1297);
#425=VERTEX_POINT('',#1299);
#426=VERTEX_POINT('',#1301);
#427=LINE('',#1089,#535);
#428=LINE('',#1092,#536);
#429=LINE('',#1094,#537);
#430=LINE('',#1096,#538);
#431=LINE('',#1098,#539);
#432=LINE('',#1101,#540);
#433=LINE('',#1103,#541);
#434=LINE('',#1105,#542);
#435=LINE('',#1107,#543);
#436=LINE('',#1110,#544);
#437=LINE('',#1112,#545);
#438=LINE('',#1114,#546);
#439=LINE('',#1116,#547);
#440=LINE('',#1119,#548);
#441=LINE('',#1121,#549);
#442=LINE('',#1123,#550);
#443=LINE('',#1125,#551);
#444=LINE('',#1128,#552);
#445=LINE('',#1129,#553);
#446=LINE('',#1131,#554);
#447=LINE('',#1133,#555);
#448=LINE('',#1135,#556);
#449=LINE('',#1137,#557);
#450=LINE('',#1139,#558);
#451=LINE('',#1141,#559);
#452=LINE('',#1143,#560);
#453=LINE('',#1146,#561);
#454=LINE('',#1147,#562);
#455=LINE('',#1149,#563);
#456=LINE('',#1151,#564);
#457=LINE('',#1153,#565);
#458=LINE('',#1155,#566);
#459=LINE('',#1158,#567);
#460=LINE('',#1159,#568);
#461=LINE('',#1161,#569);
#462=LINE('',#1164,#570);
#463=LINE('',#1165,#571);
#464=LINE('',#1167,#572);
#465=LINE('',#1169,#573);
#466=LINE('',#1171,#574);
#467=LINE('',#1173,#575);
#468=LINE('',#1175,#576);
#469=LINE('',#1177,#577);
#470=LINE('',#1179,#578);
#471=LINE('',#1181,#579);
#472=LINE('',#1182,#580);
#473=LINE('',#1184,#581);
#474=LINE('',#1185,#582);
#475=LINE('',#1187,#583);
#476=LINE('',#1189,#584);
#477=LINE('',#1191,#585);
#478=LINE('',#1193,#586);
#479=LINE('',#1195,#587);
#480=LINE('',#1198,#588);
#481=LINE('',#1200,#589);
#482=LINE('',#1202,#590);
#483=LINE('',#1204,#591);
#484=LINE('',#1206,#592);
#485=LINE('',#1208,#593);
#486=LINE('',#1210,#594);
#487=LINE('',#1212,#595);
#488=LINE('',#1214,#596);
#489=LINE('',#1216,#597);
#490=LINE('',#1217,#598);
#491=LINE('',#1219,#599);
#492=LINE('',#1220,#600);
#493=LINE('',#1222,#601);
#494=LINE('',#1223,#602);
#495=LINE('',#1226,#603);
#496=LINE('',#1227,#604);
#497=LINE('',#1228,#605);
#498=LINE('',#1229,#606);
#499=LINE('',#1236,#607);
#500=LINE('',#1239,#608);
#501=LINE('',#1241,#609);
#502=LINE('',#1243,#610);
#503=LINE('',#1245,#611);
#504=LINE('',#1248,#612);
#505=LINE('',#1250,#613);
#506=LINE('',#1252,#614);
#507=LINE('',#1254,#615);
#508=LINE('',#1255,#616);
#509=LINE('',#1257,#617);
#510=LINE('',#1258,#618);
#511=LINE('',#1261,#619);
#512=LINE('',#1264,#620);
#513=LINE('',#1266,#621);
#514=LINE('',#1268,#622);
#515=LINE('',#1270,#623);
#516=LINE('',#1272,#624);
#517=LINE('',#1274,#625);
#518=LINE('',#1276,#626);
#519=LINE('',#1279,#627);
#520=LINE('',#1281,#628);
#521=LINE('',#1283,#629);
#522=LINE('',#1284,#630);
#523=LINE('',#1286,#631);
#524=LINE('',#1288,#632);
#525=LINE('',#1290,#633);
#526=LINE('',#1291,#634);
#527=LINE('',#1295,#635);
#528=LINE('',#1298,#636);
#529=LINE('',#1300,#637);
#530=LINE('',#1302,#638);
#531=LINE('',#1304,#639);
#532=LINE('',#1305,#640);
#533=LINE('',#1307,#641);
#534=LINE('',#1308,#642);
#535=VECTOR('',#893,39.3700787401575);
#536=VECTOR('',#894,39.3700787401575);
#537=VECTOR('',#895,39.3700787401575);
#538=VECTOR('',#896,39.3700787401575);
#539=VECTOR('',#899,39.3700787401575);
#540=VECTOR('',#900,39.3700787401575);
#541=VECTOR('',#901,39.3700787401575);
#542=VECTOR('',#902,39.3700787401575);
#543=VECTOR('',#905,39.3700787401575);
#544=VECTOR('',#906,39.3700787401575);
#545=VECTOR('',#907,39.3700787401575);
#546=VECTOR('',#908,39.3700787401575);
#547=VECTOR('',#911,39.3700787401575);
#548=VECTOR('',#912,39.3700787401575);
#549=VECTOR('',#913,39.3700787401575);
#550=VECTOR('',#914,39.3700787401575);
#551=VECTOR('',#917,39.3700787401575);
#552=VECTOR('',#918,39.3700787401575);
#553=VECTOR('',#919,39.3700787401575);
#554=VECTOR('',#922,39.3700787401575);
#555=VECTOR('',#923,39.3700787401575);
#556=VECTOR('',#924,39.3700787401575);
#557=VECTOR('',#927,39.3700787401575);
#558=VECTOR('',#928,39.3700787401575);
#559=VECTOR('',#929,39.3700787401575);
#560=VECTOR('',#932,39.3700787401575);
#561=VECTOR('',#933,39.3700787401575);
#562=VECTOR('',#934,39.3700787401575);
#563=VECTOR('',#937,39.3700787401575);
#564=VECTOR('',#938,39.3700787401575);
#565=VECTOR('',#939,39.3700787401575);
#566=VECTOR('',#942,39.3700787401575);
#567=VECTOR('',#943,39.3700787401575);
#568=VECTOR('',#944,39.3700787401575);
#569=VECTOR('',#947,39.3700787401575);
#570=VECTOR('',#948,39.3700787401575);
#571=VECTOR('',#949,39.3700787401575);
#572=VECTOR('',#952,39.3700787401575);
#573=VECTOR('',#953,39.3700787401575);
#574=VECTOR('',#954,39.3700787401575);
#575=VECTOR('',#957,39.3700787401575);
#576=VECTOR('',#958,39.3700787401575);
#577=VECTOR('',#959,39.3700787401575);
#578=VECTOR('',#960,39.3700787401575);
#579=VECTOR('',#961,39.3700787401575);
#580=VECTOR('',#962,39.3700787401575);
#581=VECTOR('',#965,39.3700787401575);
#582=VECTOR('',#966,39.3700787401575);
#583=VECTOR('',#967,39.3700787401575);
#584=VECTOR('',#968,39.3700787401575);
#585=VECTOR('',#969,39.3700787401575);
#586=VECTOR('',#970,39.3700787401575);
#587=VECTOR('',#973,39.3700787401575);
#588=VECTOR('',#974,39.3700787401575);
#589=VECTOR('',#975,39.3700787401575);
#590=VECTOR('',#976,39.3700787401575);
#591=VECTOR('',#979,39.3700787401575);
#592=VECTOR('',#980,39.3700787401575);
#593=VECTOR('',#981,39.3700787401575);
#594=VECTOR('',#984,39.3700787401575);
#595=VECTOR('',#985,39.3700787401575);
#596=VECTOR('',#986,39.3700787401575);
#597=VECTOR('',#989,39.3700787401575);
#598=VECTOR('',#990,39.3700787401575);
#599=VECTOR('',#993,39.3700787401575);
#600=VECTOR('',#994,39.3700787401575);
#601=VECTOR('',#997,39.3700787401575);
#602=VECTOR('',#998,39.3700787401575);
#603=VECTOR('',#1003,39.3700787401575);
#604=VECTOR('',#1004,39.3700787401575);
#605=VECTOR('',#1005,39.3700787401575);
#606=VECTOR('',#1006,39.3700787401575);
#607=VECTOR('',#1019,39.3700787401575);
#608=VECTOR('',#1020,39.3700787401575);
#609=VECTOR('',#1021,39.3700787401575);
#610=VECTOR('',#1022,39.3700787401575);
#611=VECTOR('',#1025,39.3700787401575);
#612=VECTOR('',#1026,39.3700787401575);
#613=VECTOR('',#1027,39.3700787401575);
#614=VECTOR('',#1028,39.3700787401575);
#615=VECTOR('',#1031,39.3700787401575);
#616=VECTOR('',#1032,39.3700787401575);
#617=VECTOR('',#1035,39.3700787401575);
#618=VECTOR('',#1036,39.3700787401575);
#619=VECTOR('',#1041,39.3700787401575);
#620=VECTOR('',#1042,39.3700787401575);
#621=VECTOR('',#1043,39.3700787401575);
#622=VECTOR('',#1044,39.3700787401575);
#623=VECTOR('',#1047,39.3700787401575);
#624=VECTOR('',#1048,39.3700787401575);
#625=VECTOR('',#1049,39.3700787401575);
#626=VECTOR('',#1052,39.3700787401575);
#627=VECTOR('',#1053,39.3700787401575);
#628=VECTOR('',#1054,39.3700787401575);
#629=VECTOR('',#1055,39.3700787401575);
#630=VECTOR('',#1056,39.3700787401575);
#631=VECTOR('',#1057,39.3700787401575);
#632=VECTOR('',#1058,39.3700787401575);
#633=VECTOR('',#1061,39.3700787401575);
#634=VECTOR('',#1062,39.3700787401575);
#635=VECTOR('',#1069,39.3700787401575);
#636=VECTOR('',#1070,39.3700787401575);
#637=VECTOR('',#1071,39.3700787401575);
#638=VECTOR('',#1072,39.3700787401575);
#639=VECTOR('',#1075,39.3700787401575);
#640=VECTOR('',#1076,39.3700787401575);
#641=VECTOR('',#1079,39.3700787401575);
#642=VECTOR('',#1080,39.3700787401575);
#643=EDGE_LOOP('',(#31,#32,#33,#34));
#644=EDGE_LOOP('',(#35,#36,#37,#38));
#645=EDGE_LOOP('',(#39,#40,#41,#42));
#646=EDGE_LOOP('',(#43,#44,#45,#46));
#647=EDGE_LOOP('',(#47,#48,#49,#50));
#648=EDGE_LOOP('',(#51,#52,#53,#54));
#649=EDGE_LOOP('',(#55,#56,#57,#58));
#650=EDGE_LOOP('',(#59,#60,#61,#62));
#651=EDGE_LOOP('',(#63,#64,#65,#66));
#652=EDGE_LOOP('',(#67,#68,#69,#70));
#653=EDGE_LOOP('',(#71,#72,#73,#74));
#654=EDGE_LOOP('',(#75,#76,#77,#78));
#655=EDGE_LOOP('',(#79,#80,#81,#82,#83,#84,#85,#86,#87,#88,#89,#90));
#656=EDGE_LOOP('',(#91,#92,#93,#94,#95,#96,#97,#98,#99,#100,#101,#102));
#657=EDGE_LOOP('',(#103,#104,#105,#106));
#658=EDGE_LOOP('',(#107,#108,#109,#110));
#659=EDGE_LOOP('',(#111,#112,#113,#114));
#660=EDGE_LOOP('',(#115,#116,#117,#118));
#661=EDGE_LOOP('',(#119,#120,#121,#122));
#662=EDGE_LOOP('',(#123,#124,#125,#126));
#663=EDGE_LOOP('',(#127,#128,#129,#130));
#664=EDGE_LOOP('',(#131,#132,#133,#134));
#665=EDGE_LOOP('',(#135,#136,#137,#138,#139,#140,#141,#142,#143,#144,#145,
#146,#147,#148,#149,#150,#151,#152,#153,#154));
#666=EDGE_LOOP('',(#155,#156,#157,#158));
#667=EDGE_LOOP('',(#159,#160,#161,#162));
#668=EDGE_LOOP('',(#163,#164,#165,#166));
#669=EDGE_LOOP('',(#167,#168,#169,#170));
#670=EDGE_LOOP('',(#171,#172,#173,#174));
#671=EDGE_LOOP('',(#175,#176,#177,#178));
#672=EDGE_LOOP('',(#179,#180,#181,#182));
#673=EDGE_LOOP('',(#183,#184,#185,#186));
#674=EDGE_LOOP('',(#187,#188,#189,#190));
#675=EDGE_LOOP('',(#191,#192,#193,#194));
#676=EDGE_LOOP('',(#195,#196,#197,#198));
#677=EDGE_LOOP('',(#199,#200,#201,#202));
#678=EDGE_LOOP('',(#203,#204,#205,#206));
#679=EDGE_LOOP('',(#207,#208,#209,#210));
#680=EDGE_LOOP('',(#211,#212,#213,#214));
#681=EDGE_LOOP('',(#215,#216,#217,#218));
#682=EDGE_LOOP('',(#219,#220,#221,#222));
#683=EDGE_LOOP('',(#223,#224,#225,#226));
#684=EDGE_LOOP('',(#227,#228,#229,#230));
#685=EDGE_LOOP('',(#231,#232,#233,#234));
#686=EDGE_LOOP('',(#235,#236,#237,#238));
#687=EDGE_LOOP('',(#239,#240,#241,#242));
#688=EDGE_LOOP('',(#243,#244,#245,#246));
#689=FACE_BOUND('',#643,.T.);
#690=FACE_BOUND('',#644,.T.);
#691=FACE_BOUND('',#645,.T.);
#692=FACE_BOUND('',#646,.T.);
#693=FACE_BOUND('',#647,.T.);
#694=FACE_BOUND('',#648,.T.);
#695=FACE_BOUND('',#649,.T.);
#696=FACE_BOUND('',#650,.T.);
#697=FACE_BOUND('',#651,.T.);
#698=FACE_BOUND('',#652,.T.);
#699=FACE_BOUND('',#653,.T.);
#700=FACE_BOUND('',#654,.T.);
#701=FACE_BOUND('',#655,.T.);
#702=FACE_BOUND('',#656,.T.);
#703=FACE_BOUND('',#657,.T.);
#704=FACE_BOUND('',#658,.T.);
#705=FACE_BOUND('',#659,.T.);
#706=FACE_BOUND('',#660,.T.);
#707=FACE_BOUND('',#661,.T.);
#708=FACE_BOUND('',#662,.T.);
#709=FACE_BOUND('',#663,.T.);
#710=FACE_BOUND('',#664,.T.);
#711=FACE_BOUND('',#665,.T.);
#712=FACE_BOUND('',#666,.T.);
#713=FACE_BOUND('',#667,.T.);
#714=FACE_BOUND('',#668,.T.);
#715=FACE_BOUND('',#669,.T.);
#716=FACE_BOUND('',#670,.T.);
#717=FACE_BOUND('',#671,.T.);
#718=FACE_BOUND('',#672,.T.);
#719=FACE_BOUND('',#673,.T.);
#720=FACE_BOUND('',#674,.T.);
#721=FACE_BOUND('',#675,.T.);
#722=FACE_BOUND('',#676,.T.);
#723=FACE_BOUND('',#677,.T.);
#724=FACE_BOUND('',#678,.T.);
#725=FACE_BOUND('',#679,.T.);
#726=FACE_BOUND('',#680,.T.);
#727=FACE_BOUND('',#681,.T.);
#728=FACE_BOUND('',#682,.T.);
#729=FACE_BOUND('',#683,.T.);
#730=FACE_BOUND('',#684,.T.);
#731=FACE_BOUND('',#685,.T.);
#732=FACE_BOUND('',#686,.T.);
#733=FACE_BOUND('',#687,.T.);
#734=FACE_BOUND('',#688,.T.);
#735=PLANE('',#845);
#736=PLANE('',#846);
#737=PLANE('',#847);
#738=PLANE('',#848);
#739=PLANE('',#849);
#740=PLANE('',#850);
#741=PLANE('',#851);
#742=PLANE('',#852);
#743=PLANE('',#853);
#744=PLANE('',#854);
#745=PLANE('',#855);
#746=PLANE('',#856);
#747=PLANE('',#857);
#748=PLANE('',#858);
#749=PLANE('',#859);
#750=PLANE('',#860);
#751=PLANE('',#861);
#752=PLANE('',#862);
#753=PLANE('',#863);
#754=PLANE('',#864);
#755=PLANE('',#865);
#756=PLANE('',#866);
#757=PLANE('',#867);
#758=PLANE('',#868);
#759=PLANE('',#869);
#760=PLANE('',#870);
#761=PLANE('',#872);
#762=PLANE('',#873);
#763=PLANE('',#874);
#764=PLANE('',#875);
#765=PLANE('',#876);
#766=PLANE('',#877);
#767=PLANE('',#878);
#768=PLANE('',#879);
#769=PLANE('',#880);
#770=PLANE('',#881);
#771=PLANE('',#882);
#772=PLANE('',#883);
#773=PLANE('',#884);
#774=PLANE('',#885);
#775=PLANE('',#886);
#776=PLANE('',#887);
#777=ADVANCED_FACE('',(#689),#735,.F.);
#778=ADVANCED_FACE('',(#690),#736,.F.);
#779=ADVANCED_FACE('',(#691),#737,.F.);
#780=ADVANCED_FACE('',(#692),#738,.F.);
#781=ADVANCED_FACE('',(#693),#739,.T.);
#782=ADVANCED_FACE('',(#694),#740,.T.);
#783=ADVANCED_FACE('',(#695),#741,.T.);
#784=ADVANCED_FACE('',(#696),#742,.T.);
#785=ADVANCED_FACE('',(#697),#743,.T.);
#786=ADVANCED_FACE('',(#698),#744,.T.);
#787=ADVANCED_FACE('',(#699),#745,.T.);
#788=ADVANCED_FACE('',(#700),#746,.T.);
#789=ADVANCED_FACE('',(#701),#747,.F.);
#790=ADVANCED_FACE('',(#702),#748,.F.);
#791=ADVANCED_FACE('',(#703),#749,.T.);
#792=ADVANCED_FACE('',(#704),#750,.T.);
#793=ADVANCED_FACE('',(#705),#751,.T.);
#794=ADVANCED_FACE('',(#706),#752,.T.);
#795=ADVANCED_FACE('',(#707),#753,.F.);
#796=ADVANCED_FACE('',(#708),#754,.F.);
#797=ADVANCED_FACE('',(#709,#710),#755,.T.);
#798=ADVANCED_FACE('',(#711,#712),#756,.T.);
#799=ADVANCED_FACE('',(#713),#757,.T.);
#800=ADVANCED_FACE('',(#714),#758,.T.);
#801=ADVANCED_FACE('',(#715),#759,.T.);
#802=ADVANCED_FACE('',(#716),#760,.T.);
#803=ADVANCED_FACE('',(#717),#761,.F.);
#804=ADVANCED_FACE('',(#718),#762,.F.);
#805=ADVANCED_FACE('',(#719),#763,.T.);
#806=ADVANCED_FACE('',(#720),#764,.F.);
#807=ADVANCED_FACE('',(#721),#765,.F.);
#808=ADVANCED_FACE('',(#722,#723),#766,.F.);
#809=ADVANCED_FACE('',(#724),#767,.F.);
#810=ADVANCED_FACE('',(#725,#726),#768,.F.);
#811=ADVANCED_FACE('',(#727),#769,.F.);
#812=ADVANCED_FACE('',(#728),#770,.T.);
#813=ADVANCED_FACE('',(#729),#771,.F.);
#814=ADVANCED_FACE('',(#730),#772,.F.);
#815=ADVANCED_FACE('',(#731),#773,.F.);
#816=ADVANCED_FACE('',(#732),#774,.T.);
#817=ADVANCED_FACE('',(#733),#775,.F.);
#818=ADVANCED_FACE('',(#734),#776,.F.);
#819=CLOSED_SHELL('',(#777,#778,#779,#780,#781,#782,#783,#784,#785,#786,
#787,#788,#789,#790,#791,#792,#793,#794,#795,#796,#797,#798,#799,#800,#801,
#802));
#820=CLOSED_SHELL('',(#803,#804,#805,#806,#807,#808,#809,#810,#811,#812,
#813,#814,#815,#816,#817,#818));
#821=STYLED_ITEM('',(#823),#836);
#822=STYLED_ITEM('',(#824),#837);
#823=PRESENTATION_STYLE_ASSIGNMENT((#825));
#824=PRESENTATION_STYLE_ASSIGNMENT((#826));
#825=SURFACE_STYLE_USAGE(.BOTH.,#827);
#826=SURFACE_STYLE_USAGE(.BOTH.,#828);
#827=SURFACE_SIDE_STYLE('',(#829));
#828=SURFACE_SIDE_STYLE('',(#830));
#829=SURFACE_STYLE_FILL_AREA(#831);
#830=SURFACE_STYLE_FILL_AREA(#832);
#831=FILL_AREA_STYLE('',(#833));
#832=FILL_AREA_STYLE('',(#834));
#833=FILL_AREA_STYLE_COLOUR('',#835);
#834=FILL_AREA_STYLE_COLOUR('',#18);
#835=COLOUR_RGB('',0.5,0.5,0.5);
#836=MANIFOLD_SOLID_BREP('MTSW-101-09-G-S-104_body',#819);
#837=MANIFOLD_SOLID_BREP('MTSW-101-09-S-104',#820);
#838=SHAPE_DEFINITION_REPRESENTATION(#1325,#841);
#839=SHAPE_DEFINITION_REPRESENTATION(#1326,#842);
#840=SHAPE_DEFINITION_REPRESENTATION(#1328,#843);
#841=SHAPE_REPRESENTATION('MTSW-101-09-G-S-104',(#844,#871,#888),#1313);
#842=SHAPE_REPRESENTATION('MTSW-101-09-G-S-104_body',(#844),#1314);
#843=SHAPE_REPRESENTATION('MTSW-101-09-S-104',(#844),#1315);
#844=AXIS2_PLACEMENT_3D('',#1087,#889,#890);
#845=AXIS2_PLACEMENT_3D('',#1088,#891,#892);
#846=AXIS2_PLACEMENT_3D('',#1097,#897,#898);
#847=AXIS2_PLACEMENT_3D('',#1106,#903,#904);
#848=AXIS2_PLACEMENT_3D('',#1115,#909,#910);
#849=AXIS2_PLACEMENT_3D('',#1124,#915,#916);
#850=AXIS2_PLACEMENT_3D('',#1130,#920,#921);
#851=AXIS2_PLACEMENT_3D('',#1136,#925,#926);
#852=AXIS2_PLACEMENT_3D('',#1142,#930,#931);
#853=AXIS2_PLACEMENT_3D('',#1148,#935,#936);
#854=AXIS2_PLACEMENT_3D('',#1154,#940,#941);
#855=AXIS2_PLACEMENT_3D('',#1160,#945,#946);
#856=AXIS2_PLACEMENT_3D('',#1166,#950,#951);
#857=AXIS2_PLACEMENT_3D('',#1172,#955,#956);
#858=AXIS2_PLACEMENT_3D('',#1183,#963,#964);
#859=AXIS2_PLACEMENT_3D('',#1194,#971,#972);
#860=AXIS2_PLACEMENT_3D('',#1203,#977,#978);
#861=AXIS2_PLACEMENT_3D('',#1209,#982,#983);
#862=AXIS2_PLACEMENT_3D('',#1215,#987,#988);
#863=AXIS2_PLACEMENT_3D('',#1218,#991,#992);
#864=AXIS2_PLACEMENT_3D('',#1221,#995,#996);
#865=AXIS2_PLACEMENT_3D('',#1224,#999,#1000);
#866=AXIS2_PLACEMENT_3D('',#1225,#1001,#1002);
#867=AXIS2_PLACEMENT_3D('',#1230,#1007,#1008);
#868=AXIS2_PLACEMENT_3D('',#1231,#1009,#1010);
#869=AXIS2_PLACEMENT_3D('',#1232,#1011,#1012);
#870=AXIS2_PLACEMENT_3D('',#1233,#1013,#1014);
#871=AXIS2_PLACEMENT_3D('',#1234,#1015,#1016);
#872=AXIS2_PLACEMENT_3D('',#1235,#1017,#1018);
#873=AXIS2_PLACEMENT_3D('',#1244,#1023,#1024);
#874=AXIS2_PLACEMENT_3D('',#1253,#1029,#1030);
#875=AXIS2_PLACEMENT_3D('',#1256,#1033,#1034);
#876=AXIS2_PLACEMENT_3D('',#1259,#1037,#1038);
#877=AXIS2_PLACEMENT_3D('',#1260,#1039,#1040);
#878=AXIS2_PLACEMENT_3D('',#1269,#1045,#1046);
#879=AXIS2_PLACEMENT_3D('',#1275,#1050,#1051);
#880=AXIS2_PLACEMENT_3D('',#1289,#1059,#1060);
#881=AXIS2_PLACEMENT_3D('',#1292,#1063,#1064);
#882=AXIS2_PLACEMENT_3D('',#1293,#1065,#1066);
#883=AXIS2_PLACEMENT_3D('',#1294,#1067,#1068);
#884=AXIS2_PLACEMENT_3D('',#1303,#1073,#1074);
#885=AXIS2_PLACEMENT_3D('',#1306,#1077,#1078);
#886=AXIS2_PLACEMENT_3D('',#1309,#1081,#1082);
#887=AXIS2_PLACEMENT_3D('',#1310,#1083,#1084);
#888=AXIS2_PLACEMENT_3D('',#1311,#1085,#1086);
#889=DIRECTION('',(0.,0.,1.));
#890=DIRECTION('',(1.,0.,0.));
#891=DIRECTION('',(0.,1.,0.));
#892=DIRECTION('',(0.,0.,1.));
#893=DIRECTION('',(-1.,0.,0.));
#894=DIRECTION('',(0.,0.,-1.));
#895=DIRECTION('',(1.,0.,0.));
#896=DIRECTION('',(0.,0.,1.));
#897=DIRECTION('',(0.,1.,0.));
#898=DIRECTION('',(0.,0.,1.));
#899=DIRECTION('',(1.,0.,0.));
#900=DIRECTION('',(0.,0.,1.));
#901=DIRECTION('',(-1.,0.,0.));
#902=DIRECTION('',(0.,0.,-1.));
#903=DIRECTION('',(0.,1.,0.));
#904=DIRECTION('',(0.,0.,1.));
#905=DIRECTION('',(-1.,0.,0.));
#906=DIRECTION('',(0.,0.,-1.));
#907=DIRECTION('',(1.,0.,0.));
#908=DIRECTION('',(0.,0.,1.));
#909=DIRECTION('',(0.,1.,0.));
#910=DIRECTION('',(0.,0.,1.));
#911=DIRECTION('',(1.,0.,0.));
#912=DIRECTION('',(0.,0.,1.));
#913=DIRECTION('',(-1.,0.,0.));
#914=DIRECTION('',(0.,0.,-1.));
#915=DIRECTION('',(-1.,0.,0.));
#916=DIRECTION('',(0.,0.,1.));
#917=DIRECTION('',(0.,0.,-1.));
#918=DIRECTION('',(0.,-1.,0.));
#919=DIRECTION('',(0.,1.,0.));
#920=DIRECTION('',(-1.,0.,0.));
#921=DIRECTION('',(0.,0.,1.));
#922=DIRECTION('',(0.,1.,0.));
#923=DIRECTION('',(0.,0.,-1.));
#924=DIRECTION('',(0.,-1.,0.));
#925=DIRECTION('',(1.,0.,0.));
#926=DIRECTION('',(0.,0.,-1.));
#927=DIRECTION('',(0.,1.,0.));
#928=DIRECTION('',(0.,0.,-1.));
#929=DIRECTION('',(0.,-1.,0.));
#930=DIRECTION('',(1.,0.,0.));
#931=DIRECTION('',(0.,0.,-1.));
#932=DIRECTION('',(0.,0.,-1.));
#933=DIRECTION('',(0.,-1.,0.));
#934=DIRECTION('',(0.,1.,0.));
#935=DIRECTION('',(1.,0.,0.));
#936=DIRECTION('',(0.,0.,-1.));
#937=DIRECTION('',(0.,1.,0.));
#938=DIRECTION('',(0.,0.,-1.));
#939=DIRECTION('',(0.,-1.,0.));
#940=DIRECTION('',(1.,0.,0.));
#941=DIRECTION('',(0.,0.,-1.));
#942=DIRECTION('',(0.,0.,-1.));
#943=DIRECTION('',(0.,-1.,0.));
#944=DIRECTION('',(0.,1.,0.));
#945=DIRECTION('',(-1.,0.,0.));
#946=DIRECTION('',(0.,0.,1.));
#947=DIRECTION('',(0.,0.,-1.));
#948=DIRECTION('',(0.,-1.,0.));
#949=DIRECTION('',(0.,1.,0.));
#950=DIRECTION('',(-1.,0.,0.));
#951=DIRECTION('',(0.,0.,1.));
#952=DIRECTION('',(0.,1.,0.));
#953=DIRECTION('',(0.,0.,-1.));
#954=DIRECTION('',(0.,-1.,0.));
#955=DIRECTION('',(0.,0.,1.));
#956=DIRECTION('',(1.,0.,0.));
#957=DIRECTION('',(1.,0.,0.));
#958=DIRECTION('',(0.,-1.,0.));
#959=DIRECTION('',(-1.,0.,0.));
#960=DIRECTION('',(0.,-1.,0.));
#961=DIRECTION('',(1.,0.,0.));
#962=DIRECTION('',(1.,0.,0.));
#963=DIRECTION('',(0.,0.,-1.));
#964=DIRECTION('',(-1.,0.,0.));
#965=DIRECTION('',(-1.,0.,0.));
#966=DIRECTION('',(-1.,0.,0.));
#967=DIRECTION('',(0.,-1.,0.));
#968=DIRECTION('',(1.,0.,0.));
#969=DIRECTION('',(0.,-1.,0.));
#970=DIRECTION('',(-1.,0.,0.));
#971=DIRECTION('',(0.,0.,1.));
#972=DIRECTION('',(1.,0.,0.));
#973=DIRECTION('',(0.,-1.,0.));
#974=DIRECTION('',(1.,0.,0.));
#975=DIRECTION('',(0.,-1.,0.));
#976=DIRECTION('',(-1.,0.,0.));
#977=DIRECTION('',(-1.,0.,0.));
#978=DIRECTION('',(0.,0.,1.));
#979=DIRECTION('',(0.,0.,1.));
#980=DIRECTION('',(0.,-1.,0.));
#981=DIRECTION('',(0.,0.,-1.));
#982=DIRECTION('',(0.,0.,-1.));
#983=DIRECTION('',(-1.,0.,0.));
#984=DIRECTION('',(-1.,0.,0.));
#985=DIRECTION('',(0.,-1.,0.));
#986=DIRECTION('',(1.,0.,0.));
#987=DIRECTION('',(1.,0.,0.));
#988=DIRECTION('',(0.,0.,-1.));
#989=DIRECTION('',(0.,0.,-1.));
#990=DIRECTION('',(0.,0.,1.));
#991=DIRECTION('',(-1.,0.,0.));
#992=DIRECTION('',(0.,0.,1.));
#993=DIRECTION('',(0.,0.,1.));
#994=DIRECTION('',(0.,0.,-1.));
#995=DIRECTION('',(1.,0.,0.));
#996=DIRECTION('',(0.,0.,-1.));
#997=DIRECTION('',(0.,0.,-1.));
#998=DIRECTION('',(0.,0.,1.));
#999=DIRECTION('',(0.,1.,0.));
#1000=DIRECTION('',(0.,0.,1.));
#1001=DIRECTION('',(0.,-1.,0.));
#1002=DIRECTION('',(0.,0.,-1.));
#1003=DIRECTION('',(-1.,0.,0.));
#1004=DIRECTION('',(-1.,0.,0.));
#1005=DIRECTION('',(-1.,0.,0.));
#1006=DIRECTION('',(-1.,0.,0.));
#1007=DIRECTION('',(0.,0.,1.));
#1008=DIRECTION('',(1.,0.,0.));
#1009=DIRECTION('',(0.,0.,-1.));
#1010=DIRECTION('',(-1.,0.,0.));
#1011=DIRECTION('',(0.,0.,-1.));
#1012=DIRECTION('',(-1.,0.,0.));
#1013=DIRECTION('',(0.,0.,1.));
#1014=DIRECTION('',(1.,0.,0.));
#1015=DIRECTION('',(0.,0.,1.));
#1016=DIRECTION('',(1.,0.,0.));
#1017=DIRECTION('',(1.,0.,0.));
#1018=DIRECTION('',(0.,0.,-1.));
#1019=DIRECTION('',(0.,0.,-1.));
#1020=DIRECTION('',(0.,-1.,0.));
#1021=DIRECTION('',(0.,0.,-1.));
#1022=DIRECTION('',(0.,-1.,0.));
#1023=DIRECTION('',(-1.,0.,0.));
#1024=DIRECTION('',(0.,0.,1.));
#1025=DIRECTION('',(0.,0.,1.));
#1026=DIRECTION('',(0.,1.,0.));
#1027=DIRECTION('',(0.,0.,-1.));
#1028=DIRECTION('',(0.,1.,0.));
#1029=DIRECTION('',(0.,0.,1.));
#1030=DIRECTION('',(1.,0.,0.));
#1031=DIRECTION('',(1.,0.,0.));
#1032=DIRECTION('',(-1.,0.,0.));
#1033=DIRECTION('',(0.,0.,1.));
#1034=DIRECTION('',(1.,0.,0.));
#1035=DIRECTION('',(1.,0.,0.));
#1036=DIRECTION('',(-1.,0.,0.));
#1037=DIRECTION('',(0.,-1.,0.));
#1038=DIRECTION('',(0.,0.,-1.));
#1039=DIRECTION('',(0.,-1.,0.));
#1040=DIRECTION('',(0.,0.,-1.));
#1041=DIRECTION('',(0.,0.,1.));
#1042=DIRECTION('',(-1.,0.,0.));
#1043=DIRECTION('',(0.,0.,1.));
#1044=DIRECTION('',(-1.,0.,0.));
#1045=DIRECTION('',(0.,0.,-1.));
#1046=DIRECTION('',(-1.,0.,0.));
#1047=DIRECTION('',(0.,-1.,0.));
#1048=DIRECTION('',(-1.,0.,0.));
#1049=DIRECTION('',(0.,-1.,0.));
#1050=DIRECTION('',(0.,1.,0.));
#1051=DIRECTION('',(0.,0.,1.));
#1052=DIRECTION('',(-1.,0.,0.));
#1053=DIRECTION('',(0.,0.,-1.));
#1054=DIRECTION('',(-1.,0.,0.));
#1055=DIRECTION('',(0.,0.,1.));
#1056=DIRECTION('',(0.,0.,-1.));
#1057=DIRECTION('',(-1.,0.,0.));
#1058=DIRECTION('',(0.,0.,-1.));
#1059=DIRECTION('',(0.,0.,1.));
#1060=DIRECTION('',(1.,0.,0.));
#1061=DIRECTION('',(0.,1.,0.));
#1062=DIRECTION('',(0.,1.,0.));
#1063=DIRECTION('',(1.,0.,0.));
#1064=DIRECTION('',(0.,0.,-1.));
#1065=DIRECTION('',(1.,0.,0.));
#1066=DIRECTION('',(0.,0.,-1.));
#1067=DIRECTION('',(0.,1.,0.));
#1068=DIRECTION('',(0.,0.,1.));
#1069=DIRECTION('',(1.,0.,0.));
#1070=DIRECTION('',(0.,0.,-1.));
#1071=DIRECTION('',(1.,0.,0.));
#1072=DIRECTION('',(0.,0.,-1.));
#1073=DIRECTION('',(0.,0.,1.));
#1074=DIRECTION('',(1.,0.,0.));
#1075=DIRECTION('',(0.,1.,0.));
#1076=DIRECTION('',(0.,-1.,0.));
#1077=DIRECTION('',(0.,0.,1.));
#1078=DIRECTION('',(1.,0.,0.));
#1079=DIRECTION('',(0.,1.,0.));
#1080=DIRECTION('',(0.,-1.,0.));
#1081=DIRECTION('',(-1.,0.,0.));
#1082=DIRECTION('',(0.,0.,1.));
#1083=DIRECTION('',(1.,0.,0.));
#1084=DIRECTION('',(0.,0.,-1.));
#1085=DIRECTION('',(0.,0.,1.));
#1086=DIRECTION('',(1.,0.,0.));
#1087=CARTESIAN_POINT('',(0.,0.,0.));
#1088=CARTESIAN_POINT('',(0.,0.,0.));
#1089=CARTESIAN_POINT('',(0.,0.,0.033));
#1090=CARTESIAN_POINT('',(-0.0226,0.,0.033));
#1091=CARTESIAN_POINT('',(-0.0396,0.,0.033));
#1092=CARTESIAN_POINT('',(-0.0226,0.,0.));
#1093=CARTESIAN_POINT('',(-0.0226,0.,0.05));
#1094=CARTESIAN_POINT('',(-0.05,0.,0.05));
#1095=CARTESIAN_POINT('',(-0.0396,0.,0.05));
#1096=CARTESIAN_POINT('',(-0.0396,0.,0.));
#1097=CARTESIAN_POINT('',(0.,0.,0.));
#1098=CARTESIAN_POINT('',(0.,0.,-0.033));
#1099=CARTESIAN_POINT('',(-0.0396,0.,-0.033));
#1100=CARTESIAN_POINT('',(-0.0226,0.,-0.033));
#1101=CARTESIAN_POINT('',(-0.0396,0.,0.));
#1102=CARTESIAN_POINT('',(-0.0396,0.,-0.05));
#1103=CARTESIAN_POINT('',(0.05,0.,-0.05));
#1104=CARTESIAN_POINT('',(-0.0226,0.,-0.05));
#1105=CARTESIAN_POINT('',(-0.0226,0.,0.));
#1106=CARTESIAN_POINT('',(0.,0.,0.));
#1107=CARTESIAN_POINT('',(0.,0.,0.033));
#1108=CARTESIAN_POINT('',(0.0396,0.,0.033));
#1109=CARTESIAN_POINT('',(0.0226,0.,0.033));
#1110=CARTESIAN_POINT('',(0.0396,0.,0.));
#1111=CARTESIAN_POINT('',(0.0396,0.,0.05));
#1112=CARTESIAN_POINT('',(-0.05,0.,0.05));
#1113=CARTESIAN_POINT('',(0.0226,0.,0.05));
#1114=CARTESIAN_POINT('',(0.0226,0.,0.));
#1115=CARTESIAN_POINT('',(0.,0.,0.));
#1116=CARTESIAN_POINT('',(0.,0.,-0.033));
#1117=CARTESIAN_POINT('',(0.0226,0.,-0.033));
#1118=CARTESIAN_POINT('',(0.0396,0.,-0.033));
#1119=CARTESIAN_POINT('',(0.0226,0.,0.));
#1120=CARTESIAN_POINT('',(0.0226,0.,-0.05));
#1121=CARTESIAN_POINT('',(0.05,0.,-0.05));
#1122=CARTESIAN_POINT('',(0.0396,0.,-0.05));
#1123=CARTESIAN_POINT('',(0.0396,0.,0.));
#1124=CARTESIAN_POINT('',(-0.0396,-0.01,0.1));
#1125=CARTESIAN_POINT('',(-0.0396,0.02,0.1));
#1126=CARTESIAN_POINT('',(-0.0396,0.02,0.05));
#1127=CARTESIAN_POINT('',(-0.0396,0.02,0.033));
#1128=CARTESIAN_POINT('',(-0.0396,-0.01,0.033));
#1129=CARTESIAN_POINT('',(-0.0396,0.1,0.05));
#1130=CARTESIAN_POINT('',(-0.0396,-0.01,0.1));
#1131=CARTESIAN_POINT('',(-0.0396,-0.01,-0.033));
#1132=CARTESIAN_POINT('',(-0.0396,0.02,-0.033));
#1133=CARTESIAN_POINT('',(-0.0396,0.02,0.1));
#1134=CARTESIAN_POINT('',(-0.0396,0.02,-0.05));
#1135=CARTESIAN_POINT('',(-0.0396,0.1,-0.05));
#1136=CARTESIAN_POINT('',(0.0396,0.02,0.1));
#1137=CARTESIAN_POINT('',(0.0396,0.02,0.033));
#1138=CARTESIAN_POINT('',(0.0396,0.02,0.033));
#1139=CARTESIAN_POINT('',(0.0396,0.02,0.1));
#1140=CARTESIAN_POINT('',(0.0396,0.02,0.05));
#1141=CARTESIAN_POINT('',(0.0396,0.1,0.05));
#1142=CARTESIAN_POINT('',(0.0396,0.02,0.1));
#1143=CARTESIAN_POINT('',(0.0396,0.02,0.1));
#1144=CARTESIAN_POINT('',(0.0396,0.02,-0.033));
#1145=CARTESIAN_POINT('',(0.0396,0.02,-0.05));
#1146=CARTESIAN_POINT('',(0.0396,0.02,-0.033));
#1147=CARTESIAN_POINT('',(0.0396,0.1,-0.05));
#1148=CARTESIAN_POINT('',(-0.0226,0.02,0.1));
#1149=CARTESIAN_POINT('',(-0.0226,0.02,0.033));
#1150=CARTESIAN_POINT('',(-0.0226,0.02,0.033));
#1151=CARTESIAN_POINT('',(-0.0226,0.02,0.1));
#1152=CARTESIAN_POINT('',(-0.0226,0.02,0.05));
#1153=CARTESIAN_POINT('',(-0.0226,0.1,0.05));
#1154=CARTESIAN_POINT('',(-0.0226,0.02,0.1));
#1155=CARTESIAN_POINT('',(-0.0226,0.02,0.1));
#1156=CARTESIAN_POINT('',(-0.0226,0.02,-0.033));
#1157=CARTESIAN_POINT('',(-0.0226,0.02,-0.05));
#1158=CARTESIAN_POINT('',(-0.0226,0.02,-0.033));
#1159=CARTESIAN_POINT('',(-0.0226,0.1,-0.05));
#1160=CARTESIAN_POINT('',(0.0226,-0.01,0.1));
#1161=CARTESIAN_POINT('',(0.0226,0.02,0.1));
#1162=CARTESIAN_POINT('',(0.0226,0.02,0.05));
#1163=CARTESIAN_POINT('',(0.0226,0.02,0.033));
#1164=CARTESIAN_POINT('',(0.0226,-0.01,0.033));
#1165=CARTESIAN_POINT('',(0.0226,0.1,0.05));
#1166=CARTESIAN_POINT('',(0.0226,-0.01,0.1));
#1167=CARTESIAN_POINT('',(0.0226,-0.01,-0.033));
#1168=CARTESIAN_POINT('',(0.0226,0.02,-0.033));
#1169=CARTESIAN_POINT('',(0.0226,0.02,0.1));
#1170=CARTESIAN_POINT('',(0.0226,0.02,-0.05));
#1171=CARTESIAN_POINT('',(0.0226,0.1,-0.05));
#1172=CARTESIAN_POINT('',(0.05,0.1,-0.05));
#1173=CARTESIAN_POINT('',(0.05,0.02,-0.05));
#1174=CARTESIAN_POINT('',(-0.05,0.02,-0.05));
#1175=CARTESIAN_POINT('',(-0.05,0.1,-0.05));
#1176=CARTESIAN_POINT('',(-0.05,0.1,-0.05));
#1177=CARTESIAN_POINT('',(0.05,0.1,-0.05));
#1178=CARTESIAN_POINT('',(0.05,0.1,-0.05));
#1179=CARTESIAN_POINT('',(0.05,0.1,-0.05));
#1180=CARTESIAN_POINT('',(0.05,0.02,-0.05));
#1181=CARTESIAN_POINT('',(0.05,0.02,-0.05));
#1182=CARTESIAN_POINT('',(0.05,0.02,-0.05));
#1183=CARTESIAN_POINT('',(-0.05,0.1,0.05));
#1184=CARTESIAN_POINT('',(-0.05,0.02,0.05));
#1185=CARTESIAN_POINT('',(-0.05,0.02,0.05));
#1186=CARTESIAN_POINT('',(0.05,0.02,0.05));
#1187=CARTESIAN_POINT('',(0.05,0.1,0.05));
#1188=CARTESIAN_POINT('',(0.05,0.1,0.05));
#1189=CARTESIAN_POINT('',(-0.05,0.1,0.05));
#1190=CARTESIAN_POINT('',(-0.05,0.1,0.05));
#1191=CARTESIAN_POINT('',(-0.05,0.1,0.05));
#1192=CARTESIAN_POINT('',(-0.05,0.02,0.05));
#1193=CARTESIAN_POINT('',(-0.05,0.02,0.05));
#1194=CARTESIAN_POINT('',(0.0125,0.1,-0.0125));
#1195=CARTESIAN_POINT('',(-0.0125,0.1,-0.0125));
#1196=CARTESIAN_POINT('',(-0.0125,0.1,-0.0125));
#1197=CARTESIAN_POINT('',(-0.0125,0.02,-0.0125));
#1198=CARTESIAN_POINT('',(0.0125,0.02,-0.0125));
#1199=CARTESIAN_POINT('',(0.0125,0.02,-0.0125));
#1200=CARTESIAN_POINT('',(0.0125,0.1,-0.0125));
#1201=CARTESIAN_POINT('',(0.0125,0.1,-0.0125));
#1202=CARTESIAN_POINT('',(0.0125,0.1,-0.0125));
#1203=CARTESIAN_POINT('',(0.0125,0.1,0.0125));
#1204=CARTESIAN_POINT('',(0.0125,0.02,0.0125));
#1205=CARTESIAN_POINT('',(0.0125,0.02,0.0125));
#1206=CARTESIAN_POINT('',(0.0125,0.1,0.0125));
#1207=CARTESIAN_POINT('',(0.0125,0.1,0.0125));
#1208=CARTESIAN_POINT('',(0.0125,0.1,0.0125));
#1209=CARTESIAN_POINT('',(-0.0125,0.1,0.0125));
#1210=CARTESIAN_POINT('',(-0.0125,0.02,0.0125));
#1211=CARTESIAN_POINT('',(-0.0125,0.02,0.0125));
#1212=CARTESIAN_POINT('',(-0.0125,0.1,0.0125));
#1213=CARTESIAN_POINT('',(-0.0125,0.1,0.0125));
#1214=CARTESIAN_POINT('',(-0.0125,0.1,0.0125));
#1215=CARTESIAN_POINT('',(-0.0125,0.1,-0.0125));
#1216=CARTESIAN_POINT('',(-0.0125,0.02,-0.0125));
#1217=CARTESIAN_POINT('',(-0.0125,0.1,-0.0125));
#1218=CARTESIAN_POINT('',(0.05,0.1,0.05));
#1219=CARTESIAN_POINT('',(0.05,0.02,0.05));
#1220=CARTESIAN_POINT('',(0.05,0.1,0.05));
#1221=CARTESIAN_POINT('',(-0.05,0.1,-0.05));
#1222=CARTESIAN_POINT('',(-0.05,0.02,-0.05));
#1223=CARTESIAN_POINT('',(-0.05,0.1,-0.05));
#1224=CARTESIAN_POINT('',(0.,0.1,0.));
#1225=CARTESIAN_POINT('',(-0.0396,0.02,0.1));
#1226=CARTESIAN_POINT('',(0.1,0.02,0.033));
#1227=CARTESIAN_POINT('',(0.1,0.02,-0.033));
#1228=CARTESIAN_POINT('',(0.1,0.02,-0.033));
#1229=CARTESIAN_POINT('',(0.1,0.02,0.033));
#1230=CARTESIAN_POINT('',(0.1,-0.01,-0.033));
#1231=CARTESIAN_POINT('',(0.1,0.02,0.033));
#1232=CARTESIAN_POINT('',(0.1,0.02,0.033));
#1233=CARTESIAN_POINT('',(0.1,-0.01,-0.033));
#1234=CARTESIAN_POINT('',(0.,0.,0.));
#1235=CARTESIAN_POINT('',(-0.0125,0.73,0.0125));
#1236=CARTESIAN_POINT('',(-0.0125,0.581,0.0125));
#1237=CARTESIAN_POINT('',(-0.0125,0.581,0.0125));
#1238=CARTESIAN_POINT('',(-0.0125,0.581,-0.0125));
#1239=CARTESIAN_POINT('',(-0.0125,0.73,0.0125));
#1240=CARTESIAN_POINT('',(-0.0125,0.73,0.0125));
#1241=CARTESIAN_POINT('',(-0.0125,0.73,0.0125));
#1242=CARTESIAN_POINT('',(-0.0125,0.73,-0.0125));
#1243=CARTESIAN_POINT('',(-0.0125,0.73,-0.0125));
#1244=CARTESIAN_POINT('',(0.0125,0.,0.0125));
#1245=CARTESIAN_POINT('',(0.0125,0.581,0.0125));
#1246=CARTESIAN_POINT('',(0.0125,0.581,-0.0125));
#1247=CARTESIAN_POINT('',(0.0125,0.581,0.0125));
#1248=CARTESIAN_POINT('',(0.0125,0.,-0.0125));
#1249=CARTESIAN_POINT('',(0.0125,0.73,-0.0125));
#1250=CARTESIAN_POINT('',(0.0125,0.73,0.0125));
#1251=CARTESIAN_POINT('',(0.0125,0.73,0.0125));
#1252=CARTESIAN_POINT('',(0.0125,0.,0.0125));
#1253=CARTESIAN_POINT('',(0.,0.,0.0125));
#1254=CARTESIAN_POINT('',(0.,0.581,0.0125));
#1255=CARTESIAN_POINT('',(0.0125,0.73,0.0125));
#1256=CARTESIAN_POINT('',(0.,0.,-0.0125));
#1257=CARTESIAN_POINT('',(0.,0.581,-0.0125));
#1258=CARTESIAN_POINT('',(0.0125,0.73,-0.0125));
#1259=CARTESIAN_POINT('',(0.0125,0.73,0.0125));
#1260=CARTESIAN_POINT('',(0.0175,0.581,-0.0175));
#1261=CARTESIAN_POINT('',(-0.0175,0.581,-0.0175));
#1262=CARTESIAN_POINT('',(-0.0175,0.581,-0.0175));
#1263=CARTESIAN_POINT('',(-0.0175,0.581,0.0175));
#1264=CARTESIAN_POINT('',(0.0175,0.581,0.0175));
#1265=CARTESIAN_POINT('',(0.0175,0.581,0.0175));
#1266=CARTESIAN_POINT('',(0.0175,0.581,-0.0175));
#1267=CARTESIAN_POINT('',(0.0175,0.581,-0.0175));
#1268=CARTESIAN_POINT('',(0.0175,0.581,-0.0175));
#1269=CARTESIAN_POINT('',(0.0175,0.581,0.0175));
#1270=CARTESIAN_POINT('',(-0.0175,0.581,0.0175));
#1271=CARTESIAN_POINT('',(-0.0175,0.576,0.0175));
#1272=CARTESIAN_POINT('',(0.0175,0.576,0.0175));
#1273=CARTESIAN_POINT('',(0.0175,0.576,0.0175));
#1274=CARTESIAN_POINT('',(0.0175,0.581,0.0175));
#1275=CARTESIAN_POINT('',(0.0175,0.576,0.0175));
#1276=CARTESIAN_POINT('',(0.,0.576,0.0125));
#1277=CARTESIAN_POINT('',(0.0125,0.576,0.0125));
#1278=CARTESIAN_POINT('',(-0.0125,0.576,0.0125));
#1279=CARTESIAN_POINT('',(0.0125,0.576,0.0125));
#1280=CARTESIAN_POINT('',(0.0125,0.576,-0.0125));
#1281=CARTESIAN_POINT('',(0.,0.576,-0.0125));
#1282=CARTESIAN_POINT('',(-0.0125,0.576,-0.0125));
#1283=CARTESIAN_POINT('',(-0.0125,0.576,0.0125));
#1284=CARTESIAN_POINT('',(-0.0175,0.576,0.0175));
#1285=CARTESIAN_POINT('',(-0.0175,0.576,-0.0175));
#1286=CARTESIAN_POINT('',(0.0175,0.576,-0.0175));
#1287=CARTESIAN_POINT('',(0.0175,0.576,-0.0175));
#1288=CARTESIAN_POINT('',(0.0175,0.576,0.0175));
#1289=CARTESIAN_POINT('',(0.0175,0.576,-0.0175));
#1290=CARTESIAN_POINT('',(-0.0175,0.576,-0.0175));
#1291=CARTESIAN_POINT('',(0.0175,0.576,-0.0175));
#1292=CARTESIAN_POINT('',(0.0175,0.,0.));
#1293=CARTESIAN_POINT('',(-0.0175,0.,0.));
#1294=CARTESIAN_POINT('',(-0.0125,0.,0.0125));
#1295=CARTESIAN_POINT('',(-0.0125,0.,-0.0125));
#1296=CARTESIAN_POINT('',(-0.0125,0.,-0.0125));
#1297=CARTESIAN_POINT('',(0.0125,0.,-0.0125));
#1298=CARTESIAN_POINT('',(0.0125,0.,0.0125));
#1299=CARTESIAN_POINT('',(0.0125,0.,0.0125));
#1300=CARTESIAN_POINT('',(-0.0125,0.,0.0125));
#1301=CARTESIAN_POINT('',(-0.0125,0.,0.0125));
#1302=CARTESIAN_POINT('',(-0.0125,0.,0.0125));
#1303=CARTESIAN_POINT('',(0.,0.,-0.0125));
#1304=CARTESIAN_POINT('',(0.0125,0.,-0.0125));
#1305=CARTESIAN_POINT('',(-0.0125,0.73,-0.0125));
#1306=CARTESIAN_POINT('',(0.,0.,0.0125));
#1307=CARTESIAN_POINT('',(0.0125,0.,0.0125));
#1308=CARTESIAN_POINT('',(-0.0125,0.73,0.0125));
#1309=CARTESIAN_POINT('',(0.0125,0.,0.0125));
#1310=CARTESIAN_POINT('',(-0.0125,0.73,0.0125));
#1311=CARTESIAN_POINT('',(0.,-0.526,0.));
#1312=MECHANICAL_DESIGN_GEOMETRIC_PRESENTATION_REPRESENTATION('',(#821,
#822),#1313);
#1313=(
GEOMETRIC_REPRESENTATION_CONTEXT(3)
GLOBAL_UNCERTAINTY_ASSIGNED_CONTEXT((#1316))
GLOBAL_UNIT_ASSIGNED_CONTEXT((#1321,#1320,#1319))
REPRESENTATION_CONTEXT('MTSW-101-09-G-S-104','TOP_LEVEL_ASSEMBLY_PART')
);
#1314=(
GEOMETRIC_REPRESENTATION_CONTEXT(3)
GLOBAL_UNCERTAINTY_ASSIGNED_CONTEXT((#1317))
GLOBAL_UNIT_ASSIGNED_CONTEXT((#1321,#1320,#1319))
REPRESENTATION_CONTEXT('MTSW-101-09-G-S-104_body','COMPONENT_PART')
);
#1315=(
GEOMETRIC_REPRESENTATION_CONTEXT(3)
GLOBAL_UNCERTAINTY_ASSIGNED_CONTEXT((#1318))
GLOBAL_UNIT_ASSIGNED_CONTEXT((#1321,#1320,#1319))
REPRESENTATION_CONTEXT('MTSW-101-09-S-104','COMPONENT_PART')
);
#1316=UNCERTAINTY_MEASURE_WITH_UNIT(LENGTH_MEASURE(0.000196850393700787),
#1321,'DISTANCE_ACCURACY_VALUE','Maximum Tolerance applied to model');
#1317=UNCERTAINTY_MEASURE_WITH_UNIT(LENGTH_MEASURE(0.000196850393700787),
#1321,'DISTANCE_ACCURACY_VALUE','Maximum Tolerance applied to model');
#1318=UNCERTAINTY_MEASURE_WITH_UNIT(LENGTH_MEASURE(0.000196850393700787),
#1321,'DISTANCE_ACCURACY_VALUE','Maximum Tolerance applied to model');
#1319=(
NAMED_UNIT(*)
SI_UNIT($,.STERADIAN.)
SOLID_ANGLE_UNIT()
);
#1320=(
NAMED_UNIT(*)
PLANE_ANGLE_UNIT()
SI_UNIT($,.RADIAN.)
);
#1321=(
CONVERSION_BASED_UNIT('INCH',#1323)
LENGTH_UNIT()
NAMED_UNIT(#1322)
);
#1322=DIMENSIONAL_EXPONENTS(1.,0.,0.,0.,0.,0.,0.);
#1323=LENGTH_MEASURE_WITH_UNIT(LENGTH_MEASURE(25.4),#1324);
#1324=(
LENGTH_UNIT()
NAMED_UNIT(*)
SI_UNIT(.MILLI.,.METRE.)
);
#1325=PRODUCT_DEFINITION_SHAPE('','',#1330);
#1326=PRODUCT_DEFINITION_SHAPE('','',#1331);
#1327=PRODUCT_DEFINITION_SHAPE(' ','NAUO PRDDFN',#21);
#1328=PRODUCT_DEFINITION_SHAPE('','',#1332);
#1329=PRODUCT_DEFINITION_SHAPE(' ','NAUO PRDDFN',#22);
#1330=PRODUCT_DEFINITION('','',#1336,#1333);
#1331=PRODUCT_DEFINITION('','',#1337,#1334);
#1332=PRODUCT_DEFINITION('','',#1338,#1335);
#1333=PRODUCT_DEFINITION_CONTEXT('',#1352,'design');
#1334=PRODUCT_DEFINITION_CONTEXT('',#1352,'design');
#1335=PRODUCT_DEFINITION_CONTEXT('',#1352,'design');
#1336=PRODUCT_DEFINITION_FORMATION_WITH_SPECIFIED_SOURCE('','',#1342,
 .NOT_KNOWN.);
#1337=PRODUCT_DEFINITION_FORMATION_WITH_SPECIFIED_SOURCE('','',#1343,
 .NOT_KNOWN.);
#1338=PRODUCT_DEFINITION_FORMATION_WITH_SPECIFIED_SOURCE('','',#1344,
 .NOT_KNOWN.);
#1339=PRODUCT_RELATED_PRODUCT_CATEGORY('','',(#1342));
#1340=PRODUCT_RELATED_PRODUCT_CATEGORY('','',(#1343));
#1341=PRODUCT_RELATED_PRODUCT_CATEGORY('','',(#1344));
#1342=PRODUCT('MTSW-101-09-G-S-104','MTSW-101-09-G-S-104',
'MTSW-101-09-G-S-104',(#1348));
#1343=PRODUCT('MTSW-101-09-G-S-104_body','MTSW-101-09-G-S-104_body',
'MTSW-101-09-G-S-104_body',(#1349));
#1344=PRODUCT('MTSW-101-09-S-104','MTSW-101-09-S-104',
'MTSW-101-09-S-104',(#1350));
#1345=PRODUCT_CATEGORY('','');
#1346=PRODUCT_CATEGORY('','');
#1347=PRODUCT_CATEGORY('','');
#1348=PRODUCT_CONTEXT('',#1352,'mechanical');
#1349=PRODUCT_CONTEXT('',#1352,'mechanical');
#1350=PRODUCT_CONTEXT('',#1352,'mechanical');
#1351=APPLICATION_PROTOCOL_DEFINITION('international standard',
'automotive_design',2010,#1352);
#1352=APPLICATION_CONTEXT(
'core data for automotive mechanical design processes');
ENDSEC;
END-ISO-10303-21;
