ISO-10303-21;
HEADER;
/* Generated by software containing ST-Developer
 * from STEP Tools, Inc. (www.steptools.com) 
 */
/* OPTION: using custom renumber hook */

FILE_DESCRIPTION(
/* description */ ('STEP AP214'),
/* implementation_level */ '2;1');

FILE_NAME(
/* name */ 'SSW-104-01-F-S',
/* time_stamp */ '2025-09-10T14:30:22+02:00',
/* author */ ('License CC BY-ND 4.0'),
/* organization */ ('CADENAS'),
/* preprocessor_version */ 'ST-DEVELOPER v19.3',
/* originating_system */ 'PARTsolutions',
/* authorisation */ '  ');

FILE_SCHEMA (('AUTOMOTIVE_DESIGN {1 0 10303 214 3 1 1}'));
ENDSEC;

DATA;
#10=PROPERTY_DEFINITION_REPRESENTATION(#14,#12);
#11=PROPERTY_DEFINITION_REPRESENTATION(#15,#13);
#12=REPRESENTATION('',(#16),#2269);
#13=REPRESENTATION('',(#17),#2269);
#14=PROPERTY_DEFINITION('pmi validation property','',#2281);
#15=PROPERTY_DEFINITION('pmi validation property','',#2281);
#16=VALUE_REPRESENTATION_ITEM('number of annotations',COUNT_MEASURE(0.));
#17=VALUE_REPRESENTATION_ITEM('number of views',COUNT_MEASURE(0.));
#18=DRAUGHTING_PRE_DEFINED_COLOUR('yellow');
#19=CONTEXT_DEPENDENT_SHAPE_REPRESENTATION(#23,#2283);
#20=CONTEXT_DEPENDENT_SHAPE_REPRESENTATION(#24,#2285);
#21=NEXT_ASSEMBLY_USAGE_OCCURRENCE('NAUO1','T1SSW-104-01-F-S',
'T1SSW-104-01-F-S',#2286,#2287,'');
#22=NEXT_ASSEMBLY_USAGE_OCCURRENCE('NAUO2','P2SSW-104-01-F-S',
'P2SSW-104-01-F-S',#2286,#2288,'');
#23=(
REPRESENTATION_RELATIONSHIP(' ',' ',#1454,#1453)
REPRESENTATION_RELATIONSHIP_WITH_TRANSFORMATION(#25)
SHAPE_REPRESENTATION_RELATIONSHIP()
);
#24=(
REPRESENTATION_RELATIONSHIP(' ',' ',#1455,#1453)
REPRESENTATION_RELATIONSHIP_WITH_TRANSFORMATION(#26)
SHAPE_REPRESENTATION_RELATIONSHIP()
);
#25=ITEM_DEFINED_TRANSFORMATION(' ',' ',#1456,#1495);
#26=ITEM_DEFINED_TRANSFORMATION(' ',' ',#1456,#1530);
#27=SHAPE_REPRESENTATION_RELATIONSHIP('','',#1454,#29);
#28=SHAPE_REPRESENTATION_RELATIONSHIP('','',#1455,#30);
#29=ADVANCED_BREP_SHAPE_REPRESENTATION('',(#1448),#2270);
#30=ADVANCED_BREP_SHAPE_REPRESENTATION('',(#1449),#2271);
#31=ORIENTED_EDGE('',*,*,#415,.F.);
#32=ORIENTED_EDGE('',*,*,#416,.F.);
#33=ORIENTED_EDGE('',*,*,#417,.F.);
#34=ORIENTED_EDGE('',*,*,#418,.T.);
#35=ORIENTED_EDGE('',*,*,#419,.F.);
#36=ORIENTED_EDGE('',*,*,#420,.F.);
#37=ORIENTED_EDGE('',*,*,#421,.F.);
#38=ORIENTED_EDGE('',*,*,#422,.T.);
#39=ORIENTED_EDGE('',*,*,#423,.F.);
#40=ORIENTED_EDGE('',*,*,#424,.F.);
#41=ORIENTED_EDGE('',*,*,#425,.F.);
#42=ORIENTED_EDGE('',*,*,#426,.T.);
#43=ORIENTED_EDGE('',*,*,#427,.F.);
#44=ORIENTED_EDGE('',*,*,#428,.F.);
#45=ORIENTED_EDGE('',*,*,#429,.F.);
#46=ORIENTED_EDGE('',*,*,#430,.T.);
#47=ORIENTED_EDGE('',*,*,#431,.F.);
#48=ORIENTED_EDGE('',*,*,#432,.F.);
#49=ORIENTED_EDGE('',*,*,#433,.T.);
#50=ORIENTED_EDGE('',*,*,#434,.T.);
#51=ORIENTED_EDGE('',*,*,#435,.F.);
#52=ORIENTED_EDGE('',*,*,#436,.T.);
#53=ORIENTED_EDGE('',*,*,#437,.F.);
#54=ORIENTED_EDGE('',*,*,#438,.F.);
#55=ORIENTED_EDGE('',*,*,#439,.T.);
#56=ORIENTED_EDGE('',*,*,#440,.T.);
#57=ORIENTED_EDGE('',*,*,#441,.F.);
#58=ORIENTED_EDGE('',*,*,#442,.F.);
#59=ORIENTED_EDGE('',*,*,#443,.F.);
#60=ORIENTED_EDGE('',*,*,#444,.T.);
#61=ORIENTED_EDGE('',*,*,#445,.F.);
#62=ORIENTED_EDGE('',*,*,#446,.F.);
#63=ORIENTED_EDGE('',*,*,#447,.F.);
#64=ORIENTED_EDGE('',*,*,#448,.T.);
#65=ORIENTED_EDGE('',*,*,#449,.F.);
#66=ORIENTED_EDGE('',*,*,#450,.F.);
#67=ORIENTED_EDGE('',*,*,#451,.F.);
#68=ORIENTED_EDGE('',*,*,#452,.T.);
#69=ORIENTED_EDGE('',*,*,#453,.F.);
#70=ORIENTED_EDGE('',*,*,#454,.F.);
#71=ORIENTED_EDGE('',*,*,#455,.T.);
#72=ORIENTED_EDGE('',*,*,#456,.T.);
#73=ORIENTED_EDGE('',*,*,#457,.F.);
#74=ORIENTED_EDGE('',*,*,#458,.T.);
#75=ORIENTED_EDGE('',*,*,#457,.T.);
#76=ORIENTED_EDGE('',*,*,#459,.T.);
#77=ORIENTED_EDGE('',*,*,#460,.F.);
#78=ORIENTED_EDGE('',*,*,#461,.T.);
#79=ORIENTED_EDGE('',*,*,#460,.T.);
#80=ORIENTED_EDGE('',*,*,#462,.T.);
#81=ORIENTED_EDGE('',*,*,#463,.F.);
#82=ORIENTED_EDGE('',*,*,#464,.T.);
#83=ORIENTED_EDGE('',*,*,#465,.T.);
#84=ORIENTED_EDGE('',*,*,#466,.T.);
#85=ORIENTED_EDGE('',*,*,#467,.F.);
#86=ORIENTED_EDGE('',*,*,#468,.T.);
#87=ORIENTED_EDGE('',*,*,#467,.T.);
#88=ORIENTED_EDGE('',*,*,#469,.T.);
#89=ORIENTED_EDGE('',*,*,#470,.F.);
#90=ORIENTED_EDGE('',*,*,#471,.T.);
#91=ORIENTED_EDGE('',*,*,#470,.T.);
#92=ORIENTED_EDGE('',*,*,#472,.T.);
#93=ORIENTED_EDGE('',*,*,#473,.F.);
#94=ORIENTED_EDGE('',*,*,#474,.T.);
#95=ORIENTED_EDGE('',*,*,#475,.T.);
#96=ORIENTED_EDGE('',*,*,#476,.T.);
#97=ORIENTED_EDGE('',*,*,#477,.F.);
#98=ORIENTED_EDGE('',*,*,#478,.T.);
#99=ORIENTED_EDGE('',*,*,#477,.T.);
#100=ORIENTED_EDGE('',*,*,#479,.T.);
#101=ORIENTED_EDGE('',*,*,#480,.F.);
#102=ORIENTED_EDGE('',*,*,#481,.T.);
#103=ORIENTED_EDGE('',*,*,#480,.T.);
#104=ORIENTED_EDGE('',*,*,#482,.T.);
#105=ORIENTED_EDGE('',*,*,#483,.F.);
#106=ORIENTED_EDGE('',*,*,#484,.T.);
#107=ORIENTED_EDGE('',*,*,#485,.T.);
#108=ORIENTED_EDGE('',*,*,#486,.T.);
#109=ORIENTED_EDGE('',*,*,#487,.F.);
#110=ORIENTED_EDGE('',*,*,#488,.T.);
#111=ORIENTED_EDGE('',*,*,#487,.T.);
#112=ORIENTED_EDGE('',*,*,#489,.T.);
#113=ORIENTED_EDGE('',*,*,#490,.F.);
#114=ORIENTED_EDGE('',*,*,#491,.T.);
#115=ORIENTED_EDGE('',*,*,#490,.T.);
#116=ORIENTED_EDGE('',*,*,#492,.T.);
#117=ORIENTED_EDGE('',*,*,#493,.F.);
#118=ORIENTED_EDGE('',*,*,#494,.T.);
#119=ORIENTED_EDGE('',*,*,#463,.T.);
#120=ORIENTED_EDGE('',*,*,#495,.T.);
#121=ORIENTED_EDGE('',*,*,#455,.F.);
#122=ORIENTED_EDGE('',*,*,#496,.T.);
#123=ORIENTED_EDGE('',*,*,#473,.T.);
#124=ORIENTED_EDGE('',*,*,#497,.T.);
#125=ORIENTED_EDGE('',*,*,#465,.F.);
#126=ORIENTED_EDGE('',*,*,#498,.T.);
#127=ORIENTED_EDGE('',*,*,#483,.T.);
#128=ORIENTED_EDGE('',*,*,#499,.T.);
#129=ORIENTED_EDGE('',*,*,#475,.F.);
#130=ORIENTED_EDGE('',*,*,#500,.T.);
#131=ORIENTED_EDGE('',*,*,#493,.T.);
#132=ORIENTED_EDGE('',*,*,#501,.T.);
#133=ORIENTED_EDGE('',*,*,#485,.F.);
#134=ORIENTED_EDGE('',*,*,#502,.T.);
#135=ORIENTED_EDGE('',*,*,#503,.F.);
#136=ORIENTED_EDGE('',*,*,#440,.F.);
#137=ORIENTED_EDGE('',*,*,#504,.F.);
#138=ORIENTED_EDGE('',*,*,#430,.F.);
#139=ORIENTED_EDGE('',*,*,#505,.F.);
#140=ORIENTED_EDGE('',*,*,#434,.F.);
#141=ORIENTED_EDGE('',*,*,#506,.F.);
#142=ORIENTED_EDGE('',*,*,#436,.F.);
#143=ORIENTED_EDGE('',*,*,#507,.F.);
#144=ORIENTED_EDGE('',*,*,#452,.F.);
#145=ORIENTED_EDGE('',*,*,#508,.F.);
#146=ORIENTED_EDGE('',*,*,#418,.F.);
#147=ORIENTED_EDGE('',*,*,#509,.F.);
#148=ORIENTED_EDGE('',*,*,#448,.F.);
#149=ORIENTED_EDGE('',*,*,#510,.F.);
#150=ORIENTED_EDGE('',*,*,#422,.F.);
#151=ORIENTED_EDGE('',*,*,#511,.F.);
#152=ORIENTED_EDGE('',*,*,#444,.F.);
#153=ORIENTED_EDGE('',*,*,#512,.F.);
#154=ORIENTED_EDGE('',*,*,#426,.F.);
#155=ORIENTED_EDGE('',*,*,#504,.T.);
#156=ORIENTED_EDGE('',*,*,#439,.F.);
#157=ORIENTED_EDGE('',*,*,#513,.F.);
#158=ORIENTED_EDGE('',*,*,#431,.T.);
#159=ORIENTED_EDGE('',*,*,#506,.T.);
#160=ORIENTED_EDGE('',*,*,#433,.F.);
#161=ORIENTED_EDGE('',*,*,#514,.F.);
#162=ORIENTED_EDGE('',*,*,#437,.T.);
#163=ORIENTED_EDGE('',*,*,#488,.F.);
#164=ORIENTED_EDGE('',*,*,#491,.F.);
#165=ORIENTED_EDGE('',*,*,#494,.F.);
#166=ORIENTED_EDGE('',*,*,#502,.F.);
#167=ORIENTED_EDGE('',*,*,#478,.F.);
#168=ORIENTED_EDGE('',*,*,#481,.F.);
#169=ORIENTED_EDGE('',*,*,#484,.F.);
#170=ORIENTED_EDGE('',*,*,#500,.F.);
#171=ORIENTED_EDGE('',*,*,#468,.F.);
#172=ORIENTED_EDGE('',*,*,#471,.F.);
#173=ORIENTED_EDGE('',*,*,#474,.F.);
#174=ORIENTED_EDGE('',*,*,#498,.F.);
#175=ORIENTED_EDGE('',*,*,#458,.F.);
#176=ORIENTED_EDGE('',*,*,#461,.F.);
#177=ORIENTED_EDGE('',*,*,#464,.F.);
#178=ORIENTED_EDGE('',*,*,#496,.F.);
#179=ORIENTED_EDGE('',*,*,#432,.T.);
#180=ORIENTED_EDGE('',*,*,#513,.T.);
#181=ORIENTED_EDGE('',*,*,#438,.T.);
#182=ORIENTED_EDGE('',*,*,#514,.T.);
#183=ORIENTED_EDGE('',*,*,#427,.T.);
#184=ORIENTED_EDGE('',*,*,#512,.T.);
#185=ORIENTED_EDGE('',*,*,#443,.T.);
#186=ORIENTED_EDGE('',*,*,#515,.T.);
#187=ORIENTED_EDGE('',*,*,#429,.T.);
#188=ORIENTED_EDGE('',*,*,#516,.F.);
#189=ORIENTED_EDGE('',*,*,#441,.T.);
#190=ORIENTED_EDGE('',*,*,#503,.T.);
#191=ORIENTED_EDGE('',*,*,#501,.F.);
#192=ORIENTED_EDGE('',*,*,#492,.F.);
#193=ORIENTED_EDGE('',*,*,#489,.F.);
#194=ORIENTED_EDGE('',*,*,#486,.F.);
#195=ORIENTED_EDGE('',*,*,#428,.T.);
#196=ORIENTED_EDGE('',*,*,#515,.F.);
#197=ORIENTED_EDGE('',*,*,#442,.T.);
#198=ORIENTED_EDGE('',*,*,#516,.T.);
#199=ORIENTED_EDGE('',*,*,#423,.T.);
#200=ORIENTED_EDGE('',*,*,#510,.T.);
#201=ORIENTED_EDGE('',*,*,#447,.T.);
#202=ORIENTED_EDGE('',*,*,#517,.T.);
#203=ORIENTED_EDGE('',*,*,#425,.T.);
#204=ORIENTED_EDGE('',*,*,#518,.F.);
#205=ORIENTED_EDGE('',*,*,#445,.T.);
#206=ORIENTED_EDGE('',*,*,#511,.T.);
#207=ORIENTED_EDGE('',*,*,#499,.F.);
#208=ORIENTED_EDGE('',*,*,#482,.F.);
#209=ORIENTED_EDGE('',*,*,#479,.F.);
#210=ORIENTED_EDGE('',*,*,#476,.F.);
#211=ORIENTED_EDGE('',*,*,#424,.T.);
#212=ORIENTED_EDGE('',*,*,#517,.F.);
#213=ORIENTED_EDGE('',*,*,#446,.T.);
#214=ORIENTED_EDGE('',*,*,#518,.T.);
#215=ORIENTED_EDGE('',*,*,#419,.T.);
#216=ORIENTED_EDGE('',*,*,#508,.T.);
#217=ORIENTED_EDGE('',*,*,#451,.T.);
#218=ORIENTED_EDGE('',*,*,#519,.T.);
#219=ORIENTED_EDGE('',*,*,#421,.T.);
#220=ORIENTED_EDGE('',*,*,#520,.F.);
#221=ORIENTED_EDGE('',*,*,#449,.T.);
#222=ORIENTED_EDGE('',*,*,#509,.T.);
#223=ORIENTED_EDGE('',*,*,#497,.F.);
#224=ORIENTED_EDGE('',*,*,#472,.F.);
#225=ORIENTED_EDGE('',*,*,#469,.F.);
#226=ORIENTED_EDGE('',*,*,#466,.F.);
#227=ORIENTED_EDGE('',*,*,#420,.T.);
#228=ORIENTED_EDGE('',*,*,#519,.F.);
#229=ORIENTED_EDGE('',*,*,#450,.T.);
#230=ORIENTED_EDGE('',*,*,#520,.T.);
#231=ORIENTED_EDGE('',*,*,#495,.F.);
#232=ORIENTED_EDGE('',*,*,#462,.F.);
#233=ORIENTED_EDGE('',*,*,#459,.F.);
#234=ORIENTED_EDGE('',*,*,#456,.F.);
#235=ORIENTED_EDGE('',*,*,#416,.T.);
#236=ORIENTED_EDGE('',*,*,#521,.F.);
#237=ORIENTED_EDGE('',*,*,#454,.T.);
#238=ORIENTED_EDGE('',*,*,#522,.T.);
#239=ORIENTED_EDGE('',*,*,#415,.T.);
#240=ORIENTED_EDGE('',*,*,#505,.T.);
#241=ORIENTED_EDGE('',*,*,#435,.T.);
#242=ORIENTED_EDGE('',*,*,#521,.T.);
#243=ORIENTED_EDGE('',*,*,#417,.T.);
#244=ORIENTED_EDGE('',*,*,#522,.F.);
#245=ORIENTED_EDGE('',*,*,#453,.T.);
#246=ORIENTED_EDGE('',*,*,#507,.T.);
#247=ORIENTED_EDGE('',*,*,#523,.F.);
#248=ORIENTED_EDGE('',*,*,#524,.F.);
#249=ORIENTED_EDGE('',*,*,#525,.F.);
#250=ORIENTED_EDGE('',*,*,#526,.F.);
#251=ORIENTED_EDGE('',*,*,#527,.F.);
#252=ORIENTED_EDGE('',*,*,#528,.F.);
#253=ORIENTED_EDGE('',*,*,#529,.F.);
#254=ORIENTED_EDGE('',*,*,#530,.F.);
#255=ORIENTED_EDGE('',*,*,#531,.F.);
#256=ORIENTED_EDGE('',*,*,#532,.F.);
#257=ORIENTED_EDGE('',*,*,#533,.F.);
#258=ORIENTED_EDGE('',*,*,#534,.F.);
#259=ORIENTED_EDGE('',*,*,#535,.F.);
#260=ORIENTED_EDGE('',*,*,#536,.F.);
#261=ORIENTED_EDGE('',*,*,#537,.F.);
#262=ORIENTED_EDGE('',*,*,#538,.F.);
#263=ORIENTED_EDGE('',*,*,#539,.F.);
#264=ORIENTED_EDGE('',*,*,#540,.F.);
#265=ORIENTED_EDGE('',*,*,#541,.F.);
#266=ORIENTED_EDGE('',*,*,#542,.F.);
#267=ORIENTED_EDGE('',*,*,#543,.F.);
#268=ORIENTED_EDGE('',*,*,#544,.F.);
#269=ORIENTED_EDGE('',*,*,#545,.F.);
#270=ORIENTED_EDGE('',*,*,#546,.F.);
#271=ORIENTED_EDGE('',*,*,#547,.F.);
#272=ORIENTED_EDGE('',*,*,#548,.T.);
#273=ORIENTED_EDGE('',*,*,#549,.F.);
#274=ORIENTED_EDGE('',*,*,#550,.F.);
#275=ORIENTED_EDGE('',*,*,#551,.F.);
#276=ORIENTED_EDGE('',*,*,#552,.F.);
#277=ORIENTED_EDGE('',*,*,#553,.F.);
#278=ORIENTED_EDGE('',*,*,#554,.T.);
#279=ORIENTED_EDGE('',*,*,#555,.F.);
#280=ORIENTED_EDGE('',*,*,#556,.F.);
#281=ORIENTED_EDGE('',*,*,#557,.F.);
#282=ORIENTED_EDGE('',*,*,#558,.F.);
#283=ORIENTED_EDGE('',*,*,#559,.F.);
#284=ORIENTED_EDGE('',*,*,#560,.T.);
#285=ORIENTED_EDGE('',*,*,#561,.F.);
#286=ORIENTED_EDGE('',*,*,#562,.F.);
#287=ORIENTED_EDGE('',*,*,#563,.F.);
#288=ORIENTED_EDGE('',*,*,#564,.F.);
#289=ORIENTED_EDGE('',*,*,#565,.F.);
#290=ORIENTED_EDGE('',*,*,#566,.T.);
#291=ORIENTED_EDGE('',*,*,#567,.F.);
#292=ORIENTED_EDGE('',*,*,#568,.F.);
#293=ORIENTED_EDGE('',*,*,#569,.F.);
#294=ORIENTED_EDGE('',*,*,#570,.F.);
#295=ORIENTED_EDGE('',*,*,#571,.F.);
#296=ORIENTED_EDGE('',*,*,#528,.T.);
#297=ORIENTED_EDGE('',*,*,#572,.T.);
#298=ORIENTED_EDGE('',*,*,#548,.F.);
#299=ORIENTED_EDGE('',*,*,#573,.F.);
#300=ORIENTED_EDGE('',*,*,#534,.T.);
#301=ORIENTED_EDGE('',*,*,#574,.T.);
#302=ORIENTED_EDGE('',*,*,#554,.F.);
#303=ORIENTED_EDGE('',*,*,#575,.F.);
#304=ORIENTED_EDGE('',*,*,#540,.T.);
#305=ORIENTED_EDGE('',*,*,#576,.T.);
#306=ORIENTED_EDGE('',*,*,#560,.F.);
#307=ORIENTED_EDGE('',*,*,#577,.F.);
#308=ORIENTED_EDGE('',*,*,#546,.T.);
#309=ORIENTED_EDGE('',*,*,#578,.T.);
#310=ORIENTED_EDGE('',*,*,#566,.F.);
#311=ORIENTED_EDGE('',*,*,#568,.T.);
#312=ORIENTED_EDGE('',*,*,#579,.T.);
#313=ORIENTED_EDGE('',*,*,#544,.T.);
#314=ORIENTED_EDGE('',*,*,#580,.T.);
#315=ORIENTED_EDGE('',*,*,#524,.T.);
#316=ORIENTED_EDGE('',*,*,#581,.T.);
#317=ORIENTED_EDGE('',*,*,#552,.T.);
#318=ORIENTED_EDGE('',*,*,#582,.F.);
#319=ORIENTED_EDGE('',*,*,#542,.T.);
#320=ORIENTED_EDGE('',*,*,#583,.T.);
#321=ORIENTED_EDGE('',*,*,#570,.T.);
#322=ORIENTED_EDGE('',*,*,#584,.F.);
#323=ORIENTED_EDGE('',*,*,#562,.T.);
#324=ORIENTED_EDGE('',*,*,#585,.T.);
#325=ORIENTED_EDGE('',*,*,#538,.T.);
#326=ORIENTED_EDGE('',*,*,#586,.T.);
#327=ORIENTED_EDGE('',*,*,#536,.T.);
#328=ORIENTED_EDGE('',*,*,#587,.T.);
#329=ORIENTED_EDGE('',*,*,#564,.T.);
#330=ORIENTED_EDGE('',*,*,#588,.F.);
#331=ORIENTED_EDGE('',*,*,#556,.T.);
#332=ORIENTED_EDGE('',*,*,#589,.T.);
#333=ORIENTED_EDGE('',*,*,#532,.T.);
#334=ORIENTED_EDGE('',*,*,#590,.T.);
#335=ORIENTED_EDGE('',*,*,#550,.T.);
#336=ORIENTED_EDGE('',*,*,#591,.T.);
#337=ORIENTED_EDGE('',*,*,#526,.T.);
#338=ORIENTED_EDGE('',*,*,#592,.T.);
#339=ORIENTED_EDGE('',*,*,#530,.T.);
#340=ORIENTED_EDGE('',*,*,#593,.T.);
#341=ORIENTED_EDGE('',*,*,#558,.T.);
#342=ORIENTED_EDGE('',*,*,#594,.F.);
#343=ORIENTED_EDGE('',*,*,#595,.T.);
#344=ORIENTED_EDGE('',*,*,#596,.F.);
#345=ORIENTED_EDGE('',*,*,#597,.T.);
#346=ORIENTED_EDGE('',*,*,#598,.T.);
#347=ORIENTED_EDGE('',*,*,#599,.T.);
#348=ORIENTED_EDGE('',*,*,#600,.T.);
#349=ORIENTED_EDGE('',*,*,#601,.F.);
#350=ORIENTED_EDGE('',*,*,#602,.F.);
#351=ORIENTED_EDGE('',*,*,#602,.T.);
#352=ORIENTED_EDGE('',*,*,#603,.T.);
#353=ORIENTED_EDGE('',*,*,#597,.F.);
#354=ORIENTED_EDGE('',*,*,#604,.T.);
#355=ORIENTED_EDGE('',*,*,#605,.T.);
#356=ORIENTED_EDGE('',*,*,#599,.F.);
#357=ORIENTED_EDGE('',*,*,#604,.F.);
#358=ORIENTED_EDGE('',*,*,#596,.T.);
#359=ORIENTED_EDGE('',*,*,#525,.T.);
#360=ORIENTED_EDGE('',*,*,#582,.T.);
#361=ORIENTED_EDGE('',*,*,#551,.T.);
#362=ORIENTED_EDGE('',*,*,#592,.F.);
#363=ORIENTED_EDGE('',*,*,#531,.T.);
#364=ORIENTED_EDGE('',*,*,#594,.T.);
#365=ORIENTED_EDGE('',*,*,#557,.T.);
#366=ORIENTED_EDGE('',*,*,#590,.F.);
#367=ORIENTED_EDGE('',*,*,#537,.T.);
#368=ORIENTED_EDGE('',*,*,#588,.T.);
#369=ORIENTED_EDGE('',*,*,#563,.T.);
#370=ORIENTED_EDGE('',*,*,#586,.F.);
#371=ORIENTED_EDGE('',*,*,#543,.T.);
#372=ORIENTED_EDGE('',*,*,#584,.T.);
#373=ORIENTED_EDGE('',*,*,#569,.T.);
#374=ORIENTED_EDGE('',*,*,#580,.F.);
#375=ORIENTED_EDGE('',*,*,#600,.F.);
#376=ORIENTED_EDGE('',*,*,#605,.F.);
#377=ORIENTED_EDGE('',*,*,#595,.F.);
#378=ORIENTED_EDGE('',*,*,#606,.F.);
#379=ORIENTED_EDGE('',*,*,#606,.T.);
#380=ORIENTED_EDGE('',*,*,#598,.F.);
#381=ORIENTED_EDGE('',*,*,#603,.F.);
#382=ORIENTED_EDGE('',*,*,#601,.T.);
#383=ORIENTED_EDGE('',*,*,#529,.T.);
#384=ORIENTED_EDGE('',*,*,#573,.T.);
#385=ORIENTED_EDGE('',*,*,#553,.T.);
#386=ORIENTED_EDGE('',*,*,#593,.F.);
#387=ORIENTED_EDGE('',*,*,#527,.T.);
#388=ORIENTED_EDGE('',*,*,#591,.F.);
#389=ORIENTED_EDGE('',*,*,#549,.T.);
#390=ORIENTED_EDGE('',*,*,#572,.F.);
#391=ORIENTED_EDGE('',*,*,#533,.T.);
#392=ORIENTED_EDGE('',*,*,#589,.F.);
#393=ORIENTED_EDGE('',*,*,#555,.T.);
#394=ORIENTED_EDGE('',*,*,#574,.F.);
#395=ORIENTED_EDGE('',*,*,#535,.T.);
#396=ORIENTED_EDGE('',*,*,#575,.T.);
#397=ORIENTED_EDGE('',*,*,#559,.T.);
#398=ORIENTED_EDGE('',*,*,#587,.F.);
#399=ORIENTED_EDGE('',*,*,#539,.T.);
#400=ORIENTED_EDGE('',*,*,#585,.F.);
#401=ORIENTED_EDGE('',*,*,#561,.T.);
#402=ORIENTED_EDGE('',*,*,#576,.F.);
#403=ORIENTED_EDGE('',*,*,#541,.T.);
#404=ORIENTED_EDGE('',*,*,#577,.T.);
#405=ORIENTED_EDGE('',*,*,#565,.T.);
#406=ORIENTED_EDGE('',*,*,#583,.F.);
#407=ORIENTED_EDGE('',*,*,#523,.T.);
#408=ORIENTED_EDGE('',*,*,#571,.T.);
#409=ORIENTED_EDGE('',*,*,#547,.T.);
#410=ORIENTED_EDGE('',*,*,#581,.F.);
#411=ORIENTED_EDGE('',*,*,#545,.T.);
#412=ORIENTED_EDGE('',*,*,#579,.F.);
#413=ORIENTED_EDGE('',*,*,#567,.T.);
#414=ORIENTED_EDGE('',*,*,#578,.F.);
#415=EDGE_CURVE('',#607,#608,#735,.T.);
#416=EDGE_CURVE('',#609,#607,#736,.T.);
#417=EDGE_CURVE('',#610,#609,#737,.T.);
#418=EDGE_CURVE('',#610,#611,#738,.T.);
#419=EDGE_CURVE('',#612,#611,#739,.T.);
#420=EDGE_CURVE('',#613,#612,#740,.T.);
#421=EDGE_CURVE('',#614,#613,#741,.T.);
#422=EDGE_CURVE('',#614,#615,#742,.T.);
#423=EDGE_CURVE('',#616,#615,#743,.T.);
#424=EDGE_CURVE('',#617,#616,#744,.T.);
#425=EDGE_CURVE('',#618,#617,#745,.T.);
#426=EDGE_CURVE('',#618,#619,#746,.T.);
#427=EDGE_CURVE('',#620,#619,#747,.T.);
#428=EDGE_CURVE('',#621,#620,#748,.T.);
#429=EDGE_CURVE('',#622,#621,#749,.T.);
#430=EDGE_CURVE('',#622,#623,#750,.T.);
#431=EDGE_CURVE('',#624,#623,#751,.T.);
#432=EDGE_CURVE('',#625,#624,#752,.T.);
#433=EDGE_CURVE('',#625,#626,#753,.T.);
#434=EDGE_CURVE('',#626,#608,#754,.T.);
#435=EDGE_CURVE('',#627,#628,#755,.T.);
#436=EDGE_CURVE('',#627,#629,#756,.T.);
#437=EDGE_CURVE('',#630,#629,#757,.T.);
#438=EDGE_CURVE('',#631,#630,#758,.T.);
#439=EDGE_CURVE('',#631,#632,#759,.T.);
#440=EDGE_CURVE('',#632,#633,#760,.T.);
#441=EDGE_CURVE('',#634,#633,#761,.T.);
#442=EDGE_CURVE('',#635,#634,#762,.T.);
#443=EDGE_CURVE('',#636,#635,#763,.T.);
#444=EDGE_CURVE('',#636,#637,#764,.T.);
#445=EDGE_CURVE('',#638,#637,#765,.T.);
#446=EDGE_CURVE('',#639,#638,#766,.T.);
#447=EDGE_CURVE('',#640,#639,#767,.T.);
#448=EDGE_CURVE('',#640,#641,#768,.T.);
#449=EDGE_CURVE('',#642,#641,#769,.T.);
#450=EDGE_CURVE('',#643,#642,#770,.T.);
#451=EDGE_CURVE('',#644,#643,#771,.T.);
#452=EDGE_CURVE('',#644,#645,#772,.T.);
#453=EDGE_CURVE('',#646,#645,#773,.T.);
#454=EDGE_CURVE('',#628,#646,#774,.T.);
#455=EDGE_CURVE('',#647,#648,#775,.T.);
#456=EDGE_CURVE('',#648,#649,#776,.T.);
#457=EDGE_CURVE('',#650,#649,#777,.T.);
#458=EDGE_CURVE('',#650,#647,#778,.T.);
#459=EDGE_CURVE('',#649,#651,#779,.T.);
#460=EDGE_CURVE('',#652,#651,#780,.T.);
#461=EDGE_CURVE('',#652,#650,#781,.T.);
#462=EDGE_CURVE('',#651,#653,#782,.T.);
#463=EDGE_CURVE('',#654,#653,#783,.T.);
#464=EDGE_CURVE('',#654,#652,#784,.T.);
#465=EDGE_CURVE('',#655,#656,#785,.T.);
#466=EDGE_CURVE('',#656,#657,#786,.T.);
#467=EDGE_CURVE('',#658,#657,#787,.T.);
#468=EDGE_CURVE('',#658,#655,#788,.T.);
#469=EDGE_CURVE('',#657,#659,#789,.T.);
#470=EDGE_CURVE('',#660,#659,#790,.T.);
#471=EDGE_CURVE('',#660,#658,#791,.T.);
#472=EDGE_CURVE('',#659,#661,#792,.T.);
#473=EDGE_CURVE('',#662,#661,#793,.T.);
#474=EDGE_CURVE('',#662,#660,#794,.T.);
#475=EDGE_CURVE('',#663,#664,#795,.T.);
#476=EDGE_CURVE('',#664,#665,#796,.T.);
#477=EDGE_CURVE('',#666,#665,#797,.T.);
#478=EDGE_CURVE('',#666,#663,#798,.T.);
#479=EDGE_CURVE('',#665,#667,#799,.T.);
#480=EDGE_CURVE('',#668,#667,#800,.T.);
#481=EDGE_CURVE('',#668,#666,#801,.T.);
#482=EDGE_CURVE('',#667,#669,#802,.T.);
#483=EDGE_CURVE('',#670,#669,#803,.T.);
#484=EDGE_CURVE('',#670,#668,#804,.T.);
#485=EDGE_CURVE('',#671,#672,#805,.T.);
#486=EDGE_CURVE('',#672,#673,#806,.T.);
#487=EDGE_CURVE('',#674,#673,#807,.T.);
#488=EDGE_CURVE('',#674,#671,#808,.T.);
#489=EDGE_CURVE('',#673,#675,#809,.T.);
#490=EDGE_CURVE('',#676,#675,#810,.T.);
#491=EDGE_CURVE('',#676,#674,#811,.T.);
#492=EDGE_CURVE('',#675,#677,#812,.T.);
#493=EDGE_CURVE('',#678,#677,#813,.T.);
#494=EDGE_CURVE('',#678,#676,#814,.T.);
#495=EDGE_CURVE('',#653,#648,#815,.T.);
#496=EDGE_CURVE('',#647,#654,#816,.T.);
#497=EDGE_CURVE('',#661,#656,#817,.T.);
#498=EDGE_CURVE('',#655,#662,#818,.T.);
#499=EDGE_CURVE('',#669,#664,#819,.T.);
#500=EDGE_CURVE('',#663,#670,#820,.T.);
#501=EDGE_CURVE('',#677,#672,#821,.T.);
#502=EDGE_CURVE('',#671,#678,#822,.T.);
#503=EDGE_CURVE('',#633,#622,#823,.T.);
#504=EDGE_CURVE('',#623,#632,#824,.T.);
#505=EDGE_CURVE('',#608,#627,#825,.T.);
#506=EDGE_CURVE('',#629,#626,#826,.T.);
#507=EDGE_CURVE('',#645,#610,#827,.T.);
#508=EDGE_CURVE('',#611,#644,#828,.T.);
#509=EDGE_CURVE('',#641,#614,#829,.T.);
#510=EDGE_CURVE('',#615,#640,#830,.T.);
#511=EDGE_CURVE('',#637,#618,#831,.T.);
#512=EDGE_CURVE('',#619,#636,#832,.T.);
#513=EDGE_CURVE('',#624,#631,#833,.T.);
#514=EDGE_CURVE('',#630,#625,#834,.T.);
#515=EDGE_CURVE('',#635,#620,#835,.T.);
#516=EDGE_CURVE('',#634,#621,#836,.T.);
#517=EDGE_CURVE('',#639,#616,#837,.T.);
#518=EDGE_CURVE('',#638,#617,#838,.T.);
#519=EDGE_CURVE('',#643,#612,#839,.T.);
#520=EDGE_CURVE('',#642,#613,#840,.T.);
#521=EDGE_CURVE('',#628,#607,#841,.T.);
#522=EDGE_CURVE('',#646,#609,#842,.T.);
#523=EDGE_CURVE('',#679,#680,#843,.T.);
#524=EDGE_CURVE('',#681,#679,#844,.T.);
#525=EDGE_CURVE('',#682,#681,#845,.T.);
#526=EDGE_CURVE('',#683,#682,#846,.T.);
#527=EDGE_CURVE('',#684,#683,#847,.T.);
#528=EDGE_CURVE('',#680,#684,#848,.T.);
#529=EDGE_CURVE('',#685,#686,#849,.T.);
#530=EDGE_CURVE('',#687,#685,#850,.T.);
#531=EDGE_CURVE('',#688,#687,#851,.T.);
#532=EDGE_CURVE('',#689,#688,#852,.T.);
#533=EDGE_CURVE('',#690,#689,#853,.T.);
#534=EDGE_CURVE('',#686,#690,#854,.T.);
#535=EDGE_CURVE('',#691,#692,#855,.T.);
#536=EDGE_CURVE('',#693,#691,#856,.T.);
#537=EDGE_CURVE('',#694,#693,#857,.T.);
#538=EDGE_CURVE('',#695,#694,#858,.T.);
#539=EDGE_CURVE('',#696,#695,#859,.T.);
#540=EDGE_CURVE('',#692,#696,#860,.T.);
#541=EDGE_CURVE('',#697,#698,#861,.T.);
#542=EDGE_CURVE('',#699,#697,#862,.T.);
#543=EDGE_CURVE('',#700,#699,#863,.T.);
#544=EDGE_CURVE('',#701,#700,#864,.T.);
#545=EDGE_CURVE('',#702,#701,#865,.T.);
#546=EDGE_CURVE('',#698,#702,#866,.T.);
#547=EDGE_CURVE('',#703,#704,#867,.T.);
#548=EDGE_CURVE('',#703,#705,#868,.T.);
#549=EDGE_CURVE('',#706,#705,#869,.T.);
#550=EDGE_CURVE('',#707,#706,#870,.T.);
#551=EDGE_CURVE('',#708,#707,#871,.T.);
#552=EDGE_CURVE('',#704,#708,#872,.T.);
#553=EDGE_CURVE('',#709,#710,#873,.T.);
#554=EDGE_CURVE('',#709,#711,#874,.T.);
#555=EDGE_CURVE('',#712,#711,#875,.T.);
#556=EDGE_CURVE('',#713,#712,#876,.T.);
#557=EDGE_CURVE('',#714,#713,#877,.T.);
#558=EDGE_CURVE('',#710,#714,#878,.T.);
#559=EDGE_CURVE('',#715,#716,#879,.T.);
#560=EDGE_CURVE('',#715,#717,#880,.T.);
#561=EDGE_CURVE('',#718,#717,#881,.T.);
#562=EDGE_CURVE('',#719,#718,#882,.T.);
#563=EDGE_CURVE('',#720,#719,#883,.T.);
#564=EDGE_CURVE('',#716,#720,#884,.T.);
#565=EDGE_CURVE('',#721,#722,#885,.T.);
#566=EDGE_CURVE('',#721,#723,#886,.T.);
#567=EDGE_CURVE('',#724,#723,#887,.T.);
#568=EDGE_CURVE('',#725,#724,#888,.T.);
#569=EDGE_CURVE('',#726,#725,#889,.T.);
#570=EDGE_CURVE('',#722,#726,#890,.T.);
#571=EDGE_CURVE('',#680,#703,#891,.T.);
#572=EDGE_CURVE('',#684,#705,#892,.T.);
#573=EDGE_CURVE('',#686,#709,#893,.T.);
#574=EDGE_CURVE('',#690,#711,#894,.T.);
#575=EDGE_CURVE('',#692,#715,#895,.T.);
#576=EDGE_CURVE('',#696,#717,#896,.T.);
#577=EDGE_CURVE('',#698,#721,#897,.T.);
#578=EDGE_CURVE('',#702,#723,#898,.T.);
#579=EDGE_CURVE('',#724,#701,#899,.T.);
#580=EDGE_CURVE('',#700,#725,#900,.T.);
#581=EDGE_CURVE('',#679,#704,#901,.T.);
#582=EDGE_CURVE('',#681,#708,#902,.T.);
#583=EDGE_CURVE('',#697,#722,#903,.T.);
#584=EDGE_CURVE('',#699,#726,#904,.T.);
#585=EDGE_CURVE('',#718,#695,#905,.T.);
#586=EDGE_CURVE('',#694,#719,#906,.T.);
#587=EDGE_CURVE('',#691,#716,#907,.T.);
#588=EDGE_CURVE('',#693,#720,#908,.T.);
#589=EDGE_CURVE('',#712,#689,#909,.T.);
#590=EDGE_CURVE('',#688,#713,#910,.T.);
#591=EDGE_CURVE('',#706,#683,#911,.T.);
#592=EDGE_CURVE('',#682,#707,#912,.T.);
#593=EDGE_CURVE('',#685,#710,#913,.T.);
#594=EDGE_CURVE('',#687,#714,#914,.T.);
#595=EDGE_CURVE('',#727,#728,#915,.T.);
#596=EDGE_CURVE('',#729,#728,#916,.T.);
#597=EDGE_CURVE('',#729,#730,#917,.T.);
#598=EDGE_CURVE('',#730,#727,#918,.T.);
#599=EDGE_CURVE('',#731,#732,#919,.T.);
#600=EDGE_CURVE('',#732,#733,#920,.T.);
#601=EDGE_CURVE('',#734,#733,#921,.T.);
#602=EDGE_CURVE('',#731,#734,#922,.T.);
#603=EDGE_CURVE('',#734,#730,#923,.T.);
#604=EDGE_CURVE('',#729,#731,#924,.T.);
#605=EDGE_CURVE('',#728,#732,#925,.T.);
#606=EDGE_CURVE('',#733,#727,#926,.T.);
#607=VERTEX_POINT('',#1876);
#608=VERTEX_POINT('',#1877);
#609=VERTEX_POINT('',#1879);
#610=VERTEX_POINT('',#1881);
#611=VERTEX_POINT('',#1883);
#612=VERTEX_POINT('',#1885);
#613=VERTEX_POINT('',#1887);
#614=VERTEX_POINT('',#1889);
#615=VERTEX_POINT('',#1891);
#616=VERTEX_POINT('',#1893);
#617=VERTEX_POINT('',#1895);
#618=VERTEX_POINT('',#1897);
#619=VERTEX_POINT('',#1899);
#620=VERTEX_POINT('',#1901);
#621=VERTEX_POINT('',#1903);
#622=VERTEX_POINT('',#1905);
#623=VERTEX_POINT('',#1907);
#624=VERTEX_POINT('',#1909);
#625=VERTEX_POINT('',#1911);
#626=VERTEX_POINT('',#1913);
#627=VERTEX_POINT('',#1917);
#628=VERTEX_POINT('',#1918);
#629=VERTEX_POINT('',#1920);
#630=VERTEX_POINT('',#1922);
#631=VERTEX_POINT('',#1924);
#632=VERTEX_POINT('',#1926);
#633=VERTEX_POINT('',#1928);
#634=VERTEX_POINT('',#1930);
#635=VERTEX_POINT('',#1932);
#636=VERTEX_POINT('',#1934);
#637=VERTEX_POINT('',#1936);
#638=VERTEX_POINT('',#1938);
#639=VERTEX_POINT('',#1940);
#640=VERTEX_POINT('',#1942);
#641=VERTEX_POINT('',#1944);
#642=VERTEX_POINT('',#1946);
#643=VERTEX_POINT('',#1948);
#644=VERTEX_POINT('',#1950);
#645=VERTEX_POINT('',#1952);
#646=VERTEX_POINT('',#1954);
#647=VERTEX_POINT('',#1958);
#648=VERTEX_POINT('',#1959);
#649=VERTEX_POINT('',#1961);
#650=VERTEX_POINT('',#1963);
#651=VERTEX_POINT('',#1967);
#652=VERTEX_POINT('',#1969);
#653=VERTEX_POINT('',#1973);
#654=VERTEX_POINT('',#1975);
#655=VERTEX_POINT('',#1979);
#656=VERTEX_POINT('',#1980);
#657=VERTEX_POINT('',#1982);
#658=VERTEX_POINT('',#1984);
#659=VERTEX_POINT('',#1988);
#660=VERTEX_POINT('',#1990);
#661=VERTEX_POINT('',#1994);
#662=VERTEX_POINT('',#1996);
#663=VERTEX_POINT('',#2000);
#664=VERTEX_POINT('',#2001);
#665=VERTEX_POINT('',#2003);
#666=VERTEX_POINT('',#2005);
#667=VERTEX_POINT('',#2009);
#668=VERTEX_POINT('',#2011);
#669=VERTEX_POINT('',#2015);
#670=VERTEX_POINT('',#2017);
#671=VERTEX_POINT('',#2021);
#672=VERTEX_POINT('',#2022);
#673=VERTEX_POINT('',#2024);
#674=VERTEX_POINT('',#2026);
#675=VERTEX_POINT('',#2030);
#676=VERTEX_POINT('',#2032);
#677=VERTEX_POINT('',#2036);
#678=VERTEX_POINT('',#2038);
#679=VERTEX_POINT('',#2095);
#680=VERTEX_POINT('',#2096);
#681=VERTEX_POINT('',#2098);
#682=VERTEX_POINT('',#2100);
#683=VERTEX_POINT('',#2102);
#684=VERTEX_POINT('',#2104);
#685=VERTEX_POINT('',#2108);
#686=VERTEX_POINT('',#2109);
#687=VERTEX_POINT('',#2111);
#688=VERTEX_POINT('',#2113);
#689=VERTEX_POINT('',#2115);
#690=VERTEX_POINT('',#2117);
#691=VERTEX_POINT('',#2121);
#692=VERTEX_POINT('',#2122);
#693=VERTEX_POINT('',#2124);
#694=VERTEX_POINT('',#2126);
#695=VERTEX_POINT('',#2128);
#696=VERTEX_POINT('',#2130);
#697=VERTEX_POINT('',#2134);
#698=VERTEX_POINT('',#2135);
#699=VERTEX_POINT('',#2137);
#700=VERTEX_POINT('',#2139);
#701=VERTEX_POINT('',#2141);
#702=VERTEX_POINT('',#2143);
#703=VERTEX_POINT('',#2147);
#704=VERTEX_POINT('',#2148);
#705=VERTEX_POINT('',#2150);
#706=VERTEX_POINT('',#2152);
#707=VERTEX_POINT('',#2154);
#708=VERTEX_POINT('',#2156);
#709=VERTEX_POINT('',#2160);
#710=VERTEX_POINT('',#2161);
#711=VERTEX_POINT('',#2163);
#712=VERTEX_POINT('',#2165);
#713=VERTEX_POINT('',#2167);
#714=VERTEX_POINT('',#2169);
#715=VERTEX_POINT('',#2173);
#716=VERTEX_POINT('',#2174);
#717=VERTEX_POINT('',#2176);
#718=VERTEX_POINT('',#2178);
#719=VERTEX_POINT('',#2180);
#720=VERTEX_POINT('',#2182);
#721=VERTEX_POINT('',#2186);
#722=VERTEX_POINT('',#2187);
#723=VERTEX_POINT('',#2189);
#724=VERTEX_POINT('',#2191);
#725=VERTEX_POINT('',#2193);
#726=VERTEX_POINT('',#2195);
#727=VERTEX_POINT('',#2235);
#728=VERTEX_POINT('',#2236);
#729=VERTEX_POINT('',#2238);
#730=VERTEX_POINT('',#2240);
#731=VERTEX_POINT('',#2244);
#732=VERTEX_POINT('',#2245);
#733=VERTEX_POINT('',#2247);
#734=VERTEX_POINT('',#2249);
#735=LINE('',#1875,#927);
#736=LINE('',#1878,#928);
#737=LINE('',#1880,#929);
#738=LINE('',#1882,#930);
#739=LINE('',#1884,#931);
#740=LINE('',#1886,#932);
#741=LINE('',#1888,#933);
#742=LINE('',#1890,#934);
#743=LINE('',#1892,#935);
#744=LINE('',#1894,#936);
#745=LINE('',#1896,#937);
#746=LINE('',#1898,#938);
#747=LINE('',#1900,#939);
#748=LINE('',#1902,#940);
#749=LINE('',#1904,#941);
#750=LINE('',#1906,#942);
#751=LINE('',#1908,#943);
#752=LINE('',#1910,#944);
#753=LINE('',#1912,#945);
#754=LINE('',#1914,#946);
#755=LINE('',#1916,#947);
#756=LINE('',#1919,#948);
#757=LINE('',#1921,#949);
#758=LINE('',#1923,#950);
#759=LINE('',#1925,#951);
#760=LINE('',#1927,#952);
#761=LINE('',#1929,#953);
#762=LINE('',#1931,#954);
#763=LINE('',#1933,#955);
#764=LINE('',#1935,#956);
#765=LINE('',#1937,#957);
#766=LINE('',#1939,#958);
#767=LINE('',#1941,#959);
#768=LINE('',#1943,#960);
#769=LINE('',#1945,#961);
#770=LINE('',#1947,#962);
#771=LINE('',#1949,#963);
#772=LINE('',#1951,#964);
#773=LINE('',#1953,#965);
#774=LINE('',#1955,#966);
#775=LINE('',#1957,#967);
#776=LINE('',#1960,#968);
#777=LINE('',#1962,#969);
#778=LINE('',#1964,#970);
#779=LINE('',#1966,#971);
#780=LINE('',#1968,#972);
#781=LINE('',#1970,#973);
#782=LINE('',#1972,#974);
#783=LINE('',#1974,#975);
#784=LINE('',#1976,#976);
#785=LINE('',#1978,#977);
#786=LINE('',#1981,#978);
#787=LINE('',#1983,#979);
#788=LINE('',#1985,#980);
#789=LINE('',#1987,#981);
#790=LINE('',#1989,#982);
#791=LINE('',#1991,#983);
#792=LINE('',#1993,#984);
#793=LINE('',#1995,#985);
#794=LINE('',#1997,#986);
#795=LINE('',#1999,#987);
#796=LINE('',#2002,#988);
#797=LINE('',#2004,#989);
#798=LINE('',#2006,#990);
#799=LINE('',#2008,#991);
#800=LINE('',#2010,#992);
#801=LINE('',#2012,#993);
#802=LINE('',#2014,#994);
#803=LINE('',#2016,#995);
#804=LINE('',#2018,#996);
#805=LINE('',#2020,#997);
#806=LINE('',#2023,#998);
#807=LINE('',#2025,#999);
#808=LINE('',#2027,#1000);
#809=LINE('',#2029,#1001);
#810=LINE('',#2031,#1002);
#811=LINE('',#2033,#1003);
#812=LINE('',#2035,#1004);
#813=LINE('',#2037,#1005);
#814=LINE('',#2039,#1006);
#815=LINE('',#2041,#1007);
#816=LINE('',#2042,#1008);
#817=LINE('',#2044,#1009);
#818=LINE('',#2045,#1010);
#819=LINE('',#2047,#1011);
#820=LINE('',#2048,#1012);
#821=LINE('',#2050,#1013);
#822=LINE('',#2051,#1014);
#823=LINE('',#2053,#1015);
#824=LINE('',#2054,#1016);
#825=LINE('',#2056,#1017);
#826=LINE('',#2057,#1018);
#827=LINE('',#2059,#1019);
#828=LINE('',#2060,#1020);
#829=LINE('',#2062,#1021);
#830=LINE('',#2063,#1022);
#831=LINE('',#2065,#1023);
#832=LINE('',#2066,#1024);
#833=LINE('',#2068,#1025);
#834=LINE('',#2070,#1026);
#835=LINE('',#2073,#1027);
#836=LINE('',#2075,#1028);
#837=LINE('',#2078,#1029);
#838=LINE('',#2080,#1030);
#839=LINE('',#2083,#1031);
#840=LINE('',#2085,#1032);
#841=LINE('',#2088,#1033);
#842=LINE('',#2089,#1034);
#843=LINE('',#2094,#1035);
#844=LINE('',#2097,#1036);
#845=LINE('',#2099,#1037);
#846=LINE('',#2101,#1038);
#847=LINE('',#2103,#1039);
#848=LINE('',#2105,#1040);
#849=LINE('',#2107,#1041);
#850=LINE('',#2110,#1042);
#851=LINE('',#2112,#1043);
#852=LINE('',#2114,#1044);
#853=LINE('',#2116,#1045);
#854=LINE('',#2118,#1046);
#855=LINE('',#2120,#1047);
#856=LINE('',#2123,#1048);
#857=LINE('',#2125,#1049);
#858=LINE('',#2127,#1050);
#859=LINE('',#2129,#1051);
#860=LINE('',#2131,#1052);
#861=LINE('',#2133,#1053);
#862=LINE('',#2136,#1054);
#863=LINE('',#2138,#1055);
#864=LINE('',#2140,#1056);
#865=LINE('',#2142,#1057);
#866=LINE('',#2144,#1058);
#867=LINE('',#2146,#1059);
#868=LINE('',#2149,#1060);
#869=LINE('',#2151,#1061);
#870=LINE('',#2153,#1062);
#871=LINE('',#2155,#1063);
#872=LINE('',#2157,#1064);
#873=LINE('',#2159,#1065);
#874=LINE('',#2162,#1066);
#875=LINE('',#2164,#1067);
#876=LINE('',#2166,#1068);
#877=LINE('',#2168,#1069);
#878=LINE('',#2170,#1070);
#879=LINE('',#2172,#1071);
#880=LINE('',#2175,#1072);
#881=LINE('',#2177,#1073);
#882=LINE('',#2179,#1074);
#883=LINE('',#2181,#1075);
#884=LINE('',#2183,#1076);
#885=LINE('',#2185,#1077);
#886=LINE('',#2188,#1078);
#887=LINE('',#2190,#1079);
#888=LINE('',#2192,#1080);
#889=LINE('',#2194,#1081);
#890=LINE('',#2196,#1082);
#891=LINE('',#2198,#1083);
#892=LINE('',#2199,#1084);
#893=LINE('',#2201,#1085);
#894=LINE('',#2202,#1086);
#895=LINE('',#2204,#1087);
#896=LINE('',#2205,#1088);
#897=LINE('',#2207,#1089);
#898=LINE('',#2208,#1090);
#899=LINE('',#2210,#1091);
#900=LINE('',#2211,#1092);
#901=LINE('',#2213,#1093);
#902=LINE('',#2214,#1094);
#903=LINE('',#2216,#1095);
#904=LINE('',#2217,#1096);
#905=LINE('',#2219,#1097);
#906=LINE('',#2220,#1098);
#907=LINE('',#2222,#1099);
#908=LINE('',#2223,#1100);
#909=LINE('',#2225,#1101);
#910=LINE('',#2226,#1102);
#911=LINE('',#2228,#1103);
#912=LINE('',#2229,#1104);
#913=LINE('',#2231,#1105);
#914=LINE('',#2232,#1106);
#915=LINE('',#2234,#1107);
#916=LINE('',#2237,#1108);
#917=LINE('',#2239,#1109);
#918=LINE('',#2241,#1110);
#919=LINE('',#2243,#1111);
#920=LINE('',#2246,#1112);
#921=LINE('',#2248,#1113);
#922=LINE('',#2250,#1114);
#923=LINE('',#2252,#1115);
#924=LINE('',#2253,#1116);
#925=LINE('',#2255,#1117);
#926=LINE('',#2257,#1118);
#927=VECTOR('',#1535,39.3700787401575);
#928=VECTOR('',#1536,39.3700787401575);
#929=VECTOR('',#1537,39.3700787401575);
#930=VECTOR('',#1538,39.3700787401575);
#931=VECTOR('',#1539,39.3700787401575);
#932=VECTOR('',#1540,39.3700787401575);
#933=VECTOR('',#1541,39.3700787401575);
#934=VECTOR('',#1542,39.3700787401575);
#935=VECTOR('',#1543,39.3700787401575);
#936=VECTOR('',#1544,39.3700787401575);
#937=VECTOR('',#1545,39.3700787401575);
#938=VECTOR('',#1546,39.3700787401575);
#939=VECTOR('',#1547,39.3700787401575);
#940=VECTOR('',#1548,39.3700787401575);
#941=VECTOR('',#1549,39.3700787401575);
#942=VECTOR('',#1550,39.3700787401575);
#943=VECTOR('',#1551,39.3700787401575);
#944=VECTOR('',#1552,39.3700787401575);
#945=VECTOR('',#1553,39.3700787401575);
#946=VECTOR('',#1554,39.3700787401575);
#947=VECTOR('',#1557,39.3700787401575);
#948=VECTOR('',#1558,39.3700787401575);
#949=VECTOR('',#1559,39.3700787401575);
#950=VECTOR('',#1560,39.3700787401575);
#951=VECTOR('',#1561,39.3700787401575);
#952=VECTOR('',#1562,39.3700787401575);
#953=VECTOR('',#1563,39.3700787401575);
#954=VECTOR('',#1564,39.3700787401575);
#955=VECTOR('',#1565,39.3700787401575);
#956=VECTOR('',#1566,39.3700787401575);
#957=VECTOR('',#1567,39.3700787401575);
#958=VECTOR('',#1568,39.3700787401575);
#959=VECTOR('',#1569,39.3700787401575);
#960=VECTOR('',#1570,39.3700787401575);
#961=VECTOR('',#1571,39.3700787401575);
#962=VECTOR('',#1572,39.3700787401575);
#963=VECTOR('',#1573,39.3700787401575);
#964=VECTOR('',#1574,39.3700787401575);
#965=VECTOR('',#1575,39.3700787401575);
#966=VECTOR('',#1576,39.3700787401575);
#967=VECTOR('',#1579,39.3700787401575);
#968=VECTOR('',#1580,39.3700787401575);
#969=VECTOR('',#1581,39.3700787401575);
#970=VECTOR('',#1582,39.3700787401575);
#971=VECTOR('',#1585,39.3700787401575);
#972=VECTOR('',#1586,39.3700787401575);
#973=VECTOR('',#1587,39.3700787401575);
#974=VECTOR('',#1590,39.3700787401575);
#975=VECTOR('',#1591,39.3700787401575);
#976=VECTOR('',#1592,39.3700787401575);
#977=VECTOR('',#1595,39.3700787401575);
#978=VECTOR('',#1596,39.3700787401575);
#979=VECTOR('',#1597,39.3700787401575);
#980=VECTOR('',#1598,39.3700787401575);
#981=VECTOR('',#1601,39.3700787401575);
#982=VECTOR('',#1602,39.3700787401575);
#983=VECTOR('',#1603,39.3700787401575);
#984=VECTOR('',#1606,39.3700787401575);
#985=VECTOR('',#1607,39.3700787401575);
#986=VECTOR('',#1608,39.3700787401575);
#987=VECTOR('',#1611,39.3700787401575);
#988=VECTOR('',#1612,39.3700787401575);
#989=VECTOR('',#1613,39.3700787401575);
#990=VECTOR('',#1614,39.3700787401575);
#991=VECTOR('',#1617,39.3700787401575);
#992=VECTOR('',#1618,39.3700787401575);
#993=VECTOR('',#1619,39.3700787401575);
#994=VECTOR('',#1622,39.3700787401575);
#995=VECTOR('',#1623,39.3700787401575);
#996=VECTOR('',#1624,39.3700787401575);
#997=VECTOR('',#1627,39.3700787401575);
#998=VECTOR('',#1628,39.3700787401575);
#999=VECTOR('',#1629,39.3700787401575);
#1000=VECTOR('',#1630,39.3700787401575);
#1001=VECTOR('',#1633,39.3700787401575);
#1002=VECTOR('',#1634,39.3700787401575);
#1003=VECTOR('',#1635,39.3700787401575);
#1004=VECTOR('',#1638,39.3700787401575);
#1005=VECTOR('',#1639,39.3700787401575);
#1006=VECTOR('',#1640,39.3700787401575);
#1007=VECTOR('',#1643,39.3700787401575);
#1008=VECTOR('',#1644,39.3700787401575);
#1009=VECTOR('',#1647,39.3700787401575);
#1010=VECTOR('',#1648,39.3700787401575);
#1011=VECTOR('',#1651,39.3700787401575);
#1012=VECTOR('',#1652,39.3700787401575);
#1013=VECTOR('',#1655,39.3700787401575);
#1014=VECTOR('',#1656,39.3700787401575);
#1015=VECTOR('',#1659,39.3700787401575);
#1016=VECTOR('',#1660,39.3700787401575);
#1017=VECTOR('',#1663,39.3700787401575);
#1018=VECTOR('',#1664,39.3700787401575);
#1019=VECTOR('',#1667,39.3700787401575);
#1020=VECTOR('',#1668,39.3700787401575);
#1021=VECTOR('',#1671,39.3700787401575);
#1022=VECTOR('',#1672,39.3700787401575);
#1023=VECTOR('',#1675,39.3700787401575);
#1024=VECTOR('',#1676,39.3700787401575);
#1025=VECTOR('',#1679,39.3700787401575);
#1026=VECTOR('',#1682,39.3700787401575);
#1027=VECTOR('',#1687,39.3700787401575);
#1028=VECTOR('',#1690,39.3700787401575);
#1029=VECTOR('',#1695,39.3700787401575);
#1030=VECTOR('',#1698,39.3700787401575);
#1031=VECTOR('',#1703,39.3700787401575);
#1032=VECTOR('',#1706,39.3700787401575);
#1033=VECTOR('',#1711,39.3700787401575);
#1034=VECTOR('',#1712,39.3700787401575);
#1035=VECTOR('',#1721,39.3700787401575);
#1036=VECTOR('',#1722,39.3700787401575);
#1037=VECTOR('',#1723,39.3700787401575);
#1038=VECTOR('',#1724,39.3700787401575);
#1039=VECTOR('',#1725,39.3700787401575);
#1040=VECTOR('',#1726,39.3700787401575);
#1041=VECTOR('',#1729,39.3700787401575);
#1042=VECTOR('',#1730,39.3700787401575);
#1043=VECTOR('',#1731,39.3700787401575);
#1044=VECTOR('',#1732,39.3700787401575);
#1045=VECTOR('',#1733,39.3700787401575);
#1046=VECTOR('',#1734,39.3700787401575);
#1047=VECTOR('',#1737,39.3700787401575);
#1048=VECTOR('',#1738,39.3700787401575);
#1049=VECTOR('',#1739,39.3700787401575);
#1050=VECTOR('',#1740,39.3700787401575);
#1051=VECTOR('',#1741,39.3700787401575);
#1052=VECTOR('',#1742,39.3700787401575);
#1053=VECTOR('',#1745,39.3700787401575);
#1054=VECTOR('',#1746,39.3700787401575);
#1055=VECTOR('',#1747,39.3700787401575);
#1056=VECTOR('',#1748,39.3700787401575);
#1057=VECTOR('',#1749,39.3700787401575);
#1058=VECTOR('',#1750,39.3700787401575);
#1059=VECTOR('',#1753,39.3700787401575);
#1060=VECTOR('',#1754,39.3700787401575);
#1061=VECTOR('',#1755,39.3700787401575);
#1062=VECTOR('',#1756,39.3700787401575);
#1063=VECTOR('',#1757,39.3700787401575);
#1064=VECTOR('',#1758,39.3700787401575);
#1065=VECTOR('',#1761,39.3700787401575);
#1066=VECTOR('',#1762,39.3700787401575);
#1067=VECTOR('',#1763,39.3700787401575);
#1068=VECTOR('',#1764,39.3700787401575);
#1069=VECTOR('',#1765,39.3700787401575);
#1070=VECTOR('',#1766,39.3700787401575);
#1071=VECTOR('',#1769,39.3700787401575);
#1072=VECTOR('',#1770,39.3700787401575);
#1073=VECTOR('',#1771,39.3700787401575);
#1074=VECTOR('',#1772,39.3700787401575);
#1075=VECTOR('',#1773,39.3700787401575);
#1076=VECTOR('',#1774,39.3700787401575);
#1077=VECTOR('',#1777,39.3700787401575);
#1078=VECTOR('',#1778,39.3700787401575);
#1079=VECTOR('',#1779,39.3700787401575);
#1080=VECTOR('',#1780,39.3700787401575);
#1081=VECTOR('',#1781,39.3700787401575);
#1082=VECTOR('',#1782,39.3700787401575);
#1083=VECTOR('',#1785,39.3700787401575);
#1084=VECTOR('',#1786,39.3700787401575);
#1085=VECTOR('',#1789,39.3700787401575);
#1086=VECTOR('',#1790,39.3700787401575);
#1087=VECTOR('',#1793,39.3700787401575);
#1088=VECTOR('',#1794,39.3700787401575);
#1089=VECTOR('',#1797,39.3700787401575);
#1090=VECTOR('',#1798,39.3700787401575);
#1091=VECTOR('',#1801,39.3700787401575);
#1092=VECTOR('',#1802,39.3700787401575);
#1093=VECTOR('',#1805,39.3700787401575);
#1094=VECTOR('',#1806,39.3700787401575);
#1095=VECTOR('',#1809,39.3700787401575);
#1096=VECTOR('',#1810,39.3700787401575);
#1097=VECTOR('',#1813,39.3700787401575);
#1098=VECTOR('',#1814,39.3700787401575);
#1099=VECTOR('',#1817,39.3700787401575);
#1100=VECTOR('',#1818,39.3700787401575);
#1101=VECTOR('',#1821,39.3700787401575);
#1102=VECTOR('',#1822,39.3700787401575);
#1103=VECTOR('',#1825,39.3700787401575);
#1104=VECTOR('',#1826,39.3700787401575);
#1105=VECTOR('',#1829,39.3700787401575);
#1106=VECTOR('',#1830,39.3700787401575);
#1107=VECTOR('',#1833,39.3700787401575);
#1108=VECTOR('',#1834,39.3700787401575);
#1109=VECTOR('',#1835,39.3700787401575);
#1110=VECTOR('',#1836,39.3700787401575);
#1111=VECTOR('',#1839,39.3700787401575);
#1112=VECTOR('',#1840,39.3700787401575);
#1113=VECTOR('',#1841,39.3700787401575);
#1114=VECTOR('',#1842,39.3700787401575);
#1115=VECTOR('',#1845,39.3700787401575);
#1116=VECTOR('',#1846,39.3700787401575);
#1117=VECTOR('',#1849,39.3700787401575);
#1118=VECTOR('',#1852,39.3700787401575);
#1119=EDGE_LOOP('',(#31,#32,#33,#34,#35,#36,#37,#38,#39,#40,#41,#42,#43,
#44,#45,#46,#47,#48,#49,#50));
#1120=EDGE_LOOP('',(#51,#52,#53,#54,#55,#56,#57,#58,#59,#60,#61,#62,#63,
#64,#65,#66,#67,#68,#69,#70));
#1121=EDGE_LOOP('',(#71,#72,#73,#74));
#1122=EDGE_LOOP('',(#75,#76,#77,#78));
#1123=EDGE_LOOP('',(#79,#80,#81,#82));
#1124=EDGE_LOOP('',(#83,#84,#85,#86));
#1125=EDGE_LOOP('',(#87,#88,#89,#90));
#1126=EDGE_LOOP('',(#91,#92,#93,#94));
#1127=EDGE_LOOP('',(#95,#96,#97,#98));
#1128=EDGE_LOOP('',(#99,#100,#101,#102));
#1129=EDGE_LOOP('',(#103,#104,#105,#106));
#1130=EDGE_LOOP('',(#107,#108,#109,#110));
#1131=EDGE_LOOP('',(#111,#112,#113,#114));
#1132=EDGE_LOOP('',(#115,#116,#117,#118));
#1133=EDGE_LOOP('',(#119,#120,#121,#122));
#1134=EDGE_LOOP('',(#123,#124,#125,#126));
#1135=EDGE_LOOP('',(#127,#128,#129,#130));
#1136=EDGE_LOOP('',(#131,#132,#133,#134));
#1137=EDGE_LOOP('',(#135,#136,#137,#138));
#1138=EDGE_LOOP('',(#139,#140,#141,#142));
#1139=EDGE_LOOP('',(#143,#144,#145,#146));
#1140=EDGE_LOOP('',(#147,#148,#149,#150));
#1141=EDGE_LOOP('',(#151,#152,#153,#154));
#1142=EDGE_LOOP('',(#155,#156,#157,#158));
#1143=EDGE_LOOP('',(#159,#160,#161,#162));
#1144=EDGE_LOOP('',(#163,#164,#165,#166));
#1145=EDGE_LOOP('',(#167,#168,#169,#170));
#1146=EDGE_LOOP('',(#171,#172,#173,#174));
#1147=EDGE_LOOP('',(#175,#176,#177,#178));
#1148=EDGE_LOOP('',(#179,#180,#181,#182));
#1149=EDGE_LOOP('',(#183,#184,#185,#186));
#1150=EDGE_LOOP('',(#187,#188,#189,#190));
#1151=EDGE_LOOP('',(#191,#192,#193,#194));
#1152=EDGE_LOOP('',(#195,#196,#197,#198));
#1153=EDGE_LOOP('',(#199,#200,#201,#202));
#1154=EDGE_LOOP('',(#203,#204,#205,#206));
#1155=EDGE_LOOP('',(#207,#208,#209,#210));
#1156=EDGE_LOOP('',(#211,#212,#213,#214));
#1157=EDGE_LOOP('',(#215,#216,#217,#218));
#1158=EDGE_LOOP('',(#219,#220,#221,#222));
#1159=EDGE_LOOP('',(#223,#224,#225,#226));
#1160=EDGE_LOOP('',(#227,#228,#229,#230));
#1161=EDGE_LOOP('',(#231,#232,#233,#234));
#1162=EDGE_LOOP('',(#235,#236,#237,#238));
#1163=EDGE_LOOP('',(#239,#240,#241,#242));
#1164=EDGE_LOOP('',(#243,#244,#245,#246));
#1165=EDGE_LOOP('',(#247,#248,#249,#250,#251,#252));
#1166=EDGE_LOOP('',(#253,#254,#255,#256,#257,#258));
#1167=EDGE_LOOP('',(#259,#260,#261,#262,#263,#264));
#1168=EDGE_LOOP('',(#265,#266,#267,#268,#269,#270));
#1169=EDGE_LOOP('',(#271,#272,#273,#274,#275,#276));
#1170=EDGE_LOOP('',(#277,#278,#279,#280,#281,#282));
#1171=EDGE_LOOP('',(#283,#284,#285,#286,#287,#288));
#1172=EDGE_LOOP('',(#289,#290,#291,#292,#293,#294));
#1173=EDGE_LOOP('',(#295,#296,#297,#298));
#1174=EDGE_LOOP('',(#299,#300,#301,#302));
#1175=EDGE_LOOP('',(#303,#304,#305,#306));
#1176=EDGE_LOOP('',(#307,#308,#309,#310));
#1177=EDGE_LOOP('',(#311,#312,#313,#314));
#1178=EDGE_LOOP('',(#315,#316,#317,#318));
#1179=EDGE_LOOP('',(#319,#320,#321,#322));
#1180=EDGE_LOOP('',(#323,#324,#325,#326));
#1181=EDGE_LOOP('',(#327,#328,#329,#330));
#1182=EDGE_LOOP('',(#331,#332,#333,#334));
#1183=EDGE_LOOP('',(#335,#336,#337,#338));
#1184=EDGE_LOOP('',(#339,#340,#341,#342));
#1185=EDGE_LOOP('',(#343,#344,#345,#346));
#1186=EDGE_LOOP('',(#347,#348,#349,#350));
#1187=EDGE_LOOP('',(#351,#352,#353,#354));
#1188=EDGE_LOOP('',(#355,#356,#357,#358));
#1189=EDGE_LOOP('',(#359,#360,#361,#362));
#1190=EDGE_LOOP('',(#363,#364,#365,#366));
#1191=EDGE_LOOP('',(#367,#368,#369,#370));
#1192=EDGE_LOOP('',(#371,#372,#373,#374));
#1193=EDGE_LOOP('',(#375,#376,#377,#378));
#1194=EDGE_LOOP('',(#379,#380,#381,#382));
#1195=EDGE_LOOP('',(#383,#384,#385,#386));
#1196=EDGE_LOOP('',(#387,#388,#389,#390));
#1197=EDGE_LOOP('',(#391,#392,#393,#394));
#1198=EDGE_LOOP('',(#395,#396,#397,#398));
#1199=EDGE_LOOP('',(#399,#400,#401,#402));
#1200=EDGE_LOOP('',(#403,#404,#405,#406));
#1201=EDGE_LOOP('',(#407,#408,#409,#410));
#1202=EDGE_LOOP('',(#411,#412,#413,#414));
#1203=FACE_BOUND('',#1119,.T.);
#1204=FACE_BOUND('',#1120,.T.);
#1205=FACE_BOUND('',#1121,.T.);
#1206=FACE_BOUND('',#1122,.T.);
#1207=FACE_BOUND('',#1123,.T.);
#1208=FACE_BOUND('',#1124,.T.);
#1209=FACE_BOUND('',#1125,.T.);
#1210=FACE_BOUND('',#1126,.T.);
#1211=FACE_BOUND('',#1127,.T.);
#1212=FACE_BOUND('',#1128,.T.);
#1213=FACE_BOUND('',#1129,.T.);
#1214=FACE_BOUND('',#1130,.T.);
#1215=FACE_BOUND('',#1131,.T.);
#1216=FACE_BOUND('',#1132,.T.);
#1217=FACE_BOUND('',#1133,.T.);
#1218=FACE_BOUND('',#1134,.T.);
#1219=FACE_BOUND('',#1135,.T.);
#1220=FACE_BOUND('',#1136,.T.);
#1221=FACE_BOUND('',#1137,.T.);
#1222=FACE_BOUND('',#1138,.T.);
#1223=FACE_BOUND('',#1139,.T.);
#1224=FACE_BOUND('',#1140,.T.);
#1225=FACE_BOUND('',#1141,.T.);
#1226=FACE_BOUND('',#1142,.T.);
#1227=FACE_BOUND('',#1143,.T.);
#1228=FACE_BOUND('',#1144,.T.);
#1229=FACE_BOUND('',#1145,.T.);
#1230=FACE_BOUND('',#1146,.T.);
#1231=FACE_BOUND('',#1147,.T.);
#1232=FACE_BOUND('',#1148,.T.);
#1233=FACE_BOUND('',#1149,.T.);
#1234=FACE_BOUND('',#1150,.T.);
#1235=FACE_BOUND('',#1151,.T.);
#1236=FACE_BOUND('',#1152,.T.);
#1237=FACE_BOUND('',#1153,.T.);
#1238=FACE_BOUND('',#1154,.T.);
#1239=FACE_BOUND('',#1155,.T.);
#1240=FACE_BOUND('',#1156,.T.);
#1241=FACE_BOUND('',#1157,.T.);
#1242=FACE_BOUND('',#1158,.T.);
#1243=FACE_BOUND('',#1159,.T.);
#1244=FACE_BOUND('',#1160,.T.);
#1245=FACE_BOUND('',#1161,.T.);
#1246=FACE_BOUND('',#1162,.T.);
#1247=FACE_BOUND('',#1163,.T.);
#1248=FACE_BOUND('',#1164,.T.);
#1249=FACE_BOUND('',#1165,.T.);
#1250=FACE_BOUND('',#1166,.T.);
#1251=FACE_BOUND('',#1167,.T.);
#1252=FACE_BOUND('',#1168,.T.);
#1253=FACE_BOUND('',#1169,.T.);
#1254=FACE_BOUND('',#1170,.T.);
#1255=FACE_BOUND('',#1171,.T.);
#1256=FACE_BOUND('',#1172,.T.);
#1257=FACE_BOUND('',#1173,.T.);
#1258=FACE_BOUND('',#1174,.T.);
#1259=FACE_BOUND('',#1175,.T.);
#1260=FACE_BOUND('',#1176,.T.);
#1261=FACE_BOUND('',#1177,.T.);
#1262=FACE_BOUND('',#1178,.T.);
#1263=FACE_BOUND('',#1179,.T.);
#1264=FACE_BOUND('',#1180,.T.);
#1265=FACE_BOUND('',#1181,.T.);
#1266=FACE_BOUND('',#1182,.T.);
#1267=FACE_BOUND('',#1183,.T.);
#1268=FACE_BOUND('',#1184,.T.);
#1269=FACE_BOUND('',#1185,.T.);
#1270=FACE_BOUND('',#1186,.T.);
#1271=FACE_BOUND('',#1187,.T.);
#1272=FACE_BOUND('',#1188,.T.);
#1273=FACE_BOUND('',#1189,.T.);
#1274=FACE_BOUND('',#1190,.T.);
#1275=FACE_BOUND('',#1191,.T.);
#1276=FACE_BOUND('',#1192,.T.);
#1277=FACE_BOUND('',#1193,.T.);
#1278=FACE_BOUND('',#1194,.T.);
#1279=FACE_BOUND('',#1195,.T.);
#1280=FACE_BOUND('',#1196,.T.);
#1281=FACE_BOUND('',#1197,.T.);
#1282=FACE_BOUND('',#1198,.T.);
#1283=FACE_BOUND('',#1199,.T.);
#1284=FACE_BOUND('',#1200,.T.);
#1285=FACE_BOUND('',#1201,.T.);
#1286=FACE_BOUND('',#1202,.T.);
#1287=PLANE('',#1457);
#1288=PLANE('',#1458);
#1289=PLANE('',#1459);
#1290=PLANE('',#1460);
#1291=PLANE('',#1461);
#1292=PLANE('',#1462);
#1293=PLANE('',#1463);
#1294=PLANE('',#1464);
#1295=PLANE('',#1465);
#1296=PLANE('',#1466);
#1297=PLANE('',#1467);
#1298=PLANE('',#1468);
#1299=PLANE('',#1469);
#1300=PLANE('',#1470);
#1301=PLANE('',#1471);
#1302=PLANE('',#1472);
#1303=PLANE('',#1473);
#1304=PLANE('',#1474);
#1305=PLANE('',#1475);
#1306=PLANE('',#1476);
#1307=PLANE('',#1477);
#1308=PLANE('',#1478);
#1309=PLANE('',#1479);
#1310=PLANE('',#1480);
#1311=PLANE('',#1481);
#1312=PLANE('',#1482);
#1313=PLANE('',#1483);
#1314=PLANE('',#1484);
#1315=PLANE('',#1485);
#1316=PLANE('',#1486);
#1317=PLANE('',#1487);
#1318=PLANE('',#1488);
#1319=PLANE('',#1489);
#1320=PLANE('',#1490);
#1321=PLANE('',#1491);
#1322=PLANE('',#1492);
#1323=PLANE('',#1493);
#1324=PLANE('',#1494);
#1325=PLANE('',#1496);
#1326=PLANE('',#1497);
#1327=PLANE('',#1498);
#1328=PLANE('',#1499);
#1329=PLANE('',#1500);
#1330=PLANE('',#1501);
#1331=PLANE('',#1502);
#1332=PLANE('',#1503);
#1333=PLANE('',#1504);
#1334=PLANE('',#1505);
#1335=PLANE('',#1506);
#1336=PLANE('',#1507);
#1337=PLANE('',#1508);
#1338=PLANE('',#1509);
#1339=PLANE('',#1510);
#1340=PLANE('',#1511);
#1341=PLANE('',#1512);
#1342=PLANE('',#1513);
#1343=PLANE('',#1514);
#1344=PLANE('',#1515);
#1345=PLANE('',#1516);
#1346=PLANE('',#1517);
#1347=PLANE('',#1518);
#1348=PLANE('',#1519);
#1349=PLANE('',#1520);
#1350=PLANE('',#1521);
#1351=PLANE('',#1522);
#1352=PLANE('',#1523);
#1353=PLANE('',#1524);
#1354=PLANE('',#1525);
#1355=PLANE('',#1526);
#1356=PLANE('',#1527);
#1357=PLANE('',#1528);
#1358=PLANE('',#1529);
#1359=ADVANCED_FACE('',(#1203),#1287,.F.);
#1360=ADVANCED_FACE('',(#1204),#1288,.F.);
#1361=ADVANCED_FACE('',(#1205),#1289,.T.);
#1362=ADVANCED_FACE('',(#1206),#1290,.T.);
#1363=ADVANCED_FACE('',(#1207),#1291,.T.);
#1364=ADVANCED_FACE('',(#1208),#1292,.T.);
#1365=ADVANCED_FACE('',(#1209),#1293,.T.);
#1366=ADVANCED_FACE('',(#1210),#1294,.T.);
#1367=ADVANCED_FACE('',(#1211),#1295,.T.);
#1368=ADVANCED_FACE('',(#1212),#1296,.T.);
#1369=ADVANCED_FACE('',(#1213),#1297,.T.);
#1370=ADVANCED_FACE('',(#1214),#1298,.T.);
#1371=ADVANCED_FACE('',(#1215),#1299,.T.);
#1372=ADVANCED_FACE('',(#1216),#1300,.T.);
#1373=ADVANCED_FACE('',(#1217),#1301,.T.);
#1374=ADVANCED_FACE('',(#1218),#1302,.T.);
#1375=ADVANCED_FACE('',(#1219),#1303,.T.);
#1376=ADVANCED_FACE('',(#1220),#1304,.T.);
#1377=ADVANCED_FACE('',(#1221),#1305,.F.);
#1378=ADVANCED_FACE('',(#1222),#1306,.F.);
#1379=ADVANCED_FACE('',(#1223),#1307,.F.);
#1380=ADVANCED_FACE('',(#1224),#1308,.F.);
#1381=ADVANCED_FACE('',(#1225),#1309,.F.);
#1382=ADVANCED_FACE('',(#1226),#1310,.F.);
#1383=ADVANCED_FACE('',(#1227),#1311,.F.);
#1384=ADVANCED_FACE('',(#1228,#1229,#1230,#1231,#1232),#1312,.T.);
#1385=ADVANCED_FACE('',(#1233),#1313,.T.);
#1386=ADVANCED_FACE('',(#1234),#1314,.T.);
#1387=ADVANCED_FACE('',(#1235,#1236),#1315,.T.);
#1388=ADVANCED_FACE('',(#1237),#1316,.T.);
#1389=ADVANCED_FACE('',(#1238),#1317,.T.);
#1390=ADVANCED_FACE('',(#1239,#1240),#1318,.T.);
#1391=ADVANCED_FACE('',(#1241),#1319,.T.);
#1392=ADVANCED_FACE('',(#1242),#1320,.T.);
#1393=ADVANCED_FACE('',(#1243,#1244),#1321,.T.);
#1394=ADVANCED_FACE('',(#1245,#1246),#1322,.T.);
#1395=ADVANCED_FACE('',(#1247),#1323,.T.);
#1396=ADVANCED_FACE('',(#1248),#1324,.T.);
#1397=ADVANCED_FACE('',(#1249),#1325,.F.);
#1398=ADVANCED_FACE('',(#1250),#1326,.F.);
#1399=ADVANCED_FACE('',(#1251),#1327,.F.);
#1400=ADVANCED_FACE('',(#1252),#1328,.F.);
#1401=ADVANCED_FACE('',(#1253),#1329,.F.);
#1402=ADVANCED_FACE('',(#1254),#1330,.F.);
#1403=ADVANCED_FACE('',(#1255),#1331,.F.);
#1404=ADVANCED_FACE('',(#1256),#1332,.F.);
#1405=ADVANCED_FACE('',(#1257),#1333,.F.);
#1406=ADVANCED_FACE('',(#1258),#1334,.F.);
#1407=ADVANCED_FACE('',(#1259),#1335,.F.);
#1408=ADVANCED_FACE('',(#1260),#1336,.F.);
#1409=ADVANCED_FACE('',(#1261),#1337,.T.);
#1410=ADVANCED_FACE('',(#1262),#1338,.T.);
#1411=ADVANCED_FACE('',(#1263),#1339,.T.);
#1412=ADVANCED_FACE('',(#1264),#1340,.T.);
#1413=ADVANCED_FACE('',(#1265),#1341,.T.);
#1414=ADVANCED_FACE('',(#1266),#1342,.T.);
#1415=ADVANCED_FACE('',(#1267),#1343,.T.);
#1416=ADVANCED_FACE('',(#1268),#1344,.T.);
#1417=ADVANCED_FACE('',(#1269),#1345,.T.);
#1418=ADVANCED_FACE('',(#1270),#1346,.F.);
#1419=ADVANCED_FACE('',(#1271),#1347,.F.);
#1420=ADVANCED_FACE('',(#1272),#1348,.F.);
#1421=ADVANCED_FACE('',(#1273,#1274,#1275,#1276,#1277),#1349,.F.);
#1422=ADVANCED_FACE('',(#1278),#1350,.F.);
#1423=ADVANCED_FACE('',(#1279),#1351,.T.);
#1424=ADVANCED_FACE('',(#1280),#1352,.T.);
#1425=ADVANCED_FACE('',(#1281),#1353,.T.);
#1426=ADVANCED_FACE('',(#1282),#1354,.T.);
#1427=ADVANCED_FACE('',(#1283),#1355,.T.);
#1428=ADVANCED_FACE('',(#1284),#1356,.T.);
#1429=ADVANCED_FACE('',(#1285),#1357,.T.);
#1430=ADVANCED_FACE('',(#1286),#1358,.T.);
#1431=CLOSED_SHELL('',(#1359,#1360,#1361,#1362,#1363,#1364,#1365,#1366,
#1367,#1368,#1369,#1370,#1371,#1372,#1373,#1374,#1375,#1376,#1377,#1378,
#1379,#1380,#1381,#1382,#1383,#1384,#1385,#1386,#1387,#1388,#1389,#1390,
#1391,#1392,#1393,#1394,#1395,#1396));
#1432=CLOSED_SHELL('',(#1397,#1398,#1399,#1400,#1401,#1402,#1403,#1404,
#1405,#1406,#1407,#1408,#1409,#1410,#1411,#1412,#1413,#1414,#1415,#1416,
#1417,#1418,#1419,#1420,#1421,#1422,#1423,#1424,#1425,#1426,#1427,#1428,
#1429,#1430));
#1433=STYLED_ITEM('',(#1435),#1448);
#1434=STYLED_ITEM('',(#1436),#1449);
#1435=PRESENTATION_STYLE_ASSIGNMENT((#1437));
#1436=PRESENTATION_STYLE_ASSIGNMENT((#1438));
#1437=SURFACE_STYLE_USAGE(.BOTH.,#1439);
#1438=SURFACE_STYLE_USAGE(.BOTH.,#1440);
#1439=SURFACE_SIDE_STYLE('',(#1441));
#1440=SURFACE_SIDE_STYLE('',(#1442));
#1441=SURFACE_STYLE_FILL_AREA(#1443);
#1442=SURFACE_STYLE_FILL_AREA(#1444);
#1443=FILL_AREA_STYLE('',(#1445));
#1444=FILL_AREA_STYLE('',(#1446));
#1445=FILL_AREA_STYLE_COLOUR('',#1447);
#1446=FILL_AREA_STYLE_COLOUR('',#18);
#1447=COLOUR_RGB('',0.689999997615814,0.689999997615814,0.689999997615814);
#1448=MANIFOLD_SOLID_BREP('T1SSW-104-01-F-S',#1431);
#1449=MANIFOLD_SOLID_BREP('P2SSW-104-01-F-S',#1432);
#1450=SHAPE_DEFINITION_REPRESENTATION(#2281,#1453);
#1451=SHAPE_DEFINITION_REPRESENTATION(#2282,#1454);
#1452=SHAPE_DEFINITION_REPRESENTATION(#2284,#1455);
#1453=SHAPE_REPRESENTATION('SSW-104-01-F-S',(#1456,#1495,#1530),#2269);
#1454=SHAPE_REPRESENTATION('T1SSW-104-01-F-S',(#1456),#2270);
#1455=SHAPE_REPRESENTATION('P2SSW-104-01-F-S',(#1456),#2271);
#1456=AXIS2_PLACEMENT_3D('',#1873,#1531,#1532);
#1457=AXIS2_PLACEMENT_3D('',#1874,#1533,#1534);
#1458=AXIS2_PLACEMENT_3D('',#1915,#1555,#1556);
#1459=AXIS2_PLACEMENT_3D('',#1956,#1577,#1578);
#1460=AXIS2_PLACEMENT_3D('',#1965,#1583,#1584);
#1461=AXIS2_PLACEMENT_3D('',#1971,#1588,#1589);
#1462=AXIS2_PLACEMENT_3D('',#1977,#1593,#1594);
#1463=AXIS2_PLACEMENT_3D('',#1986,#1599,#1600);
#1464=AXIS2_PLACEMENT_3D('',#1992,#1604,#1605);
#1465=AXIS2_PLACEMENT_3D('',#1998,#1609,#1610);
#1466=AXIS2_PLACEMENT_3D('',#2007,#1615,#1616);
#1467=AXIS2_PLACEMENT_3D('',#2013,#1620,#1621);
#1468=AXIS2_PLACEMENT_3D('',#2019,#1625,#1626);
#1469=AXIS2_PLACEMENT_3D('',#2028,#1631,#1632);
#1470=AXIS2_PLACEMENT_3D('',#2034,#1636,#1637);
#1471=AXIS2_PLACEMENT_3D('',#2040,#1641,#1642);
#1472=AXIS2_PLACEMENT_3D('',#2043,#1645,#1646);
#1473=AXIS2_PLACEMENT_3D('',#2046,#1649,#1650);
#1474=AXIS2_PLACEMENT_3D('',#2049,#1653,#1654);
#1475=AXIS2_PLACEMENT_3D('',#2052,#1657,#1658);
#1476=AXIS2_PLACEMENT_3D('',#2055,#1661,#1662);
#1477=AXIS2_PLACEMENT_3D('',#2058,#1665,#1666);
#1478=AXIS2_PLACEMENT_3D('',#2061,#1669,#1670);
#1479=AXIS2_PLACEMENT_3D('',#2064,#1673,#1674);
#1480=AXIS2_PLACEMENT_3D('',#2067,#1677,#1678);
#1481=AXIS2_PLACEMENT_3D('',#2069,#1680,#1681);
#1482=AXIS2_PLACEMENT_3D('',#2071,#1683,#1684);
#1483=AXIS2_PLACEMENT_3D('',#2072,#1685,#1686);
#1484=AXIS2_PLACEMENT_3D('',#2074,#1688,#1689);
#1485=AXIS2_PLACEMENT_3D('',#2076,#1691,#1692);
#1486=AXIS2_PLACEMENT_3D('',#2077,#1693,#1694);
#1487=AXIS2_PLACEMENT_3D('',#2079,#1696,#1697);
#1488=AXIS2_PLACEMENT_3D('',#2081,#1699,#1700);
#1489=AXIS2_PLACEMENT_3D('',#2082,#1701,#1702);
#1490=AXIS2_PLACEMENT_3D('',#2084,#1704,#1705);
#1491=AXIS2_PLACEMENT_3D('',#2086,#1707,#1708);
#1492=AXIS2_PLACEMENT_3D('',#2087,#1709,#1710);
#1493=AXIS2_PLACEMENT_3D('',#2090,#1713,#1714);
#1494=AXIS2_PLACEMENT_3D('',#2091,#1715,#1716);
#1495=AXIS2_PLACEMENT_3D('',#2092,#1717,#1718);
#1496=AXIS2_PLACEMENT_3D('',#2093,#1719,#1720);
#1497=AXIS2_PLACEMENT_3D('',#2106,#1727,#1728);
#1498=AXIS2_PLACEMENT_3D('',#2119,#1735,#1736);
#1499=AXIS2_PLACEMENT_3D('',#2132,#1743,#1744);
#1500=AXIS2_PLACEMENT_3D('',#2145,#1751,#1752);
#1501=AXIS2_PLACEMENT_3D('',#2158,#1759,#1760);
#1502=AXIS2_PLACEMENT_3D('',#2171,#1767,#1768);
#1503=AXIS2_PLACEMENT_3D('',#2184,#1775,#1776);
#1504=AXIS2_PLACEMENT_3D('',#2197,#1783,#1784);
#1505=AXIS2_PLACEMENT_3D('',#2200,#1787,#1788);
#1506=AXIS2_PLACEMENT_3D('',#2203,#1791,#1792);
#1507=AXIS2_PLACEMENT_3D('',#2206,#1795,#1796);
#1508=AXIS2_PLACEMENT_3D('',#2209,#1799,#1800);
#1509=AXIS2_PLACEMENT_3D('',#2212,#1803,#1804);
#1510=AXIS2_PLACEMENT_3D('',#2215,#1807,#1808);
#1511=AXIS2_PLACEMENT_3D('',#2218,#1811,#1812);
#1512=AXIS2_PLACEMENT_3D('',#2221,#1815,#1816);
#1513=AXIS2_PLACEMENT_3D('',#2224,#1819,#1820);
#1514=AXIS2_PLACEMENT_3D('',#2227,#1823,#1824);
#1515=AXIS2_PLACEMENT_3D('',#2230,#1827,#1828);
#1516=AXIS2_PLACEMENT_3D('',#2233,#1831,#1832);
#1517=AXIS2_PLACEMENT_3D('',#2242,#1837,#1838);
#1518=AXIS2_PLACEMENT_3D('',#2251,#1843,#1844);
#1519=AXIS2_PLACEMENT_3D('',#2254,#1847,#1848);
#1520=AXIS2_PLACEMENT_3D('',#2256,#1850,#1851);
#1521=AXIS2_PLACEMENT_3D('',#2258,#1853,#1854);
#1522=AXIS2_PLACEMENT_3D('',#2259,#1855,#1856);
#1523=AXIS2_PLACEMENT_3D('',#2260,#1857,#1858);
#1524=AXIS2_PLACEMENT_3D('',#2261,#1859,#1860);
#1525=AXIS2_PLACEMENT_3D('',#2262,#1861,#1862);
#1526=AXIS2_PLACEMENT_3D('',#2263,#1863,#1864);
#1527=AXIS2_PLACEMENT_3D('',#2264,#1865,#1866);
#1528=AXIS2_PLACEMENT_3D('',#2265,#1867,#1868);
#1529=AXIS2_PLACEMENT_3D('',#2266,#1869,#1870);
#1530=AXIS2_PLACEMENT_3D('',#2267,#1871,#1872);
#1531=DIRECTION('',(0.,0.,1.));
#1532=DIRECTION('',(1.,0.,0.));
#1533=DIRECTION('',(0.,0.,1.));
#1534=DIRECTION('',(1.,0.,0.));
#1535=DIRECTION('',(0.,-1.,0.));
#1536=DIRECTION('',(1.,5.33564061262551E-17,0.));
#1537=DIRECTION('',(0.,1.,0.));
#1538=DIRECTION('',(-1.,0.,0.));
#1539=DIRECTION('',(0.,-1.,0.));
#1540=DIRECTION('',(1.,5.33564061262551E-17,0.));
#1541=DIRECTION('',(0.,1.,0.));
#1542=DIRECTION('',(-1.,0.,0.));
#1543=DIRECTION('',(0.,-1.,0.));
#1544=DIRECTION('',(1.,5.33564061262551E-17,0.));
#1545=DIRECTION('',(0.,1.,0.));
#1546=DIRECTION('',(-1.,0.,0.));
#1547=DIRECTION('',(0.,-1.,0.));
#1548=DIRECTION('',(1.,5.33564061262552E-17,0.));
#1549=DIRECTION('',(0.,1.,0.));
#1550=DIRECTION('',(-1.,0.,0.));
#1551=DIRECTION('',(0.,-1.,0.));
#1552=DIRECTION('',(-1.,0.,0.));
#1553=DIRECTION('',(0.,-1.,0.));
#1554=DIRECTION('',(-1.,0.,0.));
#1555=DIRECTION('',(0.,0.,-1.));
#1556=DIRECTION('',(-1.,0.,0.));
#1557=DIRECTION('',(0.,1.,0.));
#1558=DIRECTION('',(1.,0.,0.));
#1559=DIRECTION('',(0.,-1.,0.));
#1560=DIRECTION('',(1.,0.,0.));
#1561=DIRECTION('',(0.,-1.,0.));
#1562=DIRECTION('',(1.,0.,0.));
#1563=DIRECTION('',(0.,-1.,0.));
#1564=DIRECTION('',(-1.,-5.33564061262552E-17,0.));
#1565=DIRECTION('',(0.,1.,0.));
#1566=DIRECTION('',(1.,0.,0.));
#1567=DIRECTION('',(0.,-1.,0.));
#1568=DIRECTION('',(-1.,-5.33564061262551E-17,0.));
#1569=DIRECTION('',(0.,1.,0.));
#1570=DIRECTION('',(1.,0.,0.));
#1571=DIRECTION('',(0.,-1.,0.));
#1572=DIRECTION('',(-1.,-5.33564061262551E-17,0.));
#1573=DIRECTION('',(0.,1.,0.));
#1574=DIRECTION('',(1.,0.,0.));
#1575=DIRECTION('',(0.,-1.,0.));
#1576=DIRECTION('',(-1.,-5.33564061262551E-17,0.));
#1577=DIRECTION('',(0.,0.,1.));
#1578=DIRECTION('',(1.,0.,0.));
#1579=DIRECTION('',(0.,-1.,0.));
#1580=DIRECTION('',(1.,5.33564061262551E-17,0.));
#1581=DIRECTION('',(0.,-1.,0.));
#1582=DIRECTION('',(-1.,0.,0.));
#1583=DIRECTION('',(-1.,0.,0.));
#1584=DIRECTION('',(0.,0.,1.));
#1585=DIRECTION('',(0.,0.,1.));
#1586=DIRECTION('',(0.,-1.,0.));
#1587=DIRECTION('',(0.,0.,-1.));
#1588=DIRECTION('',(0.,0.,-1.));
#1589=DIRECTION('',(-1.,0.,0.));
#1590=DIRECTION('',(-1.,-5.33564061262551E-17,0.));
#1591=DIRECTION('',(0.,-1.,0.));
#1592=DIRECTION('',(1.,0.,0.));
#1593=DIRECTION('',(0.,0.,1.));
#1594=DIRECTION('',(1.,0.,0.));
#1595=DIRECTION('',(0.,-1.,0.));
#1596=DIRECTION('',(1.,5.33564061262551E-17,0.));
#1597=DIRECTION('',(0.,-1.,0.));
#1598=DIRECTION('',(-1.,0.,0.));
#1599=DIRECTION('',(-1.,0.,0.));
#1600=DIRECTION('',(0.,0.,1.));
#1601=DIRECTION('',(0.,0.,1.));
#1602=DIRECTION('',(0.,-1.,0.));
#1603=DIRECTION('',(0.,0.,-1.));
#1604=DIRECTION('',(0.,0.,-1.));
#1605=DIRECTION('',(-1.,0.,0.));
#1606=DIRECTION('',(-1.,-5.33564061262551E-17,0.));
#1607=DIRECTION('',(0.,-1.,0.));
#1608=DIRECTION('',(1.,0.,0.));
#1609=DIRECTION('',(0.,0.,1.));
#1610=DIRECTION('',(1.,0.,0.));
#1611=DIRECTION('',(0.,-1.,0.));
#1612=DIRECTION('',(1.,5.33564061262551E-17,0.));
#1613=DIRECTION('',(0.,-1.,0.));
#1614=DIRECTION('',(-1.,0.,0.));
#1615=DIRECTION('',(-1.,0.,0.));
#1616=DIRECTION('',(0.,0.,1.));
#1617=DIRECTION('',(0.,0.,1.));
#1618=DIRECTION('',(0.,-1.,0.));
#1619=DIRECTION('',(0.,0.,-1.));
#1620=DIRECTION('',(0.,0.,-1.));
#1621=DIRECTION('',(-1.,0.,0.));
#1622=DIRECTION('',(-1.,-5.33564061262551E-17,0.));
#1623=DIRECTION('',(0.,-1.,0.));
#1624=DIRECTION('',(1.,0.,0.));
#1625=DIRECTION('',(0.,0.,1.));
#1626=DIRECTION('',(1.,0.,0.));
#1627=DIRECTION('',(0.,-1.,0.));
#1628=DIRECTION('',(1.,5.33564061262552E-17,0.));
#1629=DIRECTION('',(0.,-1.,0.));
#1630=DIRECTION('',(-1.,0.,0.));
#1631=DIRECTION('',(-1.,0.,0.));
#1632=DIRECTION('',(0.,0.,1.));
#1633=DIRECTION('',(0.,0.,1.));
#1634=DIRECTION('',(0.,-1.,0.));
#1635=DIRECTION('',(0.,0.,-1.));
#1636=DIRECTION('',(0.,0.,-1.));
#1637=DIRECTION('',(-1.,0.,0.));
#1638=DIRECTION('',(-1.,-5.33564061262552E-17,0.));
#1639=DIRECTION('',(0.,-1.,0.));
#1640=DIRECTION('',(1.,0.,0.));
#1641=DIRECTION('',(1.,0.,0.));
#1642=DIRECTION('',(0.,0.,-1.));
#1643=DIRECTION('',(0.,0.,-1.));
#1644=DIRECTION('',(0.,0.,1.));
#1645=DIRECTION('',(1.,0.,0.));
#1646=DIRECTION('',(0.,0.,-1.));
#1647=DIRECTION('',(0.,0.,-1.));
#1648=DIRECTION('',(0.,0.,1.));
#1649=DIRECTION('',(1.,0.,0.));
#1650=DIRECTION('',(0.,0.,-1.));
#1651=DIRECTION('',(0.,0.,-1.));
#1652=DIRECTION('',(0.,0.,1.));
#1653=DIRECTION('',(1.,0.,0.));
#1654=DIRECTION('',(0.,0.,-1.));
#1655=DIRECTION('',(0.,0.,-1.));
#1656=DIRECTION('',(0.,0.,1.));
#1657=DIRECTION('',(0.,1.,0.));
#1658=DIRECTION('',(0.,0.,1.));
#1659=DIRECTION('',(0.,0.,-1.));
#1660=DIRECTION('',(0.,0.,1.));
#1661=DIRECTION('',(0.,1.,0.));
#1662=DIRECTION('',(0.,0.,1.));
#1663=DIRECTION('',(0.,0.,1.));
#1664=DIRECTION('',(0.,0.,-1.));
#1665=DIRECTION('',(0.,1.,0.));
#1666=DIRECTION('',(0.,0.,1.));
#1667=DIRECTION('',(0.,0.,-1.));
#1668=DIRECTION('',(0.,0.,1.));
#1669=DIRECTION('',(0.,1.,0.));
#1670=DIRECTION('',(0.,0.,1.));
#1671=DIRECTION('',(0.,0.,-1.));
#1672=DIRECTION('',(0.,0.,1.));
#1673=DIRECTION('',(0.,1.,0.));
#1674=DIRECTION('',(0.,0.,1.));
#1675=DIRECTION('',(0.,0.,-1.));
#1676=DIRECTION('',(0.,0.,1.));
#1677=DIRECTION('',(1.,0.,0.));
#1678=DIRECTION('',(0.,0.,-1.));
#1679=DIRECTION('',(0.,0.,1.));
#1680=DIRECTION('',(-1.,0.,0.));
#1681=DIRECTION('',(0.,0.,1.));
#1682=DIRECTION('',(0.,0.,-1.));
#1683=DIRECTION('',(0.,1.,0.));
#1684=DIRECTION('',(0.,0.,1.));
#1685=DIRECTION('',(-1.,0.,0.));
#1686=DIRECTION('',(0.,0.,1.));
#1687=DIRECTION('',(0.,0.,-1.));
#1688=DIRECTION('',(1.,0.,0.));
#1689=DIRECTION('',(0.,0.,-1.));
#1690=DIRECTION('',(0.,0.,-1.));
#1691=DIRECTION('',(5.33564061262552E-17,-1.,0.));
#1692=DIRECTION('',(1.,5.33564061262552E-17,0.));
#1693=DIRECTION('',(-1.,0.,0.));
#1694=DIRECTION('',(0.,0.,1.));
#1695=DIRECTION('',(0.,0.,-1.));
#1696=DIRECTION('',(1.,0.,0.));
#1697=DIRECTION('',(0.,0.,-1.));
#1698=DIRECTION('',(0.,0.,-1.));
#1699=DIRECTION('',(5.33564061262551E-17,-1.,0.));
#1700=DIRECTION('',(1.,5.33564061262551E-17,0.));
#1701=DIRECTION('',(-1.,0.,0.));
#1702=DIRECTION('',(0.,0.,1.));
#1703=DIRECTION('',(0.,0.,-1.));
#1704=DIRECTION('',(1.,0.,0.));
#1705=DIRECTION('',(0.,0.,-1.));
#1706=DIRECTION('',(0.,0.,-1.));
#1707=DIRECTION('',(5.33564061262551E-17,-1.,0.));
#1708=DIRECTION('',(1.,5.33564061262551E-17,0.));
#1709=DIRECTION('',(5.33564061262551E-17,-1.,0.));
#1710=DIRECTION('',(1.,5.33564061262551E-17,0.));
#1711=DIRECTION('',(0.,0.,-1.));
#1712=DIRECTION('',(0.,0.,-1.));
#1713=DIRECTION('',(-1.,0.,0.));
#1714=DIRECTION('',(0.,0.,1.));
#1715=DIRECTION('',(1.,0.,0.));
#1716=DIRECTION('',(0.,0.,-1.));
#1717=DIRECTION('',(0.,0.,1.));
#1718=DIRECTION('',(1.,0.,0.));
#1719=DIRECTION('',(0.,0.,-1.));
#1720=DIRECTION('',(-1.,0.,0.));
#1721=DIRECTION('',(-0.5,-0.866025403784439,0.));
#1722=DIRECTION('',(0.,-1.,0.));
#1723=DIRECTION('',(1.,0.,0.));
#1724=DIRECTION('',(0.,1.,0.));
#1725=DIRECTION('',(-0.5,0.866025403784439,0.));
#1726=DIRECTION('',(-1.,0.,0.));
#1727=DIRECTION('',(0.,0.,-1.));
#1728=DIRECTION('',(-1.,0.,0.));
#1729=DIRECTION('',(-0.5,-0.866025403784439,0.));
#1730=DIRECTION('',(0.,-1.,0.));
#1731=DIRECTION('',(1.,0.,0.));
#1732=DIRECTION('',(0.,1.,0.));
#1733=DIRECTION('',(-0.5,0.866025403784439,0.));
#1734=DIRECTION('',(-1.,0.,0.));
#1735=DIRECTION('',(0.,0.,-1.));
#1736=DIRECTION('',(-1.,0.,0.));
#1737=DIRECTION('',(-0.5,-0.866025403784439,0.));
#1738=DIRECTION('',(0.,-1.,0.));
#1739=DIRECTION('',(1.,0.,0.));
#1740=DIRECTION('',(0.,1.,0.));
#1741=DIRECTION('',(-0.5,0.866025403784439,0.));
#1742=DIRECTION('',(-1.,0.,0.));
#1743=DIRECTION('',(0.,0.,-1.));
#1744=DIRECTION('',(-1.,0.,0.));
#1745=DIRECTION('',(-0.5,-0.866025403784439,0.));
#1746=DIRECTION('',(0.,-1.,0.));
#1747=DIRECTION('',(1.,0.,0.));
#1748=DIRECTION('',(0.,1.,0.));
#1749=DIRECTION('',(-0.500000000000001,0.866025403784438,0.));
#1750=DIRECTION('',(-1.,0.,0.));
#1751=DIRECTION('',(0.,0.,1.));
#1752=DIRECTION('',(1.,0.,0.));
#1753=DIRECTION('',(0.5,0.866025403784439,0.));
#1754=DIRECTION('',(-1.,0.,0.));
#1755=DIRECTION('',(0.5,-0.866025403784439,0.));
#1756=DIRECTION('',(0.,-1.,0.));
#1757=DIRECTION('',(-1.,0.,0.));
#1758=DIRECTION('',(0.,1.,0.));
#1759=DIRECTION('',(0.,0.,1.));
#1760=DIRECTION('',(1.,0.,0.));
#1761=DIRECTION('',(0.5,0.866025403784439,0.));
#1762=DIRECTION('',(-1.,0.,0.));
#1763=DIRECTION('',(0.5,-0.866025403784439,0.));
#1764=DIRECTION('',(0.,-1.,0.));
#1765=DIRECTION('',(-1.,0.,0.));
#1766=DIRECTION('',(0.,1.,0.));
#1767=DIRECTION('',(0.,0.,1.));
#1768=DIRECTION('',(1.,0.,0.));
#1769=DIRECTION('',(0.5,0.866025403784439,0.));
#1770=DIRECTION('',(-1.,0.,0.));
#1771=DIRECTION('',(0.5,-0.866025403784439,0.));
#1772=DIRECTION('',(0.,-1.,0.));
#1773=DIRECTION('',(-1.,0.,0.));
#1774=DIRECTION('',(0.,1.,0.));
#1775=DIRECTION('',(0.,0.,1.));
#1776=DIRECTION('',(1.,0.,0.));
#1777=DIRECTION('',(0.5,0.866025403784439,0.));
#1778=DIRECTION('',(-1.,0.,0.));
#1779=DIRECTION('',(0.500000000000001,-0.866025403784438,0.));
#1780=DIRECTION('',(0.,-1.,0.));
#1781=DIRECTION('',(-1.,0.,0.));
#1782=DIRECTION('',(0.,1.,0.));
#1783=DIRECTION('',(0.,1.,0.));
#1784=DIRECTION('',(0.,0.,1.));
#1785=DIRECTION('',(0.,0.,-1.));
#1786=DIRECTION('',(0.,0.,-1.));
#1787=DIRECTION('',(0.,1.,0.));
#1788=DIRECTION('',(0.,0.,1.));
#1789=DIRECTION('',(0.,0.,-1.));
#1790=DIRECTION('',(0.,0.,-1.));
#1791=DIRECTION('',(0.,1.,0.));
#1792=DIRECTION('',(0.,0.,1.));
#1793=DIRECTION('',(0.,0.,-1.));
#1794=DIRECTION('',(0.,0.,-1.));
#1795=DIRECTION('',(0.,1.,0.));
#1796=DIRECTION('',(0.,0.,1.));
#1797=DIRECTION('',(0.,0.,-1.));
#1798=DIRECTION('',(0.,0.,-1.));
#1799=DIRECTION('',(-1.,0.,0.));
#1800=DIRECTION('',(0.,0.,1.));
#1801=DIRECTION('',(0.,0.,1.));
#1802=DIRECTION('',(0.,0.,-1.));
#1803=DIRECTION('',(1.,0.,0.));
#1804=DIRECTION('',(0.,0.,-1.));
#1805=DIRECTION('',(0.,0.,-1.));
#1806=DIRECTION('',(0.,0.,-1.));
#1807=DIRECTION('',(1.,0.,0.));
#1808=DIRECTION('',(0.,0.,-1.));
#1809=DIRECTION('',(0.,0.,-1.));
#1810=DIRECTION('',(0.,0.,-1.));
#1811=DIRECTION('',(-1.,0.,0.));
#1812=DIRECTION('',(0.,0.,1.));
#1813=DIRECTION('',(0.,0.,1.));
#1814=DIRECTION('',(0.,0.,-1.));
#1815=DIRECTION('',(1.,0.,0.));
#1816=DIRECTION('',(0.,0.,-1.));
#1817=DIRECTION('',(0.,0.,-1.));
#1818=DIRECTION('',(0.,0.,-1.));
#1819=DIRECTION('',(-1.,0.,0.));
#1820=DIRECTION('',(0.,0.,1.));
#1821=DIRECTION('',(0.,0.,1.));
#1822=DIRECTION('',(0.,0.,-1.));
#1823=DIRECTION('',(-1.,0.,0.));
#1824=DIRECTION('',(0.,0.,1.));
#1825=DIRECTION('',(0.,0.,1.));
#1826=DIRECTION('',(0.,0.,-1.));
#1827=DIRECTION('',(1.,0.,0.));
#1828=DIRECTION('',(0.,0.,-1.));
#1829=DIRECTION('',(0.,0.,-1.));
#1830=DIRECTION('',(0.,0.,-1.));
#1831=DIRECTION('',(1.,0.,0.));
#1832=DIRECTION('',(0.,0.,-1.));
#1833=DIRECTION('',(0.,0.,-1.));
#1834=DIRECTION('',(0.,-1.,0.));
#1835=DIRECTION('',(0.,0.,1.));
#1836=DIRECTION('',(0.,-1.,0.));
#1837=DIRECTION('',(1.,0.,0.));
#1838=DIRECTION('',(0.,0.,-1.));
#1839=DIRECTION('',(0.,-1.,0.));
#1840=DIRECTION('',(0.,0.,1.));
#1841=DIRECTION('',(0.,-1.,0.));
#1842=DIRECTION('',(0.,0.,1.));
#1843=DIRECTION('',(0.,-1.,0.));
#1844=DIRECTION('',(0.,0.,-1.));
#1845=DIRECTION('',(1.,0.,0.));
#1846=DIRECTION('',(-1.,0.,0.));
#1847=DIRECTION('',(0.,0.,1.));
#1848=DIRECTION('',(1.,0.,0.));
#1849=DIRECTION('',(-1.,0.,0.));
#1850=DIRECTION('',(0.,1.,0.));
#1851=DIRECTION('',(0.,0.,1.));
#1852=DIRECTION('',(1.,0.,0.));
#1853=DIRECTION('',(0.,0.,-1.));
#1854=DIRECTION('',(-1.,0.,0.));
#1855=DIRECTION('',(0.866025403784438,-0.5,0.));
#1856=DIRECTION('',(0.5,0.866025403784439,0.));
#1857=DIRECTION('',(-0.866025403784438,-0.5,0.));
#1858=DIRECTION('',(0.5,-0.866025403784439,0.));
#1859=DIRECTION('',(-0.866025403784439,-0.5,0.));
#1860=DIRECTION('',(0.5,-0.866025403784439,0.));
#1861=DIRECTION('',(0.866025403784439,-0.5,0.));
#1862=DIRECTION('',(0.5,0.866025403784439,0.));
#1863=DIRECTION('',(-0.866025403784438,-0.5,0.));
#1864=DIRECTION('',(0.5,-0.866025403784439,0.));
#1865=DIRECTION('',(0.866025403784438,-0.5,0.));
#1866=DIRECTION('',(0.5,0.866025403784439,0.));
#1867=DIRECTION('',(0.866025403784439,-0.5,0.));
#1868=DIRECTION('',(0.5,0.866025403784439,0.));
#1869=DIRECTION('',(-0.866025403784438,-0.500000000000001,0.));
#1870=DIRECTION('',(0.500000000000001,-0.866025403784438,0.));
#1871=DIRECTION('',(0.,0.,1.));
#1872=DIRECTION('',(1.,0.,0.));
#1873=CARTESIAN_POINT('',(0.,0.,0.));
#1874=CARTESIAN_POINT('',(0.21,0.335,-0.0475));
#1875=CARTESIAN_POINT('',(0.19,0.335,-0.0475));
#1876=CARTESIAN_POINT('',(0.19,0.02,-0.0475));
#1877=CARTESIAN_POINT('',(0.19,0.,-0.0475));
#1878=CARTESIAN_POINT('',(0.21,0.02,-0.0475));
#1879=CARTESIAN_POINT('',(0.11,0.02,-0.0475));
#1880=CARTESIAN_POINT('',(0.11,0.335,-0.0475));
#1881=CARTESIAN_POINT('',(0.11,0.,-0.0475));
#1882=CARTESIAN_POINT('',(0.21,0.,-0.0475));
#1883=CARTESIAN_POINT('',(0.09,0.,-0.0475));
#1884=CARTESIAN_POINT('',(0.09,0.335,-0.0475));
#1885=CARTESIAN_POINT('',(0.09,0.02,-0.0475));
#1886=CARTESIAN_POINT('',(0.21,0.02,-0.0475));
#1887=CARTESIAN_POINT('',(0.01,0.02,-0.0475));
#1888=CARTESIAN_POINT('',(0.01,0.335,-0.0475));
#1889=CARTESIAN_POINT('',(0.01,0.,-0.0475));
#1890=CARTESIAN_POINT('',(0.21,0.,-0.0475));
#1891=CARTESIAN_POINT('',(-0.01,0.,-0.0475));
#1892=CARTESIAN_POINT('',(-0.01,0.335,-0.0475));
#1893=CARTESIAN_POINT('',(-0.01,0.02,-0.0475));
#1894=CARTESIAN_POINT('',(0.21,0.02,-0.0475));
#1895=CARTESIAN_POINT('',(-0.09,0.02,-0.0475));
#1896=CARTESIAN_POINT('',(-0.09,0.335,-0.0475));
#1897=CARTESIAN_POINT('',(-0.09,0.,-0.0475));
#1898=CARTESIAN_POINT('',(0.21,0.,-0.0475));
#1899=CARTESIAN_POINT('',(-0.11,0.,-0.0475));
#1900=CARTESIAN_POINT('',(-0.11,0.335,-0.0475));
#1901=CARTESIAN_POINT('',(-0.11,0.02,-0.0475));
#1902=CARTESIAN_POINT('',(0.21,0.02,-0.0475));
#1903=CARTESIAN_POINT('',(-0.19,0.02,-0.0475));
#1904=CARTESIAN_POINT('',(-0.19,0.335,-0.0475));
#1905=CARTESIAN_POINT('',(-0.19,0.,-0.0475));
#1906=CARTESIAN_POINT('',(0.21,0.,-0.0475));
#1907=CARTESIAN_POINT('',(-0.21,0.,-0.0475));
#1908=CARTESIAN_POINT('',(-0.21,0.335,-0.0475));
#1909=CARTESIAN_POINT('',(-0.21,0.335,-0.0475));
#1910=CARTESIAN_POINT('',(0.21,0.335,-0.0475));
#1911=CARTESIAN_POINT('',(0.21,0.335,-0.0475));
#1912=CARTESIAN_POINT('',(0.21,0.335,-0.0475));
#1913=CARTESIAN_POINT('',(0.21,0.,-0.0475));
#1914=CARTESIAN_POINT('',(0.21,0.,-0.0475));
#1915=CARTESIAN_POINT('',(-0.21,0.335,0.0475));
#1916=CARTESIAN_POINT('',(0.19,0.335,0.0475));
#1917=CARTESIAN_POINT('',(0.19,0.,0.0475));
#1918=CARTESIAN_POINT('',(0.19,0.02,0.0475));
#1919=CARTESIAN_POINT('',(-0.21,0.,0.0475));
#1920=CARTESIAN_POINT('',(0.21,0.,0.0475));
#1921=CARTESIAN_POINT('',(0.21,0.335,0.0475));
#1922=CARTESIAN_POINT('',(0.21,0.335,0.0475));
#1923=CARTESIAN_POINT('',(-0.21,0.335,0.0475));
#1924=CARTESIAN_POINT('',(-0.21,0.335,0.0475));
#1925=CARTESIAN_POINT('',(-0.21,0.335,0.0475));
#1926=CARTESIAN_POINT('',(-0.21,0.,0.0475));
#1927=CARTESIAN_POINT('',(-0.21,0.,0.0475));
#1928=CARTESIAN_POINT('',(-0.19,0.,0.0475));
#1929=CARTESIAN_POINT('',(-0.19,0.335,0.0475));
#1930=CARTESIAN_POINT('',(-0.19,0.02,0.0475));
#1931=CARTESIAN_POINT('',(-0.21,0.02,0.0475));
#1932=CARTESIAN_POINT('',(-0.11,0.02,0.0475));
#1933=CARTESIAN_POINT('',(-0.11,0.335,0.0475));
#1934=CARTESIAN_POINT('',(-0.11,0.,0.0475));
#1935=CARTESIAN_POINT('',(-0.21,0.,0.0475));
#1936=CARTESIAN_POINT('',(-0.09,0.,0.0475));
#1937=CARTESIAN_POINT('',(-0.09,0.335,0.0475));
#1938=CARTESIAN_POINT('',(-0.09,0.02,0.0475));
#1939=CARTESIAN_POINT('',(-0.21,0.02,0.0475));
#1940=CARTESIAN_POINT('',(-0.01,0.02,0.0475));
#1941=CARTESIAN_POINT('',(-0.01,0.335,0.0475));
#1942=CARTESIAN_POINT('',(-0.01,0.,0.0475));
#1943=CARTESIAN_POINT('',(-0.21,0.,0.0475));
#1944=CARTESIAN_POINT('',(0.01,0.,0.0475));
#1945=CARTESIAN_POINT('',(0.01,0.335,0.0475));
#1946=CARTESIAN_POINT('',(0.01,0.02,0.0475));
#1947=CARTESIAN_POINT('',(-0.21,0.02,0.0475));
#1948=CARTESIAN_POINT('',(0.09,0.02,0.0475));
#1949=CARTESIAN_POINT('',(0.09,0.335,0.0475));
#1950=CARTESIAN_POINT('',(0.09,0.,0.0475));
#1951=CARTESIAN_POINT('',(-0.21,0.,0.0475));
#1952=CARTESIAN_POINT('',(0.11,0.,0.0475));
#1953=CARTESIAN_POINT('',(0.11,0.335,0.0475));
#1954=CARTESIAN_POINT('',(0.11,0.02,0.0475));
#1955=CARTESIAN_POINT('',(-0.21,0.02,0.0475));
#1956=CARTESIAN_POINT('',(0.1655,0.335,-0.0155));
#1957=CARTESIAN_POINT('',(0.1345,0.335,-0.0155));
#1958=CARTESIAN_POINT('',(0.1345,0.335,-0.0155));
#1959=CARTESIAN_POINT('',(0.1345,0.02,-0.0155));
#1960=CARTESIAN_POINT('',(0.1655,0.02,-0.0155));
#1961=CARTESIAN_POINT('',(0.1655,0.02,-0.0155));
#1962=CARTESIAN_POINT('',(0.1655,0.335,-0.0155));
#1963=CARTESIAN_POINT('',(0.1655,0.335,-0.0155));
#1964=CARTESIAN_POINT('',(0.1655,0.335,-0.0155));
#1965=CARTESIAN_POINT('',(0.1655,0.335,0.0155));
#1966=CARTESIAN_POINT('',(0.1655,0.02,0.0155));
#1967=CARTESIAN_POINT('',(0.1655,0.02,0.0155));
#1968=CARTESIAN_POINT('',(0.1655,0.335,0.0155));
#1969=CARTESIAN_POINT('',(0.1655,0.335,0.0155));
#1970=CARTESIAN_POINT('',(0.1655,0.335,0.0155));
#1971=CARTESIAN_POINT('',(0.1345,0.335,0.0155));
#1972=CARTESIAN_POINT('',(0.1345,0.02,0.0155));
#1973=CARTESIAN_POINT('',(0.1345,0.02,0.0155));
#1974=CARTESIAN_POINT('',(0.1345,0.335,0.0155));
#1975=CARTESIAN_POINT('',(0.1345,0.335,0.0155));
#1976=CARTESIAN_POINT('',(0.1345,0.335,0.0155));
#1977=CARTESIAN_POINT('',(0.0655,0.335,-0.0155));
#1978=CARTESIAN_POINT('',(0.0345,0.335,-0.0155));
#1979=CARTESIAN_POINT('',(0.0345,0.335,-0.0155));
#1980=CARTESIAN_POINT('',(0.0345,0.02,-0.0155));
#1981=CARTESIAN_POINT('',(0.0655,0.02,-0.0155));
#1982=CARTESIAN_POINT('',(0.0655,0.02,-0.0155));
#1983=CARTESIAN_POINT('',(0.0655,0.335,-0.0155));
#1984=CARTESIAN_POINT('',(0.0655,0.335,-0.0155));
#1985=CARTESIAN_POINT('',(0.0655,0.335,-0.0155));
#1986=CARTESIAN_POINT('',(0.0655,0.335,0.0155));
#1987=CARTESIAN_POINT('',(0.0655,0.02,0.0155));
#1988=CARTESIAN_POINT('',(0.0655,0.02,0.0155));
#1989=CARTESIAN_POINT('',(0.0655,0.335,0.0155));
#1990=CARTESIAN_POINT('',(0.0655,0.335,0.0155));
#1991=CARTESIAN_POINT('',(0.0655,0.335,0.0155));
#1992=CARTESIAN_POINT('',(0.0345,0.335,0.0155));
#1993=CARTESIAN_POINT('',(0.0345,0.02,0.0155));
#1994=CARTESIAN_POINT('',(0.0345,0.02,0.0155));
#1995=CARTESIAN_POINT('',(0.0345,0.335,0.0155));
#1996=CARTESIAN_POINT('',(0.0345,0.335,0.0155));
#1997=CARTESIAN_POINT('',(0.0345,0.335,0.0155));
#1998=CARTESIAN_POINT('',(-0.0345,0.335,-0.0155));
#1999=CARTESIAN_POINT('',(-0.0655,0.335,-0.0155));
#2000=CARTESIAN_POINT('',(-0.0655,0.335,-0.0155));
#2001=CARTESIAN_POINT('',(-0.0655,0.02,-0.0155));
#2002=CARTESIAN_POINT('',(-0.0345,0.02,-0.0155));
#2003=CARTESIAN_POINT('',(-0.0345,0.02,-0.0155));
#2004=CARTESIAN_POINT('',(-0.0345,0.335,-0.0155));
#2005=CARTESIAN_POINT('',(-0.0345,0.335,-0.0155));
#2006=CARTESIAN_POINT('',(-0.0345,0.335,-0.0155));
#2007=CARTESIAN_POINT('',(-0.0345,0.335,0.0155));
#2008=CARTESIAN_POINT('',(-0.0345,0.02,0.0155));
#2009=CARTESIAN_POINT('',(-0.0345,0.02,0.0155));
#2010=CARTESIAN_POINT('',(-0.0345,0.335,0.0155));
#2011=CARTESIAN_POINT('',(-0.0345,0.335,0.0155));
#2012=CARTESIAN_POINT('',(-0.0345,0.335,0.0155));
#2013=CARTESIAN_POINT('',(-0.0655,0.335,0.0155));
#2014=CARTESIAN_POINT('',(-0.0655,0.02,0.0155));
#2015=CARTESIAN_POINT('',(-0.0655,0.02,0.0155));
#2016=CARTESIAN_POINT('',(-0.0655,0.335,0.0155));
#2017=CARTESIAN_POINT('',(-0.0655,0.335,0.0155));
#2018=CARTESIAN_POINT('',(-0.0655,0.335,0.0155));
#2019=CARTESIAN_POINT('',(-0.1345,0.335,-0.0155));
#2020=CARTESIAN_POINT('',(-0.1655,0.335,-0.0155));
#2021=CARTESIAN_POINT('',(-0.1655,0.335,-0.0155));
#2022=CARTESIAN_POINT('',(-0.1655,0.02,-0.0155));
#2023=CARTESIAN_POINT('',(-0.1345,0.02,-0.0155));
#2024=CARTESIAN_POINT('',(-0.1345,0.02,-0.0155));
#2025=CARTESIAN_POINT('',(-0.1345,0.335,-0.0155));
#2026=CARTESIAN_POINT('',(-0.1345,0.335,-0.0155));
#2027=CARTESIAN_POINT('',(-0.1345,0.335,-0.0155));
#2028=CARTESIAN_POINT('',(-0.1345,0.335,0.0155));
#2029=CARTESIAN_POINT('',(-0.1345,0.02,0.0155));
#2030=CARTESIAN_POINT('',(-0.1345,0.02,0.0155));
#2031=CARTESIAN_POINT('',(-0.1345,0.335,0.0155));
#2032=CARTESIAN_POINT('',(-0.1345,0.335,0.0155));
#2033=CARTESIAN_POINT('',(-0.1345,0.335,0.0155));
#2034=CARTESIAN_POINT('',(-0.1655,0.335,0.0155));
#2035=CARTESIAN_POINT('',(-0.1655,0.02,0.0155));
#2036=CARTESIAN_POINT('',(-0.1655,0.02,0.0155));
#2037=CARTESIAN_POINT('',(-0.1655,0.335,0.0155));
#2038=CARTESIAN_POINT('',(-0.1655,0.335,0.0155));
#2039=CARTESIAN_POINT('',(-0.1655,0.335,0.0155));
#2040=CARTESIAN_POINT('',(0.1345,0.335,-0.0155));
#2041=CARTESIAN_POINT('',(0.1345,0.02,-0.0155));
#2042=CARTESIAN_POINT('',(0.1345,0.335,-0.0155));
#2043=CARTESIAN_POINT('',(0.0345,0.335,-0.0155));
#2044=CARTESIAN_POINT('',(0.0345,0.02,-0.0155));
#2045=CARTESIAN_POINT('',(0.0345,0.335,-0.0155));
#2046=CARTESIAN_POINT('',(-0.0655,0.335,-0.0155));
#2047=CARTESIAN_POINT('',(-0.0655,0.02,-0.0155));
#2048=CARTESIAN_POINT('',(-0.0655,0.335,-0.0155));
#2049=CARTESIAN_POINT('',(-0.1655,0.335,-0.0155));
#2050=CARTESIAN_POINT('',(-0.1655,0.02,-0.0155));
#2051=CARTESIAN_POINT('',(-0.1655,0.335,-0.0155));
#2052=CARTESIAN_POINT('',(0.,0.,0.));
#2053=CARTESIAN_POINT('',(-0.19,0.,0.));
#2054=CARTESIAN_POINT('',(-0.21,0.,-0.0475));
#2055=CARTESIAN_POINT('',(0.,0.,0.));
#2056=CARTESIAN_POINT('',(0.19,0.,0.));
#2057=CARTESIAN_POINT('',(0.21,0.,0.0475));
#2058=CARTESIAN_POINT('',(0.,0.,0.));
#2059=CARTESIAN_POINT('',(0.11,0.,0.));
#2060=CARTESIAN_POINT('',(0.09,0.,0.));
#2061=CARTESIAN_POINT('',(0.,0.,0.));
#2062=CARTESIAN_POINT('',(0.01,0.,0.));
#2063=CARTESIAN_POINT('',(-0.01,0.,0.));
#2064=CARTESIAN_POINT('',(0.,0.,0.));
#2065=CARTESIAN_POINT('',(-0.09,0.,0.));
#2066=CARTESIAN_POINT('',(-0.11,0.,0.));
#2067=CARTESIAN_POINT('',(-0.21,0.335,-0.0475));
#2068=CARTESIAN_POINT('',(-0.21,0.335,-0.0475));
#2069=CARTESIAN_POINT('',(0.21,0.335,0.0475));
#2070=CARTESIAN_POINT('',(0.21,0.335,0.0475));
#2071=CARTESIAN_POINT('',(0.,0.335,0.));
#2072=CARTESIAN_POINT('',(-0.11,-0.05,0.2));
#2073=CARTESIAN_POINT('',(-0.11,0.02,0.2));
#2074=CARTESIAN_POINT('',(-0.19,0.02,0.2));
#2075=CARTESIAN_POINT('',(-0.19,0.02,0.2));
#2076=CARTESIAN_POINT('',(-0.11,0.02,0.2));
#2077=CARTESIAN_POINT('',(-0.01,-0.05,0.2));
#2078=CARTESIAN_POINT('',(-0.01,0.02,0.2));
#2079=CARTESIAN_POINT('',(-0.09,0.02,0.2));
#2080=CARTESIAN_POINT('',(-0.09,0.02,0.2));
#2081=CARTESIAN_POINT('',(-0.01,0.02,0.2));
#2082=CARTESIAN_POINT('',(0.09,-0.05,0.2));
#2083=CARTESIAN_POINT('',(0.09,0.02,0.2));
#2084=CARTESIAN_POINT('',(0.01,0.02,0.2));
#2085=CARTESIAN_POINT('',(0.01,0.02,0.2));
#2086=CARTESIAN_POINT('',(0.09,0.02,0.2));
#2087=CARTESIAN_POINT('',(0.19,0.02,0.2));
#2088=CARTESIAN_POINT('',(0.19,0.02,0.2));
#2089=CARTESIAN_POINT('',(0.11,0.02,0.2));
#2090=CARTESIAN_POINT('',(0.19,-0.08,0.2));
#2091=CARTESIAN_POINT('',(0.11,0.02,0.2));
#2092=CARTESIAN_POINT('',(0.,0.,0.));
#2093=CARTESIAN_POINT('',(0.1705,0.144,0.008));
#2094=CARTESIAN_POINT('',(0.22160382907248,0.114495190528383,0.008));
#2095=CARTESIAN_POINT('',(0.1655,0.0173205080756888,0.00800000000000002));
#2096=CARTESIAN_POINT('',(0.1555,0.,0.00800000000000002));
#2097=CARTESIAN_POINT('',(0.1655,0.144,0.008));
#2098=CARTESIAN_POINT('',(0.1655,0.139,0.00800000000000002));
#2099=CARTESIAN_POINT('',(0.1705,0.139,0.008));
#2100=CARTESIAN_POINT('',(0.1345,0.139,0.00800000000000002));
#2101=CARTESIAN_POINT('',(0.1345,0.144,0.008));
#2102=CARTESIAN_POINT('',(0.1345,0.0173205080756889,0.008));
#2103=CARTESIAN_POINT('',(0.0886461709275205,0.0967416697508023,0.008));
#2104=CARTESIAN_POINT('',(0.1445,0.,0.00800000000000002));
#2105=CARTESIAN_POINT('',(0.1705,0.,0.008));
#2106=CARTESIAN_POINT('',(0.1705,0.144,0.008));
#2107=CARTESIAN_POINT('',(0.14660382907248,0.157796460717605,0.008));
#2108=CARTESIAN_POINT('',(0.0655,0.0173205080756888,0.00800000000000002));
#2109=CARTESIAN_POINT('',(0.0555,0.,0.00800000000000002));
#2110=CARTESIAN_POINT('',(0.0655,0.144,0.008));
#2111=CARTESIAN_POINT('',(0.0655,0.139,0.00800000000000002));
#2112=CARTESIAN_POINT('',(0.1705,0.139,0.008));
#2113=CARTESIAN_POINT('',(0.0345,0.139,0.00800000000000002));
#2114=CARTESIAN_POINT('',(0.0345,0.144,0.008));
#2115=CARTESIAN_POINT('',(0.0345,0.0173205080756888,0.008));
#2116=CARTESIAN_POINT('',(0.0136461709275205,0.0534403995615804,0.008));
#2117=CARTESIAN_POINT('',(0.0445,0.,0.00800000000000002));
#2118=CARTESIAN_POINT('',(0.1705,0.,0.008));
#2119=CARTESIAN_POINT('',(0.1705,0.144,0.008));
#2120=CARTESIAN_POINT('',(0.0716038290724795,0.201097730906827,0.008));
#2121=CARTESIAN_POINT('',(-0.0345,0.0173205080756888,0.00800000000000002));
#2122=CARTESIAN_POINT('',(-0.0445,0.,0.00800000000000002));
#2123=CARTESIAN_POINT('',(-0.0345,0.144,0.008));
#2124=CARTESIAN_POINT('',(-0.0345,0.139,0.00800000000000002));
#2125=CARTESIAN_POINT('',(0.1705,0.139,0.008));
#2126=CARTESIAN_POINT('',(-0.0655,0.139,0.00800000000000002));
#2127=CARTESIAN_POINT('',(-0.0655,0.144,0.008));
#2128=CARTESIAN_POINT('',(-0.0655,0.0173205080756888,0.008));
#2129=CARTESIAN_POINT('',(-0.0613538290724796,0.0101391293723584,0.008));
#2130=CARTESIAN_POINT('',(-0.0555,0.,0.00800000000000002));
#2131=CARTESIAN_POINT('',(0.1705,0.,0.008));
#2132=CARTESIAN_POINT('',(0.1705,0.144,0.008));
#2133=CARTESIAN_POINT('',(-0.0033961709275203,0.244399001096049,0.008));
#2134=CARTESIAN_POINT('',(-0.1345,0.0173205080756888,0.00800000000000002));
#2135=CARTESIAN_POINT('',(-0.1445,0.,0.00800000000000002));
#2136=CARTESIAN_POINT('',(-0.1345,0.144,0.008));
#2137=CARTESIAN_POINT('',(-0.1345,0.139,0.00800000000000002));
#2138=CARTESIAN_POINT('',(0.1705,0.139,0.008));
#2139=CARTESIAN_POINT('',(-0.1655,0.139,0.00800000000000002));
#2140=CARTESIAN_POINT('',(-0.1655,0.144,0.008));
#2141=CARTESIAN_POINT('',(-0.1655,0.0173205080756888,0.008));
#2142=CARTESIAN_POINT('',(-0.136353829072479,-0.0331621408168637,0.008));
#2143=CARTESIAN_POINT('',(-0.1555,0.,0.00800000000000002));
#2144=CARTESIAN_POINT('',(0.1705,0.,0.008));
#2145=CARTESIAN_POINT('',(0.1705,0.,-0.008));
#2146=CARTESIAN_POINT('',(0.15925,0.00649519052838326,-0.008));
#2147=CARTESIAN_POINT('',(0.1555,0.,-0.00800000000000002));
#2148=CARTESIAN_POINT('',(0.1655,0.0173205080756887,-0.008));
#2149=CARTESIAN_POINT('',(0.1705,0.,-0.008));
#2150=CARTESIAN_POINT('',(0.1445,0.,-0.00800000000000002));
#2151=CARTESIAN_POINT('',(0.151,-0.0112583302491977,-0.008));
#2152=CARTESIAN_POINT('',(0.1345,0.0173205080756888,-0.00800000000000002));
#2153=CARTESIAN_POINT('',(0.1345,0.,-0.008));
#2154=CARTESIAN_POINT('',(0.1345,0.139,-0.00800000000000002));
#2155=CARTESIAN_POINT('',(0.1705,0.139,-0.008));
#2156=CARTESIAN_POINT('',(0.1655,0.139,-0.00800000000000002));
#2157=CARTESIAN_POINT('',(0.1655,0.,-0.008));
#2158=CARTESIAN_POINT('',(0.1705,0.,-0.008));
#2159=CARTESIAN_POINT('',(0.08425,0.0497964607176052,-0.008));
#2160=CARTESIAN_POINT('',(0.0555,0.,-0.00800000000000002));
#2161=CARTESIAN_POINT('',(0.0655,0.0173205080756888,-0.008));
#2162=CARTESIAN_POINT('',(0.1705,0.,-0.008));
#2163=CARTESIAN_POINT('',(0.0445,0.,-0.00800000000000002));
#2164=CARTESIAN_POINT('',(0.076,-0.0545596004384196,-0.008));
#2165=CARTESIAN_POINT('',(0.0345,0.0173205080756888,-0.00800000000000002));
#2166=CARTESIAN_POINT('',(0.0345,0.,-0.008));
#2167=CARTESIAN_POINT('',(0.0345,0.139,-0.00800000000000002));
#2168=CARTESIAN_POINT('',(0.1705,0.139,-0.008));
#2169=CARTESIAN_POINT('',(0.0655,0.139,-0.00800000000000002));
#2170=CARTESIAN_POINT('',(0.0655,0.,-0.008));
#2171=CARTESIAN_POINT('',(0.1705,0.,-0.008));
#2172=CARTESIAN_POINT('',(0.00924999999999998,0.0930977309068271,-0.008));
#2173=CARTESIAN_POINT('',(-0.0445,0.,-0.00800000000000002));
#2174=CARTESIAN_POINT('',(-0.0345,0.0173205080756888,-0.008));
#2175=CARTESIAN_POINT('',(0.1705,0.,-0.008));
#2176=CARTESIAN_POINT('',(-0.0555,0.,-0.00800000000000002));
#2177=CARTESIAN_POINT('',(0.00100000000000007,-0.0978608706276416,-0.008));
#2178=CARTESIAN_POINT('',(-0.0655,0.0173205080756888,-0.00800000000000002));
#2179=CARTESIAN_POINT('',(-0.0655,0.,-0.008));
#2180=CARTESIAN_POINT('',(-0.0655,0.139,-0.00800000000000002));
#2181=CARTESIAN_POINT('',(0.1705,0.139,-0.008));
#2182=CARTESIAN_POINT('',(-0.0345,0.139,-0.00800000000000002));
#2183=CARTESIAN_POINT('',(-0.0345,0.,-0.008));
#2184=CARTESIAN_POINT('',(0.1705,0.,-0.008));
#2185=CARTESIAN_POINT('',(-0.0657499999999999,0.136399001096049,-0.008));
#2186=CARTESIAN_POINT('',(-0.1445,0.,-0.00800000000000002));
#2187=CARTESIAN_POINT('',(-0.1345,0.0173205080756888,-0.008));
#2188=CARTESIAN_POINT('',(0.1705,0.,-0.008));
#2189=CARTESIAN_POINT('',(-0.1555,0.,-0.00800000000000002));
#2190=CARTESIAN_POINT('',(-0.0739999999999997,-0.141162140816864,-0.008));
#2191=CARTESIAN_POINT('',(-0.1655,0.0173205080756888,-0.00800000000000002));
#2192=CARTESIAN_POINT('',(-0.1655,0.,-0.008));
#2193=CARTESIAN_POINT('',(-0.1655,0.139,-0.00800000000000002));
#2194=CARTESIAN_POINT('',(0.1705,0.139,-0.008));
#2195=CARTESIAN_POINT('',(-0.1345,0.139,-0.00800000000000002));
#2196=CARTESIAN_POINT('',(-0.1345,0.,-0.008));
#2197=CARTESIAN_POINT('',(0.1705,0.,0.008));
#2198=CARTESIAN_POINT('',(0.1555,0.,0.5));
#2199=CARTESIAN_POINT('',(0.1445,0.,0.5));
#2200=CARTESIAN_POINT('',(0.1705,0.,0.008));
#2201=CARTESIAN_POINT('',(0.0555,0.,0.5));
#2202=CARTESIAN_POINT('',(0.0445,0.,0.5));
#2203=CARTESIAN_POINT('',(0.1705,0.,0.008));
#2204=CARTESIAN_POINT('',(-0.0445,0.,0.5));
#2205=CARTESIAN_POINT('',(-0.0555,0.,0.5));
#2206=CARTESIAN_POINT('',(0.1705,0.,0.008));
#2207=CARTESIAN_POINT('',(-0.1445,0.,0.5));
#2208=CARTESIAN_POINT('',(-0.1555,0.,0.5));
#2209=CARTESIAN_POINT('',(-0.1655,-0.35,1.));
#2210=CARTESIAN_POINT('',(-0.1655,0.0173205080756888,1.));
#2211=CARTESIAN_POINT('',(-0.1655,0.139,1.));
#2212=CARTESIAN_POINT('',(0.1655,0.139,1.));
#2213=CARTESIAN_POINT('',(0.1655,0.0173205080756887,1.));
#2214=CARTESIAN_POINT('',(0.1655,0.139,1.));
#2215=CARTESIAN_POINT('',(-0.1345,0.139,1.));
#2216=CARTESIAN_POINT('',(-0.1345,0.0173205080756888,1.));
#2217=CARTESIAN_POINT('',(-0.1345,0.139,1.));
#2218=CARTESIAN_POINT('',(-0.0655,-0.35,1.));
#2219=CARTESIAN_POINT('',(-0.0655,0.0173205080756888,1.));
#2220=CARTESIAN_POINT('',(-0.0655,0.139,1.));
#2221=CARTESIAN_POINT('',(-0.0345,0.139,1.));
#2222=CARTESIAN_POINT('',(-0.0345,0.0173205080756888,1.));
#2223=CARTESIAN_POINT('',(-0.0345,0.139,1.));
#2224=CARTESIAN_POINT('',(0.0345,-0.35,1.));
#2225=CARTESIAN_POINT('',(0.0345,0.0173205080756888,1.));
#2226=CARTESIAN_POINT('',(0.0345,0.139,1.));
#2227=CARTESIAN_POINT('',(0.1345,-0.35,1.));
#2228=CARTESIAN_POINT('',(0.1345,0.0173205080756889,1.));
#2229=CARTESIAN_POINT('',(0.1345,0.139,1.));
#2230=CARTESIAN_POINT('',(0.0655,0.139,1.));
#2231=CARTESIAN_POINT('',(0.0655,0.0173205080756888,1.));
#2232=CARTESIAN_POINT('',(0.0655,0.139,1.));
#2233=CARTESIAN_POINT('',(0.1705,0.,0.));
#2234=CARTESIAN_POINT('',(0.1705,0.139,0.024));
#2235=CARTESIAN_POINT('',(0.1705,0.139,0.024));
#2236=CARTESIAN_POINT('',(0.1705,0.139,-0.024));
#2237=CARTESIAN_POINT('',(0.1705,0.144,-0.024));
#2238=CARTESIAN_POINT('',(0.1705,0.144,-0.024));
#2239=CARTESIAN_POINT('',(0.1705,0.144,-0.008));
#2240=CARTESIAN_POINT('',(0.1705,0.144,0.024));
#2241=CARTESIAN_POINT('',(0.1705,0.144,0.024));
#2242=CARTESIAN_POINT('',(-0.1705,0.,0.));
#2243=CARTESIAN_POINT('',(-0.1705,0.144,-0.024));
#2244=CARTESIAN_POINT('',(-0.1705,0.144,-0.024));
#2245=CARTESIAN_POINT('',(-0.1705,0.139,-0.024));
#2246=CARTESIAN_POINT('',(-0.1705,0.139,-0.024));
#2247=CARTESIAN_POINT('',(-0.1705,0.139,0.024));
#2248=CARTESIAN_POINT('',(-0.1705,0.144,0.024));
#2249=CARTESIAN_POINT('',(-0.1705,0.144,0.024));
#2250=CARTESIAN_POINT('',(-0.1705,0.144,-0.008));
#2251=CARTESIAN_POINT('',(0.1705,0.144,-0.008));
#2252=CARTESIAN_POINT('',(-0.1705,0.144,0.024));
#2253=CARTESIAN_POINT('',(0.1705,0.144,-0.024));
#2254=CARTESIAN_POINT('',(0.1705,0.144,-0.024));
#2255=CARTESIAN_POINT('',(0.1705,0.139,-0.024));
#2256=CARTESIAN_POINT('',(0.,0.139,0.));
#2257=CARTESIAN_POINT('',(-0.1705,0.139,0.024));
#2258=CARTESIAN_POINT('',(-0.1705,0.144,0.024));
#2259=CARTESIAN_POINT('',(0.0655,0.0173205080756888,0.5));
#2260=CARTESIAN_POINT('',(0.1445,0.,0.5));
#2261=CARTESIAN_POINT('',(0.0445,0.,0.5));
#2262=CARTESIAN_POINT('',(-0.0345,0.0173205080756888,0.5));
#2263=CARTESIAN_POINT('',(-0.0555,0.,0.5));
#2264=CARTESIAN_POINT('',(-0.1345,0.0173205080756888,0.5));
#2265=CARTESIAN_POINT('',(0.1655,0.0173205080756888,0.5));
#2266=CARTESIAN_POINT('',(-0.1555,0.,0.5));
#2267=CARTESIAN_POINT('',(0.,-0.104,-1.27363267111325E-17));
#2268=MECHANICAL_DESIGN_GEOMETRIC_PRESENTATION_REPRESENTATION('',(#1433,
#1434),#2269);
#2269=(
GEOMETRIC_REPRESENTATION_CONTEXT(3)
GLOBAL_UNCERTAINTY_ASSIGNED_CONTEXT((#2272))
GLOBAL_UNIT_ASSIGNED_CONTEXT((#2277,#2276,#2275))
REPRESENTATION_CONTEXT('SSW-104-01-F-S','TOP_LEVEL_ASSEMBLY_PART')
);
#2270=(
GEOMETRIC_REPRESENTATION_CONTEXT(3)
GLOBAL_UNCERTAINTY_ASSIGNED_CONTEXT((#2273))
GLOBAL_UNIT_ASSIGNED_CONTEXT((#2277,#2276,#2275))
REPRESENTATION_CONTEXT('T1SSW-104-01-F-S','COMPONENT_PART')
);
#2271=(
GEOMETRIC_REPRESENTATION_CONTEXT(3)
GLOBAL_UNCERTAINTY_ASSIGNED_CONTEXT((#2274))
GLOBAL_UNIT_ASSIGNED_CONTEXT((#2277,#2276,#2275))
REPRESENTATION_CONTEXT('P2SSW-104-01-F-S','COMPONENT_PART')
);
#2272=UNCERTAINTY_MEASURE_WITH_UNIT(LENGTH_MEASURE(0.000196850393700787),
#2277,'DISTANCE_ACCURACY_VALUE','Maximum Tolerance applied to model');
#2273=UNCERTAINTY_MEASURE_WITH_UNIT(LENGTH_MEASURE(0.000196850393700787),
#2277,'DISTANCE_ACCURACY_VALUE','Maximum Tolerance applied to model');
#2274=UNCERTAINTY_MEASURE_WITH_UNIT(LENGTH_MEASURE(0.000196850393700787),
#2277,'DISTANCE_ACCURACY_VALUE','Maximum Tolerance applied to model');
#2275=(
NAMED_UNIT(*)
SI_UNIT($,.STERADIAN.)
SOLID_ANGLE_UNIT()
);
#2276=(
NAMED_UNIT(*)
PLANE_ANGLE_UNIT()
SI_UNIT($,.RADIAN.)
);
#2277=(
CONVERSION_BASED_UNIT('INCH',#2279)
LENGTH_UNIT()
NAMED_UNIT(#2278)
);
#2278=DIMENSIONAL_EXPONENTS(1.,0.,0.,0.,0.,0.,0.);
#2279=LENGTH_MEASURE_WITH_UNIT(LENGTH_MEASURE(25.4),#2280);
#2280=(
LENGTH_UNIT()
NAMED_UNIT(*)
SI_UNIT(.MILLI.,.METRE.)
);
#2281=PRODUCT_DEFINITION_SHAPE('','',#2286);
#2282=PRODUCT_DEFINITION_SHAPE('','',#2287);
#2283=PRODUCT_DEFINITION_SHAPE(' ','NAUO PRDDFN',#21);
#2284=PRODUCT_DEFINITION_SHAPE('','',#2288);
#2285=PRODUCT_DEFINITION_SHAPE(' ','NAUO PRDDFN',#22);
#2286=PRODUCT_DEFINITION('','',#2292,#2289);
#2287=PRODUCT_DEFINITION('','',#2293,#2290);
#2288=PRODUCT_DEFINITION('','',#2294,#2291);
#2289=PRODUCT_DEFINITION_CONTEXT('',#2308,'design');
#2290=PRODUCT_DEFINITION_CONTEXT('',#2308,'design');
#2291=PRODUCT_DEFINITION_CONTEXT('',#2308,'design');
#2292=PRODUCT_DEFINITION_FORMATION_WITH_SPECIFIED_SOURCE('','',#2298,
 .NOT_KNOWN.);
#2293=PRODUCT_DEFINITION_FORMATION_WITH_SPECIFIED_SOURCE('','',#2299,
 .NOT_KNOWN.);
#2294=PRODUCT_DEFINITION_FORMATION_WITH_SPECIFIED_SOURCE('','',#2300,
 .NOT_KNOWN.);
#2295=PRODUCT_RELATED_PRODUCT_CATEGORY('','',(#2298));
#2296=PRODUCT_RELATED_PRODUCT_CATEGORY('','',(#2299));
#2297=PRODUCT_RELATED_PRODUCT_CATEGORY('','',(#2300));
#2298=PRODUCT('SSW-104-01-F-S','SSW-104-01-F-S','SSW-104-01-F-S',(#2304));
#2299=PRODUCT('T1SSW-104-01-F-S','T1SSW-104-01-F-S','T1SSW-104-01-F-S',
(#2305));
#2300=PRODUCT('P2SSW-104-01-F-S','P2SSW-104-01-F-S','P2SSW-104-01-F-S',
(#2306));
#2301=PRODUCT_CATEGORY('','');
#2302=PRODUCT_CATEGORY('','');
#2303=PRODUCT_CATEGORY('','');
#2304=PRODUCT_CONTEXT('',#2308,'mechanical');
#2305=PRODUCT_CONTEXT('',#2308,'mechanical');
#2306=PRODUCT_CONTEXT('',#2308,'mechanical');
#2307=APPLICATION_PROTOCOL_DEFINITION('international standard',
'automotive_design',2010,#2308);
#2308=APPLICATION_CONTEXT(
'core data for automotive mechanical design processes');
ENDSEC;
END-ISO-10303-21;
